{"glyphs":{"0":{"ha":530,"x_min":37,"x_max":494,"o":"m 465 543 l 462 533 l 455 536 l 455 517 l 458 513 l 462 495 l 469 466 l 469 453 l 475 437 l 484 409 l 492 378 l 494 334 l 494 292 l 491 274 l 492 215 l 486 182 l 484 163 l 477 151 l 475 138 l 471 124 l 473 119 l 465 109 l 460 95 l 451 88 l 451 79 l 431 43 l 422 30 l 408 16 l 397 7 l 377 -17 l 359 -28 l 339 -46 l 319 -60 l 301 -68 l 263 -82 l 234 -89 l 200 -86 l 169 -77 l 140 -57 l 129 -55 l 109 -44 l 79 -15 l 57 26 l 39 73 l 37 115 l 37 162 l 46 209 l 71 288 l 109 374 l 155 448 l 180 491 l 182 498 l 184 513 l 174 515 l 169 531 l 205 574 l 256 618 l 315 652 l 384 686 l 391 686 l 406 688 l 429 670 l 449 645 l 455 616 l 454 608 l 363 473 l 359 475 l 353 463 l 335 446 l 294 392 l 258 351 l 205 244 l 178 159 l 172 123 l 172 79 l 176 55 l 184 28 l 214 28 l 244 45 l 282 79 l 320 125 l 347 205 l 364 334 l 365 420 l 458 554 l 465 543 z "},"1":{"ha":412,"x_min":46,"x_max":467,"o":"m 387 736 l 393 738 l 411 738 l 427 731 l 445 707 l 449 705 l 463 680 l 465 660 l 463 648 l 467 644 l 467 631 l 463 617 l 460 602 l 440 559 l 427 534 l 420 532 l 422 523 l 416 517 l 389 469 l 378 463 l 373 454 l 353 422 l 344 412 l 333 385 l 328 378 l 321 362 l 301 328 l 294 309 l 288 304 l 290 288 l 268 264 l 268 237 l 261 235 l 254 219 l 243 192 l 243 176 l 241 165 l 234 163 l 237 150 l 232 150 l 234 143 l 223 87 l 221 67 l 214 56 l 218 49 l 214 38 l 210 31 l 210 26 l 214 22 l 205 -18 l 201 -39 l 201 -52 l 194 -85 l 187 -92 l 178 -117 l 172 -141 l 168 -155 l 163 -157 l 158 -153 l 151 -161 l 142 -163 l 132 -179 l 125 -177 l 125 -175 l 127 45 l 134 130 l 144 183 l 156 243 l 194 355 l 230 458 l 178 420 l 142 405 l 120 402 l 100 407 l 73 418 l 58 429 l 46 438 l 60 469 l 122 534 l 232 629 l 330 703 l 387 736 z "},"2":{"ha":862,"x_min":9,"x_max":862,"o":"m 504 648 l 513 648 l 555 648 l 587 644 l 609 637 l 635 621 l 654 597 l 663 579 l 678 557 l 692 528 l 694 507 l 701 492 l 703 465 l 696 435 l 683 411 l 663 389 l 647 375 l 629 368 l 611 355 l 602 342 l 589 339 l 580 326 l 557 306 l 540 299 l 530 292 l 517 283 l 483 257 l 454 243 l 428 228 l 416 218 l 416 212 l 401 201 l 348 156 l 339 154 l 330 149 l 330 142 l 351 144 l 382 151 l 406 149 l 415 154 l 475 156 l 482 158 l 516 156 l 561 154 l 585 156 l 590 149 l 623 142 l 630 149 l 663 142 l 677 134 l 699 140 l 730 138 l 760 132 l 804 125 l 817 118 l 822 113 l 828 111 l 853 93 l 862 84 l 862 80 l 848 77 l 855 71 l 835 64 l 806 60 l 781 57 l 764 51 l 745 53 l 725 49 l 712 49 l 712 44 l 692 46 l 674 37 l 665 37 l 645 24 l 618 22 l 575 11 l 553 6 l 450 -7 l 444 -12 l 359 -23 l 340 -28 l 275 -32 l 240 -41 l 157 -54 l 135 -61 l 117 -63 l 90 -63 l 77 -52 l 63 -43 l 58 -37 l 36 -14 l 23 -3 l 9 15 l 16 42 l 23 58 l 32 64 l 54 93 l 132 154 l 237 228 l 304 281 l 325 301 l 365 335 l 432 404 l 439 411 l 497 480 l 511 500 l 461 503 l 444 498 l 425 498 l 419 492 l 367 476 l 309 447 l 278 433 l 244 425 l 213 431 l 202 447 l 202 460 l 211 480 l 237 511 l 251 521 l 298 563 l 376 610 l 444 637 l 504 648 z "},"3":{"ha":540,"x_min":-46,"x_max":488,"o":"m 237 594 l 322 611 l 369 612 l 405 606 l 430 593 l 450 576 l 471 545 l 482 527 l 483 500 l 486 471 l 486 460 l 477 441 l 463 431 l 435 403 l 418 396 l 395 378 l 378 355 l 365 350 l 363 341 l 340 326 l 334 318 l 312 296 l 359 283 l 411 264 l 454 231 l 472 211 l 488 182 l 484 153 l 485 126 l 478 115 l 463 104 l 460 97 l 441 94 l 439 87 l 427 81 l 418 76 l 410 64 l 388 56 l 357 39 l 346 33 l 341 35 l 332 30 l 312 22 l 301 12 l 275 9 l 254 0 l 221 -15 l 192 -26 l 179 -36 l 172 -33 l 161 -38 l 136 -41 l 105 -52 l 54 -74 l 43 -74 l 21 -83 l 14 -81 l -9 -73 l -20 -79 l -31 -84 l -46 -77 l -40 -68 l -42 -58 l -20 -30 l 9 -18 l 26 -7 l 109 41 l 128 51 l 296 143 l 310 157 l 263 158 l 207 166 l 184 179 l 168 199 l 157 210 l 148 223 l 142 250 l 155 275 l 162 277 l 171 291 l 189 311 l 266 373 l 310 414 l 342 453 l 358 477 l 357 491 l 313 490 l 284 483 l 250 478 l 186 461 l 139 465 l 105 477 l 94 489 l 89 505 l 93 520 l 115 545 l 144 561 l 237 594 z "},"4":{"ha":649,"x_min":46,"x_max":714,"o":"m 188 425 l 146 351 l 131 317 l 134 288 l 144 279 l 187 284 l 234 296 l 273 448 l 315 581 l 332 627 l 338 646 l 345 663 l 376 684 l 382 684 l 394 673 l 404 640 l 399 592 l 408 586 l 402 552 l 385 485 l 343 337 l 353 339 l 374 349 l 399 353 l 421 364 l 457 374 l 469 376 l 475 380 l 488 383 l 555 399 l 580 406 l 645 420 l 703 429 l 709 429 l 714 425 l 711 416 l 705 398 l 686 387 l 686 371 l 581 332 l 563 323 l 503 300 l 498 294 l 429 266 l 322 220 l 319 214 l 313 214 l 302 200 l 308 187 l 297 153 l 279 144 l 281 133 l 275 100 l 260 47 l 243 -17 l 232 -46 l 223 -71 l 217 -96 l 204 -124 l 195 -139 l 189 -161 l 180 -177 l 176 -179 l 176 -143 l 167 -151 l 166 -103 l 171 -72 l 182 36 l 206 161 l 206 177 l 175 170 l 155 176 l 121 178 l 87 191 l 76 198 l 62 212 l 49 229 l 47 254 l 46 278 l 62 326 l 110 418 l 183 532 l 254 627 l 260 629 l 285 652 l 294 654 l 299 651 l 232 494 l 188 425 z "},"5":{"ha":552,"x_min":9,"x_max":571,"o":"m 492 651 l 497 655 l 568 640 l 571 637 l 571 631 l 568 627 l 571 617 l 555 604 l 542 581 l 540 575 l 542 572 l 537 559 l 533 557 l 533 555 l 537 550 l 533 544 l 539 524 l 548 508 l 550 494 l 550 489 l 526 484 l 517 477 l 488 467 l 444 457 l 420 456 l 407 457 l 364 457 l 322 458 l 311 465 l 307 458 l 295 465 l 286 441 l 255 387 l 242 365 l 340 322 l 383 298 l 444 253 l 463 228 l 475 201 l 473 188 l 481 150 l 475 141 l 456 119 l 437 103 l 425 96 l 421 87 l 405 85 l 385 78 l 349 62 l 325 43 l 307 40 l 293 31 l 269 14 l 242 11 l 222 0 l 213 0 l 213 4 l 189 2 l 173 2 l 155 -3 l 148 -7 l 110 -7 l 112 2 l 83 0 l 79 -5 l 81 -9 l 67 -7 l 54 -9 l 34 0 l 20 0 l 12 16 l 14 22 l 9 24 l 18 33 l 12 43 l 16 47 l 20 60 l 36 76 l 39 85 l 47 90 l 67 100 l 108 114 l 159 138 l 249 181 l 253 181 l 291 203 l 298 205 l 300 217 l 258 237 l 184 269 l 157 282 l 137 302 l 123 326 l 117 355 l 121 387 l 134 420 l 182 488 l 182 490 l 163 501 l 163 510 l 148 532 l 146 539 l 157 557 l 184 584 l 195 600 l 197 608 l 208 610 l 215 610 l 237 610 l 244 608 l 258 617 l 287 615 l 289 610 l 302 615 l 304 610 l 311 610 l 316 617 l 329 620 l 351 620 l 354 624 l 365 622 l 370 627 l 374 624 l 378 631 l 394 631 l 423 642 l 486 651 l 492 651 z "},"6":{"ha":501,"x_min":46,"x_max":529,"o":"m 319 403 l 346 394 l 353 383 l 366 383 l 382 376 l 404 353 l 412 326 l 414 326 l 418 312 l 427 312 l 430 296 l 432 294 l 427 288 l 437 276 l 437 263 l 439 247 l 444 243 l 444 225 l 441 220 l 441 205 l 439 191 l 442 176 l 440 167 l 433 167 l 436 150 l 431 142 l 433 133 l 425 128 l 425 106 l 405 90 l 394 66 l 379 56 l 370 43 l 348 24 l 333 11 l 307 -7 l 300 -18 l 279 -28 l 260 -32 l 250 -43 l 203 -59 l 167 -59 l 122 -49 l 104 -40 l 93 -28 l 70 3 l 68 12 l 56 34 l 47 81 l 46 136 l 55 197 l 72 255 l 98 309 l 98 313 l 144 399 l 178 455 l 184 462 l 193 477 l 211 503 l 224 521 l 251 559 l 267 574 l 273 581 l 293 610 l 386 705 l 466 769 l 497 783 l 513 778 l 524 772 l 526 753 l 529 745 l 515 729 l 515 722 l 507 709 l 487 686 l 476 661 l 478 655 l 465 644 l 469 637 l 454 632 l 456 625 l 452 621 l 441 606 l 441 596 l 436 592 l 429 594 l 425 589 l 412 583 l 410 574 l 389 551 l 366 519 l 343 488 l 326 468 l 317 450 l 286 405 l 288 404 l 223 300 l 220 301 l 213 288 l 213 283 l 204 272 l 206 268 l 197 261 l 197 256 l 191 234 l 186 232 l 178 205 l 180 198 l 176 191 l 169 167 l 164 152 l 168 138 l 159 124 l 163 121 l 163 106 l 161 71 l 161 64 l 170 35 l 195 28 l 222 42 l 260 73 l 293 105 l 308 136 l 319 184 l 318 251 l 307 282 l 293 295 l 287 302 l 278 300 l 264 309 l 260 307 l 309 401 l 319 403 z "},"7":{"ha":488,"x_min":0,"x_max":544,"o":"m 331 724 l 358 724 l 436 722 l 484 712 l 497 705 l 519 686 l 528 663 l 539 656 l 539 652 l 544 648 l 535 605 l 537 600 l 530 578 l 530 574 l 515 536 l 506 529 l 499 513 l 479 488 l 475 473 l 465 453 l 446 435 l 432 426 l 430 417 l 410 397 l 401 381 l 391 374 l 391 370 l 374 352 l 372 343 l 358 316 l 342 296 l 331 274 l 318 256 l 313 258 l 307 254 l 296 231 l 293 220 l 282 209 l 264 176 l 248 151 l 244 142 l 209 69 l 203 58 l 191 56 l 191 45 l 184 41 l 180 18 l 176 14 l 157 -18 l 142 -60 l 136 -85 l 129 -85 l 129 -43 l 155 58 l 224 231 l 248 292 l 300 404 l 372 545 l 391 587 l 347 585 l 311 578 l 244 565 l 184 558 l 172 558 l 127 555 l 87 560 l 50 571 l 9 596 l 0 614 l 3 636 l 12 650 l 45 670 l 105 690 l 208 715 l 331 724 z "},"8":{"ha":583,"x_min":46,"x_max":666,"o":"m 232 240 l 214 207 l 210 189 l 205 184 l 201 171 l 189 146 l 187 138 l 174 99 l 172 91 l 178 79 l 180 64 l 210 57 l 234 57 l 239 61 l 268 61 l 283 64 l 330 71 l 380 88 l 397 99 l 393 113 l 382 140 l 349 178 l 292 224 l 258 254 l 111 386 l 102 399 l 93 428 l 93 446 l 104 475 l 118 498 l 172 553 l 248 616 l 349 679 l 393 701 l 413 708 l 442 715 l 467 710 l 483 696 l 503 661 l 496 648 l 494 645 l 438 618 l 433 618 l 423 616 l 413 613 l 403 611 l 387 604 l 370 595 l 355 583 l 332 570 l 308 549 l 275 521 l 264 511 l 229 476 l 229 473 l 217 458 l 213 454 l 203 440 l 210 428 l 227 415 l 283 473 l 313 507 l 382 565 l 420 589 l 431 589 l 431 595 l 547 641 l 556 643 l 601 648 l 623 652 l 628 650 l 635 654 l 657 654 l 657 648 l 650 645 l 652 641 l 666 641 l 666 636 l 652 632 l 648 625 l 630 614 l 621 614 l 621 612 l 623 607 l 621 596 l 623 596 l 652 591 l 652 587 l 604 574 l 559 555 l 552 553 l 545 547 l 523 538 l 469 507 l 444 491 l 420 475 l 402 457 l 380 439 l 364 424 l 339 408 l 335 393 l 328 390 l 328 383 l 315 359 l 313 345 l 328 332 l 377 294 l 438 238 l 471 191 l 480 173 l 492 151 l 496 132 l 499 106 l 496 90 l 489 86 l 475 72 l 460 58 l 438 43 l 393 13 l 375 3 l 361 -1 l 335 -15 l 279 -31 l 208 -39 l 136 -44 l 118 -39 l 100 -39 l 86 -28 l 68 -19 l 64 -13 l 53 12 l 46 26 l 51 43 l 51 59 l 58 95 l 89 176 l 100 198 l 113 233 l 151 298 l 159 312 l 235 244 l 232 240 z "},"9":{"ha":465,"x_min":56,"x_max":548,"o":"m 214 347 l 174 340 l 161 349 l 159 340 l 140 347 l 134 353 l 127 349 l 114 360 l 71 400 l 62 420 l 56 458 l 56 481 l 69 519 l 87 548 l 114 579 l 174 633 l 255 689 l 338 732 l 393 749 l 436 756 l 440 756 l 450 754 l 458 760 l 476 763 l 488 760 l 503 760 l 530 745 l 534 736 l 548 727 l 548 700 l 528 600 l 500 534 l 494 517 l 485 508 l 481 492 l 471 488 l 460 460 l 445 443 l 436 425 l 420 407 l 400 367 l 400 362 l 380 349 l 378 338 l 373 324 l 359 304 l 362 302 l 353 288 l 328 243 l 321 228 l 304 197 l 288 154 l 273 112 l 265 85 l 254 52 l 245 25 l 250 14 l 243 9 l 239 -6 l 232 -8 l 230 -22 l 223 -24 l 201 -78 l 196 -73 l 194 -33 l 192 -8 l 194 21 l 201 54 l 202 74 l 205 96 l 214 125 l 214 136 l 219 154 l 221 176 l 221 201 l 228 219 l 233 239 l 239 273 l 257 345 l 257 353 l 317 522 l 338 555 l 376 627 l 369 635 l 313 604 l 304 597 l 304 591 l 290 589 l 266 559 l 243 534 l 195 477 l 185 456 l 190 452 l 221 448 l 250 456 l 277 465 l 277 465 l 242 351 l 214 347 z "},"×":{"ha":0,"x_min":0,"x_max":0,"o":""},"ý":{"ha":0,"x_min":0,"x_max":0,"o":""}," ":{"ha":278,"x_min":0,"x_max":0,"o":""},"!":{"ha":463,"x_min":65,"x_max":465,"o":"m 119 167 l 132 174 l 173 157 l 180 157 l 183 159 l 183 167 l 198 170 l 203 157 l 208 157 l 218 142 l 224 147 l 230 144 l 239 125 l 247 111 l 250 111 l 254 118 l 259 115 l 264 108 l 277 93 l 279 91 l 277 81 l 281 71 l 277 71 l 277 66 l 279 66 l 284 49 l 281 26 l 279 9 l 262 -1 l 239 -5 l 227 -22 l 203 -20 l 198 -20 l 163 -7 l 129 14 l 119 26 l 106 29 l 109 34 l 102 41 l 102 52 l 79 64 l 65 71 l 70 79 l 70 86 l 75 93 l 73 103 l 77 108 l 85 108 l 79 118 l 87 123 l 82 140 l 87 142 l 97 140 l 99 142 l 99 147 l 109 159 l 119 167 m 372 957 l 399 967 l 425 962 l 460 937 l 465 929 l 465 904 l 445 817 l 427 767 l 387 663 l 377 661 l 328 549 l 326 539 l 300 458 l 293 450 l 290 448 l 296 443 l 288 433 l 293 425 l 288 410 l 283 402 l 275 387 l 273 379 l 253 344 l 242 301 l 240 271 l 235 243 l 227 243 l 222 220 l 207 210 l 199 212 l 189 208 l 179 225 l 172 283 l 174 347 l 195 468 l 220 582 l 255 703 l 300 812 l 338 901 l 349 934 l 372 957 z "},"\"":{"ha":327,"x_min":93,"x_max":345,"o":"m 286 727 l 298 734 l 313 731 l 317 730 l 324 726 l 330 727 l 338 717 l 345 703 l 345 694 l 340 683 l 335 663 l 332 659 l 328 643 l 327 636 l 312 599 l 305 585 l 301 585 l 298 574 l 281 527 l 280 519 l 275 517 l 267 492 l 260 483 l 256 481 l 257 475 l 256 472 l 260 467 l 256 460 l 257 455 l 255 446 l 254 441 l 254 430 l 250 421 l 238 419 l 222 431 l 218 452 l 216 490 l 218 532 l 222 555 l 241 625 l 247 640 l 254 659 l 273 711 l 279 723 l 286 727 m 184 741 l 191 743 l 203 742 l 216 734 l 219 724 l 224 722 l 227 714 l 215 684 l 214 673 l 205 643 l 193 606 l 179 563 l 178 560 l 175 550 l 170 532 l 165 524 l 159 509 l 155 486 l 150 473 l 147 472 l 149 460 l 151 456 l 157 458 l 157 454 l 153 450 l 153 443 l 150 441 l 149 437 l 132 436 l 130 433 l 127 435 l 117 429 l 113 429 l 103 447 l 95 477 l 93 520 l 104 586 l 122 640 l 142 688 l 163 726 l 173 738 l 182 742 l 184 741 z "},"#":{"ha":555,"x_min":46,"x_max":509,"o":"m 56 916 l 56 9 l 500 9 l 500 916 l 56 916 m 509 0 l 46 0 l 46 926 l 509 926 l 509 0 z "},"$":{"ha":600,"x_min":37,"x_max":610,"o":"m 388 224 l 380 224 l 374 222 l 368 201 l 353 147 l 349 132 l 343 109 l 361 122 l 391 144 l 429 177 l 432 188 l 422 201 l 388 224 m 287 507 l 281 507 l 263 490 l 214 437 l 191 413 l 182 398 l 178 387 l 193 380 l 219 373 l 267 360 l 271 363 l 289 490 l 292 495 l 287 507 m 462 913 l 473 921 l 492 920 l 509 909 l 511 900 l 519 882 l 520 848 l 511 785 l 491 702 l 519 698 l 556 683 l 584 663 l 608 641 l 610 604 l 600 579 l 578 579 l 559 591 l 490 616 l 481 616 l 464 586 l 439 515 l 434 495 l 424 471 l 414 431 l 407 413 l 393 349 l 390 328 l 390 322 l 452 291 l 495 260 l 524 230 l 528 223 l 535 198 l 535 180 l 534 163 l 522 150 l 504 132 l 482 115 l 465 107 l 445 93 l 417 78 l 382 58 l 356 43 l 337 31 l 330 26 l 329 -9 l 321 -27 l 323 -70 l 320 -81 l 323 -106 l 326 -121 l 329 -146 l 335 -164 l 332 -180 l 351 -223 l 347 -225 l 353 -239 l 341 -250 l 332 -247 l 329 -262 l 313 -264 l 313 -273 l 300 -273 l 283 -252 l 264 -193 l 245 -103 l 235 1 l 217 -14 l 198 -22 l 171 -33 l 149 -35 l 140 -28 l 121 -27 l 121 -23 l 139 -17 l 173 7 l 234 54 l 243 168 l 251 244 l 249 260 l 200 266 l 157 270 l 133 273 l 98 285 l 54 309 l 39 330 l 37 343 l 45 374 l 57 403 l 102 467 l 185 551 l 280 631 l 335 673 l 377 783 l 408 843 l 441 896 l 462 913 z "},"%":{"ha":751,"x_min":74,"x_max":668,"o":"m 562 234 l 558 236 l 558 230 l 544 214 l 534 199 l 534 195 l 526 191 l 520 180 l 518 178 l 506 159 l 500 155 l 494 141 l 488 137 l 488 133 l 484 131 l 490 125 l 468 115 l 472 113 l 472 109 l 468 107 l 466 93 l 456 87 l 448 62 l 441 57 l 441 51 l 437 45 l 439 43 l 478 55 l 514 83 l 543 117 l 564 161 l 566 199 l 566 208 l 562 222 l 562 234 m 272 643 l 268 643 l 245 607 l 237 597 l 210 553 l 193 520 l 201 516 l 234 524 l 252 534 l 264 564 l 270 609 l 272 641 l 272 643 m 559 342 l 568 345 l 571 344 l 574 339 l 579 344 l 584 342 l 584 339 l 591 336 l 593 330 l 601 329 l 604 319 l 637 292 l 648 283 l 646 272 l 653 273 l 656 265 l 654 260 l 663 247 l 665 238 l 665 213 l 663 213 l 661 213 l 660 210 l 654 206 l 660 179 l 668 163 l 661 151 l 658 144 l 661 139 l 661 132 l 654 117 l 648 89 l 636 75 l 623 62 l 616 55 l 616 52 l 619 52 l 619 45 l 612 40 l 600 28 l 596 28 l 589 18 l 569 1 l 541 -14 l 526 -18 l 519 -20 l 519 -22 l 502 -27 l 462 -41 l 422 -38 l 399 -25 l 391 -14 l 381 -12 l 381 -7 l 371 5 l 368 7 l 356 26 l 351 50 l 348 85 l 353 115 l 366 155 l 373 170 l 386 195 l 373 199 l 368 199 l 378 218 l 428 267 l 462 292 l 511 322 l 530 332 l 534 334 l 544 334 l 559 342 m 618 723 l 652 745 l 657 745 l 662 734 l 657 721 l 661 718 l 652 696 l 648 694 l 648 692 l 640 681 l 616 652 l 606 644 l 602 637 l 578 600 l 566 587 l 555 568 l 533 543 l 516 515 l 498 488 l 496 484 l 479 466 l 474 454 l 464 442 l 456 427 l 432 393 l 432 390 l 422 382 l 415 372 l 415 368 l 407 360 l 404 353 l 395 350 l 389 336 l 374 311 l 360 292 l 353 283 l 340 261 l 319 228 l 307 211 l 300 197 l 290 177 l 284 167 l 268 137 l 244 87 l 241 77 l 233 58 l 220 26 l 208 -16 l 195 -61 l 195 -70 l 187 -86 l 182 -101 l 184 -108 l 178 -117 l 172 -115 l 170 -121 l 165 -125 l 165 -127 l 153 -138 l 151 -136 l 155 -88 l 172 -7 l 197 75 l 233 162 l 271 246 l 350 395 l 402 476 l 427 511 l 513 618 l 563 671 l 588 694 l 618 723 m 210 738 l 247 753 l 267 750 l 292 736 l 304 730 l 328 713 l 332 701 l 341 693 l 342 688 l 348 669 l 351 656 l 349 652 l 353 646 l 349 643 l 357 629 l 363 629 l 363 595 l 368 567 l 361 547 l 363 542 l 356 530 l 351 525 l 349 513 l 349 497 l 343 485 l 329 470 l 312 460 l 297 446 l 289 448 l 287 444 l 274 441 l 255 438 l 254 435 l 225 426 l 205 426 l 205 422 l 191 422 l 189 425 l 191 429 l 189 431 l 178 428 l 161 435 l 145 437 l 131 451 l 116 461 l 109 470 l 89 493 l 89 495 l 81 511 l 76 528 l 74 550 l 76 572 l 79 595 l 91 629 l 102 651 l 131 681 l 166 711 l 210 738 z "},"&":{"ha":786,"x_min":39,"x_max":835,"o":"m 348 318 l 363 385 l 348 370 l 330 368 l 317 359 l 301 344 l 262 321 l 252 315 l 205 287 l 205 279 l 197 274 l 195 269 l 176 254 l 172 245 l 172 238 l 161 227 l 163 210 l 190 194 l 216 186 l 283 184 l 327 184 l 348 318 m 433 595 l 431 595 l 376 574 l 332 551 l 418 546 l 433 595 m 694 1017 l 697 1020 l 722 1015 l 736 997 l 739 987 l 739 966 l 734 935 l 734 919 l 713 857 l 718 852 l 705 826 l 692 785 l 726 792 l 752 792 l 772 787 l 785 782 l 791 782 l 798 774 l 814 766 l 827 753 l 835 728 l 829 725 l 817 725 l 811 715 l 804 712 l 791 720 l 762 720 l 739 715 l 710 707 l 710 699 l 679 694 l 671 691 l 661 675 l 637 652 l 615 604 l 608 584 l 593 555 l 580 535 l 612 528 l 646 520 l 659 515 l 661 507 l 656 505 l 656 502 l 640 492 l 640 484 l 625 479 l 630 466 l 568 448 l 563 448 l 547 435 l 547 416 l 534 411 l 532 404 l 547 401 l 542 388 l 526 388 l 524 365 l 515 330 l 509 290 l 505 262 l 490 212 l 477 204 l 479 194 l 589 207 l 726 227 l 690 207 l 661 197 l 643 189 l 633 186 l 617 176 l 586 165 l 565 153 l 524 142 l 490 121 l 488 119 l 472 109 l 475 98 l 469 93 l 462 56 l 449 -14 l 451 -29 l 446 -42 l 441 -47 l 438 -86 l 436 -91 l 438 -104 l 431 -112 l 422 -109 l 415 -117 l 407 -117 l 389 -133 l 368 -159 l 363 -163 l 361 -169 l 355 -166 l 337 -146 l 324 -115 l 319 -45 l 317 82 l 288 77 l 288 75 l 264 72 l 264 64 l 264 62 l 249 64 l 241 59 l 218 59 l 172 59 l 163 62 l 145 62 l 135 70 l 127 70 l 102 82 l 78 103 l 65 119 l 52 147 l 42 165 l 39 207 l 58 258 l 71 277 l 112 313 l 387 471 l 391 484 l 376 489 l 366 484 l 337 481 l 324 479 l 298 481 l 296 473 l 286 471 l 249 473 l 244 473 l 213 476 l 203 486 l 200 515 l 192 520 l 200 557 l 213 588 l 236 614 l 324 655 l 490 717 l 503 741 l 573 870 l 617 937 l 659 997 l 677 1013 l 687 1020 l 694 1017 z "},"'":{"ha":209,"x_min":93,"x_max":227,"o":"m 168 710 l 186 726 l 201 724 l 214 715 l 226 696 l 227 677 l 224 650 l 220 626 l 210 585 l 195 542 l 190 527 l 180 510 l 170 486 l 166 480 l 161 481 l 159 480 l 157 470 l 155 469 l 150 470 l 147 460 l 147 456 l 139 440 l 137 439 l 129 437 l 110 426 l 109 425 l 100 437 l 94 466 l 93 499 l 98 543 l 109 586 l 122 626 l 150 683 l 168 710 z "},"(":{"ha":555,"x_min":155,"x_max":555,"o":"m 483 964 l 498 968 l 516 966 l 520 964 l 536 960 l 549 951 l 555 937 l 551 918 l 547 903 l 530 873 l 507 838 l 475 781 l 450 724 l 418 661 l 412 650 l 397 614 l 365 551 l 349 510 l 340 481 l 330 453 l 313 424 l 306 398 l 294 343 l 290 316 l 285 277 l 285 184 l 288 167 l 285 163 l 286 147 l 294 118 l 296 94 l 308 57 l 347 -16 l 369 -47 l 369 -53 l 418 -110 l 424 -116 l 424 -132 l 428 -139 l 418 -155 l 395 -155 l 391 -163 l 379 -159 l 375 -159 l 367 -155 l 316 -119 l 292 -96 l 250 -41 l 224 -2 l 195 53 l 178 104 l 163 173 l 155 261 l 159 328 l 167 400 l 193 494 l 226 599 l 261 675 l 322 785 l 369 852 l 406 899 l 450 938 l 483 964 z "},")":{"ha":555,"x_min":76,"x_max":498,"o":"m 258 943 l 268 954 l 298 954 l 325 941 l 345 924 l 361 903 l 419 804 l 452 724 l 478 637 l 478 618 l 482 598 l 496 512 l 496 479 l 498 456 l 494 439 l 488 408 l 488 382 l 484 374 l 480 341 l 476 322 l 469 309 l 471 298 l 467 292 l 456 281 l 447 257 l 452 253 l 452 249 l 439 220 l 431 205 l 414 184 l 404 171 l 392 147 l 380 127 l 355 91 l 351 80 l 335 76 l 331 76 l 323 61 l 300 33 l 270 0 l 223 -30 l 210 -43 l 167 -76 l 148 -94 l 127 -103 l 115 -116 l 103 -125 l 80 -138 l 76 -101 l 78 -88 l 98 -30 l 146 56 l 230 165 l 267 228 l 295 285 l 317 348 l 332 397 l 343 456 l 345 511 l 341 558 l 330 627 l 298 733 l 267 825 l 249 865 l 241 894 l 239 920 l 245 933 l 254 943 l 258 943 z "},"*":{"ha":675,"x_min":123,"x_max":715,"o":"m 322 1025 l 354 1043 l 370 1039 l 385 1029 l 437 942 l 469 989 l 497 1017 l 511 1008 l 513 995 l 511 970 l 485 906 l 568 942 l 624 960 l 663 966 l 668 966 l 673 962 l 682 952 l 684 938 l 682 932 l 678 918 l 667 910 l 604 892 l 557 871 l 555 867 l 638 854 l 699 838 l 713 831 l 715 827 l 709 825 l 707 819 l 701 817 l 701 813 l 694 811 l 692 808 l 682 808 l 667 801 l 644 801 l 618 791 l 582 791 l 576 785 l 526 785 l 519 783 l 534 743 l 553 692 l 557 678 l 566 659 l 568 650 l 566 642 l 557 640 l 551 648 l 549 636 l 542 632 l 530 644 l 526 646 l 519 659 l 513 659 l 507 670 l 509 656 l 509 648 l 501 650 l 501 654 l 477 688 l 412 767 l 393 713 l 378 678 l 364 632 l 356 614 l 354 612 l 352 602 l 340 598 l 336 604 l 334 628 l 340 688 l 351 739 l 348 741 l 308 717 l 280 711 l 268 701 l 262 699 l 241 684 l 223 682 l 201 670 l 181 663 l 177 667 l 165 659 l 161 654 l 142 650 l 137 646 l 123 648 l 157 692 l 220 749 l 258 777 l 258 781 l 223 779 l 203 777 l 189 793 l 193 808 l 209 829 l 211 836 l 231 856 l 277 860 l 336 866 l 348 869 l 314 942 l 308 966 l 304 997 l 310 998 l 314 1013 l 322 1017 l 322 1025 z "},"+":{"ha":555,"x_min":46,"x_max":509,"o":"m 56 916 l 56 9 l 500 9 l 500 916 l 56 916 m 509 0 l 46 0 l 46 926 l 509 926 l 509 0 z "},",":{"ha":358,"x_min":-37,"x_max":286,"o":"m 110 167 l 127 174 l 159 172 l 230 149 l 252 138 l 272 109 l 286 73 l 283 33 l 272 5 l 258 -24 l 235 -43 l 204 -80 l 170 -103 l 153 -120 l 144 -125 l 119 -151 l 102 -159 l 96 -168 l 51 -191 l 5 -219 l -14 -224 l -20 -216 l -37 -205 l 27 -126 l 78 -54 l 104 -24 l 127 5 l 138 32 l 127 33 l 106 32 l 69 41 l 60 63 l 60 93 l 65 118 l 91 157 l 110 167 z "},"-":{"ha":576,"x_min":56,"x_max":520,"o":"m 281 315 l 330 319 l 377 319 l 486 319 l 511 317 l 520 311 l 520 304 l 502 298 l 500 292 l 494 291 l 473 279 l 471 269 l 456 262 l 437 248 l 401 236 l 381 230 l 376 224 l 355 230 l 353 224 l 318 208 l 268 195 l 236 187 l 197 189 l 162 186 l 115 191 l 88 186 l 73 197 l 74 202 l 62 215 l 57 219 l 59 243 l 56 253 l 69 277 l 76 287 l 102 295 l 144 299 l 231 309 l 281 315 z "},".":{"ha":358,"x_min":41,"x_max":260,"o":"m 96 167 l 109 174 l 150 157 l 157 157 l 160 159 l 160 167 l 174 170 l 170 157 l 174 150 l 177 147 l 180 150 l 180 157 l 184 157 l 195 142 l 201 147 l 207 144 l 216 125 l 224 111 l 231 118 l 236 115 l 241 108 l 254 93 l 256 91 l 254 81 l 258 71 l 254 71 l 254 66 l 256 66 l 260 49 l 258 26 l 260 17 l 254 19 l 254 17 l 256 9 l 239 -1 l 216 -5 l 204 -22 l 180 -20 l 174 -20 l 140 -7 l 106 14 l 96 26 l 83 29 l 86 34 l 79 41 l 79 52 l 56 64 l 41 71 l 44 79 l 47 79 l 47 86 l 52 93 l 49 103 l 54 108 l 62 108 l 56 118 l 64 123 l 59 140 l 64 142 l 74 140 l 76 142 l 76 147 l 86 159 l 96 167 z "},"/":{"ha":568,"x_min":28,"x_max":614,"o":"m 551 949 l 570 962 l 588 962 l 612 940 l 614 924 l 612 907 l 612 890 l 591 846 l 553 778 l 508 703 l 477 655 l 440 596 l 346 425 l 313 363 l 292 321 l 275 295 l 268 267 l 254 252 l 226 194 l 216 175 l 202 140 l 195 127 l 176 83 l 164 78 l 155 59 l 117 -35 l 103 -61 l 89 -101 l 79 -117 l 75 -117 l 56 -141 l 44 -138 l 30 -132 l 28 -108 l 35 -68 l 49 17 l 82 137 l 117 241 l 176 375 l 247 519 l 338 681 l 412 789 l 485 890 l 520 928 l 551 949 z "},":":{"ha":358,"x_min":41,"x_max":359,"o":"m 101 143 l 115 151 l 161 132 l 169 132 l 172 135 l 172 143 l 188 146 l 182 132 l 188 124 l 191 121 l 193 124 l 193 132 l 199 132 l 210 116 l 218 121 l 223 119 l 234 97 l 242 81 l 245 81 l 250 89 l 256 86 l 261 78 l 275 62 l 277 59 l 275 48 l 280 37 l 275 37 l 275 32 l 277 32 l 283 13 l 280 -12 l 258 -41 l 234 -46 l 220 -65 l 193 -63 l 188 -63 l 150 -50 l 112 -24 l 101 -12 l 82 5 l 82 16 l 58 29 l 41 37 l 45 45 l 47 45 l 47 54 l 53 62 l 50 73 l 56 78 l 64 78 l 58 89 l 66 94 l 61 113 l 66 116 l 77 113 l 79 116 l 79 121 l 98 143 l 101 143 m 167 534 l 194 545 l 237 530 l 245 530 l 248 532 l 248 541 l 264 543 l 258 530 l 264 522 l 267 519 l 269 522 l 269 530 l 275 530 l 286 513 l 294 519 l 299 516 l 310 494 l 318 478 l 321 478 l 326 486 l 332 484 l 337 475 l 351 459 l 353 456 l 351 446 l 356 435 l 353 429 l 359 410 l 356 386 l 334 356 l 310 351 l 296 332 l 269 334 l 264 334 l 226 348 l 188 372 l 178 386 l 164 389 l 166 394 l 158 402 l 158 413 l 134 427 l 118 435 l 121 443 l 123 443 l 123 451 l 129 459 l 126 470 l 132 475 l 140 475 l 134 486 l 142 492 l 136 511 l 142 513 l 153 511 l 167 534 z "},";":{"ha":358,"x_min":-37,"x_max":359,"o":"m 110 144 l 127 152 l 159 149 l 230 127 l 252 115 l 272 87 l 286 50 l 283 10 l 272 -18 l 258 -46 l 235 -66 l 204 -102 l 170 -125 l 153 -142 l 144 -148 l 119 -174 l 102 -182 l 96 -191 l 51 -213 l 5 -241 l -14 -247 l -20 -239 l -37 -227 l 9 -168 l 64 -109 l 106 -46 l 122 -15 l 138 9 l 127 11 l 106 9 l 69 18 l 60 41 l 60 71 l 65 96 l 91 135 l 110 144 m 167 534 l 194 545 l 237 530 l 245 530 l 248 532 l 248 541 l 264 543 l 258 530 l 264 522 l 267 519 l 269 522 l 269 530 l 275 530 l 286 513 l 294 519 l 299 516 l 310 494 l 318 478 l 321 478 l 326 486 l 332 484 l 337 475 l 351 459 l 353 456 l 351 446 l 356 435 l 351 435 l 351 429 l 353 429 l 359 410 l 356 386 l 334 356 l 310 351 l 296 332 l 269 334 l 264 334 l 226 348 l 188 372 l 166 394 l 158 402 l 158 413 l 134 427 l 118 435 l 121 443 l 123 443 l 123 451 l 129 459 l 126 470 l 132 475 l 140 475 l 134 486 l 142 492 l 136 511 l 142 513 l 153 511 l 167 534 z "},"<":{"ha":663,"x_min":0,"x_max":663,"o":"m 583 587 l 596 589 l 612 578 l 635 551 l 647 538 l 659 516 l 663 496 l 659 467 l 655 465 l 649 451 l 643 443 l 625 443 l 618 443 l 590 451 l 586 451 l 561 477 l 557 479 l 528 529 l 533 536 l 533 544 l 539 549 l 539 555 l 559 568 l 561 576 l 583 587 m 394 797 l 404 799 l 418 799 l 439 779 l 453 770 l 463 760 l 467 739 l 467 708 l 460 693 l 441 678 l 427 661 l 374 507 l 359 473 l 335 421 l 331 417 l 323 397 l 311 376 l 328 376 l 378 387 l 463 391 l 576 376 l 576 372 l 572 367 l 572 330 l 572 311 l 568 290 l 568 277 l 567 266 l 557 188 l 549 136 l 549 82 l 553 65 l 576 67 l 600 73 l 647 97 l 655 100 l 655 82 l 645 67 l 647 56 l 635 43 l 629 39 l 614 26 l 610 22 l 606 11 l 545 -11 l 500 -2 l 480 11 l 460 33 l 449 65 l 445 97 l 447 142 l 460 201 l 492 285 l 484 283 l 473 270 l 445 266 l 447 259 l 437 253 l 431 250 l 410 235 l 386 229 l 384 229 l 372 220 l 319 197 l 290 186 l 231 169 l 217 164 l 208 140 l 192 67 l 190 43 l 186 37 l 184 15 l 180 4 l 182 -2 l 155 -160 l 155 -164 l 132 -222 l 119 -242 l 94 -266 l 86 -272 l 79 -266 l 75 -266 l 65 -275 l 57 -277 l 45 -283 l 14 -290 l 0 -283 l 2 -275 l 2 -257 l 6 -248 l 12 -242 l 8 -233 l 16 -231 l 12 -224 l 16 -212 l 20 -210 l 28 -191 l 41 -175 l 53 -167 l 78 -33 l 98 125 l 107 188 l 60 208 l 43 222 l 41 239 l 41 248 l 56 268 l 100 296 l 133 313 l 151 385 l 180 479 l 208 551 l 249 628 l 278 680 l 321 741 l 353 773 l 374 790 l 394 797 z "},"=":{"ha":290,"x_min":-56,"x_max":456,"o":"m 412 723 l 446 745 l 451 745 l 456 734 l 451 721 l 454 718 l 446 696 l 443 692 l 434 681 l 411 652 l 401 644 l 396 637 l 372 600 l 361 587 l 349 568 l 327 543 l 311 515 l 290 484 l 273 466 l 269 454 l 258 442 l 248 425 l 227 393 l 227 390 l 216 382 l 210 372 l 210 368 l 201 360 l 198 353 l 189 350 l 182 336 l 168 311 l 154 292 l 147 283 l 134 261 l 114 228 l 100 211 l 94 197 l 89 189 l 83 177 l 79 167 l 62 137 l 39 87 l 35 77 l 26 62 l 26 58 l 15 26 l 1 -16 l -10 -61 l -10 -70 l -19 -86 l -24 -101 l -22 -108 l -27 -117 l -34 -115 l -41 -125 l -41 -127 l -52 -138 l -56 -136 l -50 -88 l -34 -7 l -9 75 l 26 162 l 65 246 l 144 395 l 196 476 l 221 511 l 307 618 l 357 671 l 382 694 l 412 723 z "},">":{"ha":700,"x_min":0,"x_max":755,"o":"m 464 764 l 481 768 l 488 768 l 505 755 l 513 737 l 515 722 l 517 709 l 509 690 l 505 690 l 472 614 l 458 578 l 452 567 l 444 538 l 441 534 l 431 509 l 399 446 l 399 439 l 388 420 l 378 401 l 374 383 l 466 375 l 523 366 l 574 483 l 639 597 l 678 651 l 709 673 l 718 673 l 735 655 l 741 631 l 737 604 l 733 593 l 731 578 l 723 558 l 720 554 l 700 498 l 690 470 l 684 450 l 659 407 l 652 390 l 646 388 l 643 375 l 643 357 l 625 326 l 617 299 l 610 282 l 606 267 l 593 232 l 584 211 l 584 191 l 578 180 l 576 144 l 574 118 l 566 105 l 566 100 l 574 96 l 576 90 l 582 75 l 606 64 l 633 62 l 675 67 l 730 97 l 749 113 l 755 102 l 745 88 l 743 84 l 728 69 l 716 52 l 716 45 l 700 33 l 685 11 l 654 -9 l 631 -20 l 595 -20 l 578 -14 l 570 -12 l 527 7 l 501 31 l 488 62 l 479 96 l 478 146 l 484 220 l 492 258 l 488 260 l 472 258 l 460 256 l 431 252 l 423 256 l 415 250 l 349 248 l 311 241 l 305 230 l 296 211 l 296 204 l 250 96 l 246 71 l 242 64 l 242 55 l 224 25 l 201 -58 l 184 -122 l 165 -172 l 155 -197 l 147 -215 l 145 -219 l 138 -250 l 114 -275 l 94 -286 l 86 -288 l 71 -299 l 55 -299 l 53 -303 l 35 -295 l 33 -290 l 24 -292 l 9 -280 l 0 -267 l 8 -230 l 12 -197 l 20 -174 l 22 -153 l 22 -148 l 29 -146 l 37 -111 l 45 -83 l 51 -66 l 57 -71 l 61 -71 l 63 -90 l 66 -92 l 68 -87 l 73 -87 l 79 -113 l 90 -81 l 90 -77 l 94 -62 l 98 -51 l 113 18 l 119 47 l 127 68 l 130 100 l 138 124 l 140 151 l 152 180 l 152 202 l 154 211 l 160 215 l 156 228 l 162 237 l 162 245 l 129 241 l 109 241 l 101 239 l 70 239 l 50 250 l 44 269 l 48 277 l 70 299 l 146 345 l 195 362 l 211 405 l 219 429 l 231 463 l 256 519 l 262 528 l 268 543 l 279 567 l 323 636 l 372 692 l 423 742 l 464 764 z "},"?":{"ha":555,"x_min":102,"x_max":636,"o":"m 156 156 l 168 163 l 210 146 l 237 136 l 240 139 l 240 146 l 245 146 l 254 131 l 262 136 l 267 134 l 277 114 l 284 99 l 286 99 l 292 106 l 296 104 l 301 97 l 313 82 l 316 79 l 313 70 l 321 38 l 319 16 l 316 -1 l 298 -12 l 277 -16 l 264 -34 l 240 -31 l 235 -31 l 200 -19 l 166 3 l 146 23 l 139 31 l 139 40 l 117 52 l 102 60 l 104 67 l 124 112 l 119 129 l 124 131 l 136 131 l 136 136 l 146 149 l 156 156 m 386 890 l 437 895 l 487 893 l 535 878 l 563 863 l 598 832 l 614 817 l 626 774 l 636 721 l 631 701 l 626 696 l 624 683 l 604 668 l 578 650 l 566 640 l 543 637 l 530 625 l 479 589 l 459 570 l 447 562 l 384 498 l 358 460 l 351 440 l 320 367 l 313 317 l 311 279 l 308 273 l 311 251 l 313 245 l 311 223 l 308 220 l 308 213 l 298 213 l 290 205 l 277 193 l 272 195 l 257 180 l 239 188 l 236 213 l 224 245 l 201 290 l 189 343 l 189 404 l 203 457 l 227 517 l 267 581 l 313 634 l 342 664 l 406 718 l 414 727 l 368 724 l 300 715 l 262 724 l 255 726 l 237 739 l 227 754 l 224 774 l 222 782 l 229 800 l 239 814 l 267 838 l 343 876 l 386 890 z "},"@":{"ha":555,"x_min":-334,"x_max":334,"o":"m 296 235 l 314 248 l 320 248 l 328 245 l 334 239 l 331 230 l 331 225 l 319 227 l 315 224 l 304 223 l 296 232 l 296 235 m 232 272 l 241 283 l 250 286 l 262 284 l 271 279 l 280 271 l 275 254 l 260 250 l 254 251 l 238 260 l 232 272 m 177 284 l 174 300 l 188 307 l 193 308 l 205 307 l 219 302 l 220 294 l 227 286 l 226 280 l 222 273 l 211 271 l 204 268 l 189 275 l 177 284 m 62 342 l 64 345 l 74 351 l 75 351 l 84 348 l 89 346 l 100 336 l 108 338 l 120 338 l 138 333 l 150 331 l 157 324 l 173 326 l 180 321 l 181 309 l 176 305 l 167 307 l 164 305 l 163 296 l 155 292 l 153 288 l 146 286 l 144 287 l 134 289 l 127 288 l 115 294 l 104 302 l 100 304 l 92 312 l 87 317 l 72 321 l 60 332 l 62 342 m -29 378 l -28 383 l -19 389 l 1 388 l 19 385 l 23 377 l 33 376 l 43 373 l 55 362 l 57 352 l 54 339 l 52 334 l 38 331 l 24 332 l 18 335 l 15 341 l 2 348 l -24 366 l -29 378 m -281 791 l -280 798 l -269 795 l -251 800 l -240 805 l -238 808 l -229 804 l -212 800 l -207 799 l -201 803 l -192 803 l -171 791 l -168 791 l -157 798 l -157 801 l -152 802 l -150 800 l -155 781 l -150 772 l -144 770 l -146 768 l -135 762 l -123 765 l -120 768 l -113 769 l -109 766 l -109 765 l -111 762 l -121 759 l -124 752 l -120 749 l -120 745 l -123 743 l -121 736 l -123 734 l -120 722 l -128 718 l -146 692 l -171 680 l -182 675 l -193 678 l -201 681 l -212 659 l -216 649 l -218 646 l -219 635 l -236 625 l -241 619 l -238 610 l -239 602 l -234 597 l -232 576 l -230 570 l -210 552 l -197 524 l -184 519 l -180 517 l -176 509 l -172 503 l -166 496 l -155 489 l -152 485 l -140 475 l -112 463 l -104 455 l -83 446 l -81 434 l -62 431 l -45 418 l -42 414 l -43 405 l -50 394 l -54 391 l -68 390 l -73 389 l -79 388 l -83 395 l -92 401 l -105 404 l -111 413 l -130 428 l -144 431 l -153 440 l -157 448 l -160 454 l -168 457 l -190 468 l -194 475 l -196 475 l -202 474 l -208 473 l -211 488 l -213 491 l -230 500 l -248 503 l -254 509 l -261 520 l -267 526 l -265 528 l -271 532 l -271 537 l -283 533 l -287 556 l -292 559 l -303 583 l -321 585 l -330 593 l -328 596 l -319 602 l -327 640 l -332 644 l -334 648 l -324 652 l -318 661 l -317 662 l -320 670 l -307 672 l -309 683 l -303 698 l -292 711 l -290 718 l -274 724 l -283 733 l -283 735 l -302 740 l -303 747 l -299 749 l -293 750 l -291 753 l -302 762 l -302 764 l -282 783 l -281 791 z "},"A":{"ha":554,"x_min":46,"x_max":545,"o":"m 360 192 l 327 188 l 323 184 l 280 182 l 246 182 l 231 178 l 219 151 l 221 130 l 213 102 l 208 80 l 205 68 l 201 62 l 191 33 l 190 20 l 186 12 l 184 -8 l 178 -30 l 166 -54 l 164 -65 l 153 -89 l 144 -106 l 134 -118 l 121 -122 l 111 -130 l 92 -134 l 80 -134 l 66 -126 l 52 -109 l 48 -83 l 46 -77 l 46 -34 l 50 -6 l 64 74 l 72 106 l 87 180 l 96 210 l 101 220 l 101 233 l 83 262 l 81 275 l 90 280 l 85 288 l 90 304 l 92 315 l 92 317 l 113 323 l 129 332 l 138 361 l 142 376 l 166 449 l 174 479 l 178 481 l 178 488 l 205 563 l 215 587 l 231 633 l 243 673 l 264 739 l 268 747 l 272 759 l 298 828 l 305 840 l 323 888 l 341 923 l 355 931 l 370 937 l 408 935 l 431 931 l 435 927 l 449 925 l 480 909 l 524 858 l 539 833 l 539 828 l 537 812 l 543 796 l 545 741 l 543 722 l 543 699 l 539 671 l 537 631 l 535 596 l 527 538 l 525 519 l 515 479 l 511 469 l 509 444 l 504 418 l 504 400 l 500 396 l 500 382 l 498 376 l 502 371 l 490 349 l 490 343 l 502 330 l 502 317 l 507 317 l 502 292 l 498 282 l 502 264 l 496 259 l 498 247 l 498 224 l 490 220 l 486 218 l 490 194 l 494 188 l 492 170 l 496 157 l 492 153 l 494 141 l 492 123 l 505 43 l 509 29 l 507 21 l 515 -4 l 513 -24 l 515 -63 l 519 -73 l 515 -79 l 517 -89 l 522 -109 l 527 -116 l 525 -130 l 531 -161 l 537 -184 l 537 -199 l 545 -228 l 543 -252 l 520 -213 l 500 -171 l 500 -167 l 492 -149 l 468 -102 l 460 -79 l 443 -34 l 441 -16 l 429 9 l 419 31 l 414 56 l 354 453 l 355 470 l 355 513 l 352 576 l 352 629 l 348 674 l 330 612 l 319 573 l 311 549 l 305 510 l 301 504 l 298 481 l 290 455 l 282 420 l 276 388 l 276 365 l 292 361 l 330 358 l 363 193 l 360 192 z "},"B":{"ha":751,"x_min":74,"x_max":751,"o":"m 286 -2 l 321 33 l 333 37 l 357 57 l 368 66 l 396 86 l 410 96 l 417 98 l 425 110 l 447 138 l 458 143 l 471 155 l 486 165 l 492 171 l 515 195 l 535 204 l 535 212 l 543 212 l 543 218 l 559 236 l 572 241 l 585 253 l 610 279 l 629 298 l 635 308 l 626 320 l 588 328 l 561 332 l 551 328 l 519 328 l 496 330 l 467 330 l 442 328 l 404 320 l 376 311 l 359 313 l 343 308 l 311 305 l 309 303 l 354 514 l 355 514 l 378 522 l 394 530 l 453 565 l 475 577 l 494 591 l 506 597 l 533 620 l 567 644 l 585 661 l 608 689 l 612 693 l 620 707 l 629 720 l 631 728 l 629 738 l 618 746 l 590 753 l 553 755 l 486 742 l 441 724 l 408 709 l 357 673 l 353 667 l 326 659 l 321 624 l 323 610 l 325 597 l 326 591 l 258 244 l 255 239 l 251 228 l 247 224 l 239 200 l 241 186 l 229 151 l 223 143 l 216 104 l 214 79 l 214 57 l 210 51 l 208 -2 l 201 -12 l 198 -26 l 196 -45 l 176 -68 l 174 -77 l 153 -68 l 135 -65 l 111 -41 l 104 -8 l 100 31 l 100 134 l 104 233 l 104 248 l 107 300 l 105 330 l 109 369 l 107 404 l 111 437 l 109 444 l 113 463 l 113 481 l 111 490 l 121 634 l 119 640 l 111 656 l 96 673 l 92 677 l 86 703 l 78 716 l 74 732 l 86 748 l 90 764 l 86 769 l 105 793 l 109 801 l 121 810 l 142 842 l 164 858 l 198 887 l 208 889 l 237 909 l 249 914 l 262 918 l 271 924 l 286 936 l 329 950 l 353 956 l 363 958 l 380 960 l 390 966 l 416 970 l 435 970 l 449 973 l 517 971 l 559 964 l 578 958 l 594 956 l 653 930 l 677 916 l 700 899 l 720 877 l 728 861 l 743 824 l 747 812 l 747 803 l 743 791 l 749 787 l 751 762 l 751 751 l 748 735 l 732 705 l 724 699 l 724 685 l 718 669 l 700 663 l 690 644 l 675 616 l 648 593 l 642 581 l 627 573 l 621 564 l 614 551 l 587 523 l 575 509 l 555 496 l 543 485 l 543 473 l 524 457 l 545 453 l 600 444 l 642 430 l 663 422 l 677 414 l 682 412 l 700 398 l 708 395 l 720 375 l 726 363 l 743 316 l 743 306 l 739 297 l 735 279 l 728 251 l 710 220 l 700 214 l 698 208 l 690 196 l 667 161 l 661 157 l 659 147 l 647 141 l 643 134 l 620 114 l 612 102 l 590 94 l 576 77 l 576 73 l 563 73 l 555 65 l 555 49 l 537 37 l 513 33 l 510 22 l 484 14 l 458 12 l 449 6 l 443 -4 l 435 -6 l 423 -14 l 419 -20 l 408 -24 l 396 -22 l 392 -26 l 380 -39 l 370 -43 l 365 -41 l 359 -45 l 341 -35 l 329 -49 l 317 -57 l 306 -55 l 302 -51 l 287 -49 l 276 -57 l 276 -63 l 272 -63 l 264 -55 l 256 -56 l 265 -17 l 286 -2 z "},"C":{"ha":647,"x_min":74,"x_max":758,"o":"m 596 927 l 610 945 l 621 945 l 623 940 l 646 940 l 657 936 l 687 914 l 711 914 l 720 908 l 728 895 l 730 882 l 743 863 l 758 832 l 758 800 l 747 776 l 734 761 l 720 750 l 676 739 l 663 733 l 657 726 l 635 705 l 607 670 l 592 648 l 573 631 l 526 580 l 517 571 l 497 545 l 493 543 l 465 502 l 454 489 l 452 482 l 435 465 l 415 435 l 411 435 l 389 405 l 372 385 l 353 351 l 338 330 l 327 308 l 316 288 l 307 252 l 294 219 l 290 170 l 292 141 l 311 107 l 344 85 l 378 73 l 426 62 l 460 60 l 506 60 l 536 62 l 541 53 l 549 51 l 543 44 l 553 38 l 551 33 l 549 33 l 551 25 l 545 25 l 543 27 l 541 20 l 547 18 l 547 5 l 541 7 l 526 -3 l 499 -7 l 473 -14 l 469 -12 l 444 -18 l 411 -20 l 366 -22 l 283 -9 l 221 16 l 171 51 l 130 92 l 102 133 l 85 176 l 78 202 l 78 224 l 74 252 l 78 310 l 89 330 l 87 347 l 94 353 l 96 372 l 100 387 l 111 407 l 119 431 l 128 450 l 154 491 l 167 511 l 174 522 l 191 545 l 203 558 l 214 578 l 253 621 l 305 683 l 327 707 l 340 718 l 344 726 l 355 737 l 393 772 l 415 793 l 460 834 l 473 845 l 499 863 l 530 888 l 553 908 l 562 910 l 566 914 l 596 927 z "},"D":{"ha":659,"x_min":65,"x_max":669,"o":"m 102 111 l 102 130 l 100 155 l 102 173 l 100 192 l 102 231 l 104 293 l 108 349 l 110 379 l 108 404 l 114 408 l 118 427 l 116 441 l 120 450 l 120 484 l 124 503 l 131 528 l 133 538 l 133 554 l 137 554 l 141 565 l 145 593 l 149 623 l 161 653 l 161 674 l 170 705 l 178 726 l 174 734 l 174 742 l 159 756 l 153 777 l 153 785 l 155 791 l 157 810 l 165 825 l 168 829 l 176 837 l 191 843 l 207 845 l 219 851 l 234 857 l 240 871 l 246 882 l 252 882 l 250 897 l 256 897 l 271 884 l 296 882 l 330 882 l 392 874 l 413 867 l 421 865 l 456 851 l 485 839 l 493 831 l 516 819 l 536 804 l 549 793 l 555 785 l 559 785 l 576 764 l 580 754 l 592 748 l 596 742 l 613 711 l 629 688 l 633 666 l 644 645 l 648 618 l 656 612 l 663 583 l 665 540 l 659 519 l 665 517 l 669 503 l 667 490 l 659 482 l 656 466 l 656 448 l 648 420 l 642 414 l 644 398 l 631 381 l 621 359 l 613 326 l 594 287 l 563 250 l 528 213 l 500 192 l 481 167 l 471 163 l 467 155 l 435 138 l 433 132 l 417 117 l 401 107 l 397 105 l 397 101 l 382 101 l 345 73 l 337 73 l 326 54 l 306 56 l 294 45 l 279 43 l 279 39 l 271 35 l 264 37 l 232 27 l 234 39 l 215 35 l 215 25 l 207 21 l 201 10 l 195 10 l 184 -4 l 174 -2 l 176 -18 l 168 -28 l 159 -31 l 139 -24 l 127 -37 l 120 -37 l 114 -31 l 104 -35 l 104 -37 l 100 -41 l 81 -47 l 77 -43 l 71 -50 l 67 -39 l 65 -24 l 71 -20 l 71 -10 l 90 8 l 106 28 l 253 146 l 254 142 l 283 159 l 304 178 l 316 186 l 347 208 l 378 231 l 405 252 l 427 274 l 438 289 l 452 303 l 467 315 l 479 330 l 502 367 l 512 383 l 524 420 l 526 456 l 528 482 l 522 540 l 508 587 l 493 623 l 481 637 l 454 666 l 425 682 l 397 690 l 359 692 l 345 694 l 301 694 l 301 663 l 291 625 l 287 618 l 293 600 l 289 542 l 291 528 l 287 519 l 289 484 l 285 435 l 281 429 l 281 404 l 277 379 l 270 350 l 271 321 l 267 299 l 258 268 l 254 262 l 253 244 l 253 211 l 248 203 l 250 197 l 107 79 l 102 111 z "},"E":{"ha":733,"x_min":93,"x_max":918,"o":"m 313 869 l 352 873 l 367 869 l 372 869 l 387 867 l 413 867 l 439 871 l 478 873 l 536 873 l 568 867 l 604 867 l 674 863 l 704 860 l 820 848 l 880 843 l 911 838 l 916 838 l 918 828 l 916 817 l 892 811 l 880 809 l 872 806 l 840 808 l 831 804 l 805 806 l 799 802 l 791 806 l 788 798 l 783 791 l 783 781 l 764 776 l 756 779 l 751 774 l 749 774 l 728 768 l 709 753 l 702 757 l 699 751 l 691 753 l 686 748 l 646 742 l 641 744 l 624 736 l 624 733 l 598 727 l 583 716 l 570 711 l 561 703 l 534 694 l 510 688 l 499 686 l 494 681 l 464 679 l 443 673 l 417 664 l 389 654 l 385 647 l 376 644 l 350 584 l 338 543 l 328 524 l 326 513 l 322 500 l 328 498 l 372 505 l 445 507 l 517 504 l 551 500 l 562 496 l 577 494 l 585 490 l 590 489 l 590 485 l 581 467 l 553 448 l 538 438 l 531 440 l 525 431 l 486 422 l 439 407 l 413 398 l 335 386 l 315 385 l 290 382 l 277 321 l 273 306 l 264 252 l 258 243 l 258 181 l 260 168 l 260 153 l 266 134 l 281 125 l 303 123 l 338 123 l 425 134 l 452 142 l 531 153 l 577 166 l 622 176 l 678 193 l 680 184 l 658 157 l 658 153 l 637 127 l 602 97 l 577 79 l 568 73 l 564 62 l 551 56 l 527 45 l 519 37 l 512 37 l 512 34 l 499 22 l 490 15 l 484 17 l 473 9 l 465 7 l 465 4 l 450 0 l 425 -11 l 417 -15 l 404 -15 l 400 -18 l 342 -24 l 309 -22 l 286 -20 l 212 -1 l 188 12 l 163 26 l 161 32 l 149 45 l 139 56 l 132 75 l 117 99 l 109 119 l 106 123 l 98 166 l 98 176 l 94 200 l 93 246 l 93 265 l 98 280 l 96 286 l 96 313 l 102 336 l 104 353 l 109 392 l 124 455 l 126 468 l 136 502 l 139 517 l 139 522 l 151 549 l 152 562 l 154 576 l 169 619 l 180 656 l 184 659 l 191 692 l 180 699 l 158 718 l 144 733 l 139 742 l 156 750 l 156 753 l 165 759 l 161 766 l 167 778 l 167 789 l 191 804 l 195 804 l 208 813 l 229 823 l 238 825 l 251 831 l 262 841 l 268 850 l 285 861 l 313 869 z "},"F":{"ha":602,"x_min":93,"x_max":787,"o":"m 234 852 l 234 858 l 238 858 l 252 846 l 259 821 l 271 780 l 271 748 l 273 746 l 281 748 l 298 756 l 332 768 l 352 772 l 395 787 l 412 789 l 420 795 l 465 803 l 481 807 l 524 817 l 579 825 l 597 829 l 623 831 l 630 833 l 656 833 l 666 835 l 673 833 l 687 835 l 711 837 l 719 835 l 732 835 l 750 838 l 764 829 l 779 831 l 787 821 l 779 821 l 768 817 l 774 812 l 774 803 l 764 802 l 755 804 l 750 798 l 750 791 l 748 787 l 748 776 l 752 774 l 746 768 l 740 772 l 734 768 l 724 772 l 724 760 l 721 760 l 715 766 l 705 768 l 699 758 l 687 750 l 677 750 l 648 745 l 630 736 l 623 739 l 609 732 l 597 732 l 593 725 l 568 721 l 554 721 l 538 709 l 517 703 l 491 693 l 485 688 l 477 691 l 471 686 l 444 675 l 420 671 l 408 666 l 387 656 l 373 654 l 352 646 l 344 646 l 316 633 l 298 631 l 279 623 l 275 591 l 273 542 l 269 515 l 269 481 l 263 464 l 263 438 l 277 440 l 291 446 l 320 456 l 336 456 l 350 460 l 355 468 l 381 468 l 385 471 l 393 469 l 403 479 l 408 477 l 426 484 l 434 484 l 456 488 l 471 486 l 481 489 l 507 489 l 528 486 l 534 489 l 538 486 l 544 484 l 544 479 l 540 475 l 538 468 l 530 464 l 526 466 l 522 464 l 520 456 l 509 450 l 513 438 l 495 425 l 487 413 l 469 409 l 462 403 l 428 391 l 428 383 l 407 377 l 401 368 l 383 370 l 372 363 l 368 356 l 355 348 l 340 344 l 326 334 l 304 324 l 271 317 l 248 309 l 241 304 l 240 283 l 236 277 l 240 271 l 230 234 l 220 222 l 220 189 l 216 181 l 208 183 l 205 181 l 206 172 l 203 165 l 206 155 l 203 150 l 197 100 l 191 89 l 193 65 l 186 43 l 185 10 l 186 -21 l 181 -33 l 183 -49 l 183 -70 l 179 -90 l 175 -131 l 165 -144 l 157 -146 l 149 -127 l 142 -111 l 140 -96 l 130 -76 l 128 -60 l 122 -43 l 109 10 l 111 18 l 102 47 l 100 65 l 98 83 l 94 111 l 98 115 l 96 150 l 94 177 l 100 193 l 93 240 l 98 267 l 104 307 l 109 336 l 111 370 l 112 403 l 124 464 l 124 481 l 132 513 l 132 530 l 140 548 l 149 599 l 159 627 l 163 654 l 165 660 l 173 693 l 179 703 l 189 741 l 197 752 l 205 776 l 208 800 l 224 825 l 234 852 z "},"G":{"ha":807,"x_min":65,"x_max":802,"o":"m 577 -376 l 577 -400 l 559 -439 l 546 -351 l 536 -317 l 522 -226 l 518 -174 l 516 -165 l 512 -84 l 514 -76 l 518 -3 l 518 24 l 518 47 l 512 55 l 507 47 l 500 50 l 481 41 l 459 37 l 448 26 l 434 22 l 426 26 l 402 16 l 373 14 l 351 12 l 318 14 l 273 22 l 233 35 l 202 50 l 184 59 l 141 92 l 123 110 l 110 132 l 98 149 l 83 191 l 68 230 l 65 252 l 68 265 l 68 304 l 77 332 l 100 385 l 118 424 l 132 444 l 149 475 l 155 481 l 191 534 l 200 548 l 208 557 l 224 577 l 230 591 l 261 628 l 283 654 l 304 683 l 334 717 l 338 724 l 347 730 l 387 772 l 408 793 l 432 810 l 463 834 l 477 838 l 496 846 l 528 862 l 551 869 l 585 873 l 593 871 l 601 862 l 610 854 l 634 825 l 661 799 l 675 792 l 693 789 l 706 758 l 704 727 l 702 691 l 686 664 l 673 648 l 661 644 l 649 627 l 637 614 l 633 609 l 602 599 l 571 595 l 551 585 l 531 577 l 513 564 l 511 552 l 498 543 l 469 511 l 422 459 l 363 374 l 334 329 l 321 305 l 316 299 l 312 279 l 313 231 l 328 211 l 352 195 l 378 185 l 401 182 l 414 189 l 446 197 l 477 210 l 518 236 l 557 265 l 565 277 l 571 300 l 583 338 l 593 357 l 601 377 l 604 397 l 606 403 l 616 408 l 616 428 l 634 438 l 648 448 l 658 461 l 671 461 l 691 454 l 705 456 l 724 438 l 751 428 l 764 418 l 783 389 l 798 359 l 802 313 l 796 278 l 787 260 l 773 222 l 765 188 l 755 165 l 741 130 l 720 80 l 720 76 l 710 47 l 696 14 l 686 -6 l 677 -32 l 674 -48 l 667 -59 l 665 -98 l 659 -102 l 659 -110 l 654 -137 l 648 -153 l 644 -153 l 640 -163 l 622 -200 l 613 -239 l 610 -271 l 604 -296 l 602 -314 l 599 -321 l 599 -341 l 585 -355 l 585 -373 l 581 -376 l 577 -376 z "},"H":{"ha":781,"x_min":102,"x_max":846,"o":"m 644 998 l 660 1002 l 680 996 l 701 1002 l 732 983 l 734 975 l 739 968 l 750 926 l 752 911 l 754 812 l 754 784 l 754 743 l 752 723 l 750 690 l 743 649 l 741 627 l 739 600 l 730 553 l 730 538 l 725 521 l 726 519 l 746 513 l 793 503 l 809 498 l 822 492 l 838 490 l 846 486 l 844 476 l 842 472 l 829 470 l 823 465 l 800 452 l 787 441 l 764 441 l 736 437 l 721 435 l 713 425 l 703 415 l 703 398 l 693 384 l 687 345 l 671 303 l 670 281 l 669 261 l 667 239 l 667 222 l 665 205 l 659 178 l 658 152 l 662 119 l 656 99 l 660 83 l 660 68 l 660 44 l 662 44 l 662 31 l 664 22 l 660 11 l 662 -9 l 664 -18 l 658 -22 l 656 -36 l 660 -42 l 660 -50 l 654 -50 l 652 -54 l 638 -64 l 633 -62 l 631 -72 l 623 -68 l 616 -70 l 616 -75 l 609 -77 l 609 -85 l 605 -85 l 601 -93 l 581 -97 l 568 -85 l 554 -66 l 544 -38 l 542 -24 l 536 -1 l 519 64 l 509 142 l 505 276 l 507 358 l 509 384 l 511 408 l 489 406 l 473 401 l 429 401 l 369 387 l 351 380 l 306 375 l 292 371 l 284 318 l 281 306 l 279 284 l 277 273 l 273 265 l 263 239 l 261 222 l 263 216 l 255 192 l 251 161 l 247 145 l 235 102 l 224 71 l 216 48 l 211 37 l 208 20 l 202 4 l 202 -31 l 196 -41 l 196 -53 l 190 -67 l 190 -71 l 186 -88 l 182 -94 l 182 -98 l 180 -98 l 176 -106 l 165 -116 l 149 -130 l 141 -108 l 135 -81 l 132 -65 l 123 -37 l 123 -33 l 121 -20 l 115 4 l 108 62 l 104 139 l 104 186 l 102 202 l 104 226 l 104 300 l 104 334 l 110 433 l 121 563 l 135 648 l 151 694 l 151 714 l 169 793 l 180 826 l 186 850 l 196 877 l 204 907 l 212 926 l 220 934 l 224 949 l 231 949 l 235 954 l 243 954 l 249 958 l 273 960 l 304 947 l 304 944 l 316 940 l 326 918 l 343 869 l 343 857 l 343 838 l 343 804 l 345 799 l 341 789 l 343 771 l 343 740 l 341 726 l 343 687 l 335 635 l 328 598 l 326 575 l 321 559 l 316 553 l 316 528 l 310 508 l 314 506 l 392 513 l 431 520 l 463 528 l 488 528 l 524 533 l 536 619 l 546 678 l 546 682 l 558 729 l 559 747 l 566 753 l 564 757 l 579 833 l 609 931 l 611 937 l 621 986 l 627 986 l 631 996 l 638 998 l 644 998 z "},"I":{"ha":341,"x_min":93,"x_max":397,"o":"m 304 909 l 339 921 l 350 918 l 374 907 l 387 887 l 397 846 l 387 804 l 380 761 l 365 711 l 343 661 l 321 596 l 283 487 l 260 401 l 241 334 l 230 283 l 218 256 l 216 226 l 205 201 l 203 186 l 200 172 l 192 138 l 187 121 l 172 69 l 170 38 l 167 18 l 165 -7 l 165 -16 l 161 -39 l 153 -52 l 146 -92 l 139 -124 l 134 -136 l 130 -139 l 117 -127 l 103 -47 l 106 -37 l 100 -24 l 96 18 l 96 28 l 97 42 l 97 67 l 93 76 l 93 161 l 95 186 l 96 222 l 101 270 l 103 277 l 107 338 l 117 376 l 128 435 l 131 449 l 135 479 l 142 499 l 149 534 l 155 562 l 165 600 l 167 606 l 177 654 l 179 675 l 183 686 l 191 699 l 199 720 l 201 736 l 213 756 l 222 773 l 222 786 l 236 812 l 252 846 l 260 850 l 264 863 l 273 874 l 275 880 l 286 889 l 290 895 l 304 909 z "},"J":{"ha":954,"x_min":37,"x_max":1240,"o":"m 1024 991 l 1048 992 l 1072 992 l 1100 987 l 1126 985 l 1157 981 l 1190 972 l 1202 966 l 1227 961 l 1240 951 l 1225 939 l 1219 935 l 1219 939 l 1208 931 l 1201 929 l 1193 929 l 1181 920 l 1175 920 l 1160 911 l 1154 911 l 1138 902 l 1097 872 l 1081 864 l 1072 856 l 1030 838 l 1019 840 l 1004 829 l 991 829 l 979 819 l 965 809 l 956 811 l 940 803 l 934 805 l 908 793 l 905 782 l 889 774 l 869 766 l 846 758 l 824 752 l 810 743 l 760 727 l 720 717 l 708 715 l 688 711 l 671 703 l 669 699 l 667 671 l 665 642 l 665 609 l 661 585 l 655 568 l 648 481 l 644 460 l 640 427 l 635 416 l 631 395 l 626 381 l 626 374 l 612 354 l 614 344 l 610 340 l 610 334 l 602 302 l 602 301 l 598 287 l 591 264 l 593 242 l 576 214 l 578 207 l 570 184 l 557 159 l 561 152 l 555 130 l 552 106 l 551 85 l 547 81 l 543 71 l 547 65 l 541 50 l 536 32 l 539 26 l 538 12 l 534 -23 l 530 -37 l 527 -54 l 526 -90 l 516 -125 l 500 -144 l 492 -162 l 488 -162 l 473 -184 l 471 -194 l 457 -212 l 422 -225 l 390 -225 l 376 -231 l 369 -231 l 365 -233 l 351 -229 l 343 -231 l 334 -229 l 319 -233 l 300 -227 l 290 -227 l 275 -225 l 257 -221 l 224 -212 l 214 -199 l 184 -192 l 167 -184 l 123 -153 l 115 -139 l 108 -131 l 104 -123 l 90 -115 l 88 -102 l 73 -78 l 71 -70 l 58 -58 l 53 -41 l 49 -27 l 45 -23 l 45 -13 l 37 -7 l 47 8 l 41 12 l 39 22 l 41 65 l 49 85 l 55 111 l 58 124 l 58 132 l 71 159 l 73 174 l 92 212 l 96 212 l 96 185 l 92 179 l 90 165 l 98 159 l 102 144 l 100 140 l 96 124 l 100 106 l 102 87 l 100 79 l 115 67 l 121 69 l 123 63 l 130 32 l 130 28 l 123 8 l 132 7 l 135 12 l 141 10 l 170 -27 l 176 -27 l 198 -37 l 208 -45 l 233 -56 l 237 -62 l 253 -62 l 273 -70 l 296 -82 l 317 -90 l 328 -96 l 355 -93 l 382 -92 l 396 -80 l 412 -74 l 435 -70 l 453 -74 l 469 -72 l 475 -76 l 482 -74 l 482 -37 l 479 18 l 477 32 l 473 69 l 471 89 l 467 120 l 467 159 l 463 209 l 463 262 l 461 299 l 461 374 l 465 387 l 465 413 l 469 477 l 471 493 l 471 511 l 475 523 l 475 536 l 477 581 l 482 623 l 490 693 l 453 688 l 431 688 l 427 688 l 328 677 l 282 671 l 267 666 l 262 666 l 229 660 l 220 660 l 178 658 l 170 662 l 161 680 l 155 695 l 161 695 l 161 705 l 182 728 l 205 739 l 277 776 l 296 785 l 317 798 l 328 803 l 334 802 l 351 807 l 357 811 l 367 803 l 371 805 l 378 819 l 372 827 l 396 833 l 402 829 l 427 835 l 451 846 l 455 852 l 455 856 l 467 858 l 504 860 l 514 858 l 518 862 l 514 882 l 519 884 l 526 927 l 528 935 l 534 937 l 549 931 l 545 949 l 549 949 l 557 941 l 563 943 l 563 949 l 565 970 l 581 960 l 602 932 l 606 927 l 628 927 l 648 932 l 681 929 l 686 927 l 710 929 l 714 925 l 722 925 l 738 929 l 747 935 l 771 937 l 771 932 l 765 929 l 765 927 l 760 923 l 771 919 l 802 925 l 808 929 l 832 929 l 850 932 l 859 939 l 879 941 l 889 943 l 892 947 l 907 952 l 905 956 l 906 966 l 924 972 l 932 978 l 956 978 l 995 985 l 1002 991 l 1024 991 z "},"K":{"ha":895,"x_min":83,"x_max":987,"o":"m 130 -44 l 124 -40 l 111 -33 l 107 -18 l 89 -7 l 85 5 l 83 26 l 91 58 l 94 106 l 96 122 l 98 173 l 100 198 l 100 214 l 112 309 l 118 326 l 116 334 l 118 353 l 140 461 l 149 491 l 153 524 l 173 591 l 182 608 l 184 640 l 202 683 l 202 717 l 213 744 l 211 768 l 224 800 l 235 826 l 252 852 l 272 873 l 289 878 l 305 883 l 338 889 l 361 887 l 374 889 l 398 868 l 402 848 l 404 835 l 404 793 l 404 760 l 401 742 l 396 717 l 394 699 l 386 680 l 384 671 l 388 667 l 384 642 l 374 616 l 363 579 l 422 618 l 463 642 l 494 655 l 530 677 l 591 713 l 597 719 l 686 783 l 719 807 l 758 832 l 770 840 l 809 868 l 831 873 l 838 884 l 846 882 l 854 886 l 870 893 l 876 889 l 889 891 l 944 909 l 964 916 l 985 907 l 987 888 l 970 868 l 958 852 l 935 836 l 930 831 l 909 805 l 888 762 l 872 744 l 862 730 l 848 719 l 819 691 l 801 680 l 770 652 l 748 634 l 719 609 l 691 589 l 664 570 l 634 548 l 612 532 l 589 520 l 559 511 l 546 503 l 524 495 l 517 487 l 505 489 l 491 477 l 484 473 l 471 463 l 454 456 l 450 450 l 425 442 l 395 418 l 383 412 l 375 408 l 367 389 l 384 376 l 435 344 l 439 340 l 458 332 l 500 309 l 576 265 l 587 258 l 622 238 l 751 146 l 792 115 l 806 100 l 817 81 l 833 76 l 859 56 l 883 31 l 900 9 l 916 -13 l 917 -37 l 932 -53 l 939 -62 l 945 -62 l 946 -71 l 952 -74 l 956 -82 l 948 -88 l 945 -96 l 941 -94 l 935 -104 l 919 -100 l 899 -100 l 888 -86 l 878 -92 l 868 -86 l 866 -80 l 868 -64 l 864 -66 l 856 -84 l 850 -84 l 799 -58 l 779 -51 l 768 -45 l 736 -27 l 677 4 l 669 8 l 634 28 l 609 37 l 456 114 l 422 132 l 344 171 l 334 179 l 322 184 l 267 226 l 261 196 l 253 165 l 253 161 l 241 140 l 233 120 l 231 114 l 221 83 l 208 41 l 193 3 l 180 -30 l 157 -59 l 140 -60 l 132 -60 l 130 -44 z "},"L":{"ha":747,"x_min":83,"x_max":848,"o":"m 313 978 l 319 979 l 327 979 l 349 968 l 386 921 l 395 897 l 407 858 l 419 812 l 421 809 l 423 766 l 415 724 l 413 705 l 401 654 l 389 609 l 386 599 l 380 597 l 374 573 l 368 559 l 364 538 l 351 528 l 349 513 l 336 489 l 327 469 l 329 462 l 325 450 l 309 432 l 305 408 l 297 395 l 288 371 l 288 357 l 277 351 l 272 340 l 260 320 l 256 320 l 250 311 l 252 302 l 248 298 l 250 281 l 238 259 l 235 256 l 231 243 l 220 218 l 215 191 l 213 165 l 207 144 l 211 120 l 220 98 l 238 91 l 254 91 l 266 89 l 327 89 l 351 93 l 391 96 l 421 96 l 427 89 l 452 87 l 496 89 l 501 93 l 527 93 l 545 91 l 560 98 l 574 100 l 739 81 l 774 73 l 817 67 l 848 63 l 847 57 l 831 47 l 825 47 l 821 41 l 806 36 l 786 36 l 764 28 l 751 16 l 723 8 l 694 -1 l 668 -16 l 661 -16 l 645 -21 l 604 -31 l 590 -29 l 576 -37 l 562 -35 l 549 -43 l 517 -43 l 494 -47 l 417 -53 l 323 -56 l 288 -55 l 262 -51 l 229 -47 l 187 -33 l 150 -16 l 132 -1 l 130 6 l 121 16 l 115 36 l 111 39 l 97 75 l 93 81 l 91 94 l 85 111 l 85 122 l 83 148 l 83 153 l 85 169 l 83 197 l 93 285 l 95 293 l 107 344 l 111 381 l 115 389 l 130 465 l 132 469 l 140 507 l 160 579 l 164 585 l 165 601 l 172 616 l 191 689 l 211 758 l 217 766 l 220 783 l 244 836 l 252 858 l 264 895 l 268 899 l 275 926 l 277 930 l 281 948 l 297 943 l 295 960 l 297 962 l 307 956 l 313 958 l 313 978 z "},"M":{"ha":1033,"x_min":93,"x_max":1042,"o":"m 880 1005 l 897 1015 l 915 1019 l 944 1015 l 981 989 l 1009 951 l 1017 940 l 1021 934 l 1027 916 l 1036 891 l 1040 858 l 1040 830 l 1042 791 l 1035 734 l 1035 709 l 1031 703 l 1029 683 l 1025 656 l 1011 589 l 998 534 l 989 502 l 976 465 l 972 450 l 972 428 l 968 406 l 962 393 l 962 377 l 956 369 l 958 353 l 952 338 l 956 320 l 950 314 l 948 275 l 941 241 l 941 228 l 942 220 l 937 206 l 935 175 l 928 139 l 921 110 l 921 106 l 924 98 l 921 92 l 922 71 l 919 49 l 922 0 l 922 -24 l 919 -28 l 915 -54 l 907 -71 l 903 -77 l 915 -82 l 911 -100 l 915 -118 l 915 -127 l 909 -136 l 904 -152 l 907 -163 l 911 -176 l 911 -195 l 911 -200 l 901 -212 l 907 -214 l 907 -218 l 899 -218 l 895 -229 l 897 -261 l 891 -271 l 892 -288 l 882 -298 l 878 -281 l 876 -278 l 867 -238 l 862 -228 l 862 -220 l 856 -186 l 850 -159 l 852 -151 l 848 -138 l 844 -110 l 840 -104 l 840 -96 l 833 -48 l 825 28 l 811 178 l 811 193 l 807 237 l 807 286 l 801 308 l 803 340 l 803 377 l 803 404 l 803 432 l 801 444 l 801 450 l 803 477 l 805 503 l 805 538 l 809 551 l 809 575 l 812 589 l 811 612 l 812 648 l 814 675 l 807 669 l 801 652 l 795 636 l 791 628 l 791 614 l 787 606 l 781 604 l 772 581 l 768 553 l 762 546 l 754 546 l 750 532 l 750 514 l 742 510 l 742 505 l 730 471 l 719 432 l 711 424 l 703 398 l 692 367 l 669 298 l 658 271 l 630 232 l 602 189 l 581 173 l 562 157 l 555 161 l 542 155 l 522 155 l 491 159 l 450 171 l 428 184 l 401 210 l 385 230 l 363 291 l 352 389 l 351 448 l 340 426 l 333 406 l 329 384 l 326 374 l 320 350 l 317 311 l 305 246 l 300 226 l 291 193 l 277 149 l 277 139 l 269 118 l 257 90 l 254 82 l 250 57 l 238 26 l 240 16 l 236 -2 l 236 -9 l 228 -22 l 224 -49 l 218 -57 l 218 -79 l 216 -102 l 208 -114 l 210 -121 l 206 -130 l 197 -141 l 189 -143 l 184 -153 l 179 -157 l 163 -157 l 147 -163 l 144 -155 l 136 -159 l 122 -149 l 109 -134 l 94 -114 l 93 -98 l 98 -79 l 98 -31 l 109 37 l 109 71 l 110 98 l 112 116 l 116 237 l 124 361 l 136 439 l 144 481 l 163 579 l 177 626 l 183 654 l 210 736 l 220 753 l 220 758 l 240 779 l 248 785 l 256 806 l 267 821 l 271 832 l 298 840 l 322 842 l 336 838 l 361 834 l 397 824 l 410 817 l 432 808 l 436 803 l 469 781 l 489 753 l 505 713 l 511 687 l 517 669 l 517 577 l 515 509 l 515 430 l 515 416 l 518 389 l 522 355 l 536 377 l 542 380 l 571 448 l 583 477 l 591 487 l 599 507 l 612 536 l 667 652 l 682 675 l 701 722 l 719 758 l 726 771 l 732 787 l 742 806 l 760 838 l 776 872 l 803 916 l 812 932 l 819 946 l 831 962 l 838 975 l 848 989 l 866 1001 l 880 1005 z "},"N":{"ha":926,"x_min":74,"x_max":907,"o":"m 901 743 l 898 692 l 892 663 l 900 651 l 903 604 l 900 566 l 900 545 l 896 528 l 902 506 l 895 426 l 893 401 l 887 319 l 886 285 l 878 261 l 876 235 l 869 205 l 860 172 l 858 156 l 844 121 l 834 90 l 825 66 l 817 44 l 817 40 l 805 31 l 798 -9 l 787 -31 l 772 -50 l 758 -64 l 751 -75 l 720 -85 l 698 -79 l 675 -68 l 654 -54 l 629 -26 l 596 9 l 563 45 l 547 63 l 508 100 l 460 161 l 449 178 l 437 189 l 390 265 l 361 308 l 329 349 l 315 302 l 308 279 l 306 263 l 290 218 l 275 170 l 259 132 l 260 123 l 251 108 l 247 81 l 241 45 l 235 12 l 221 -18 l 219 -35 l 215 -39 l 212 -59 l 198 -55 l 186 -86 l 178 -116 l 168 -134 l 144 -145 l 139 -145 l 131 -139 l 117 -139 l 107 -138 l 100 -125 l 78 -110 l 74 -98 l 80 -68 l 78 -47 l 80 18 l 84 55 l 86 84 l 96 182 l 98 210 l 102 233 l 111 290 l 123 385 l 157 569 l 162 587 l 168 610 l 182 673 l 196 714 l 203 732 l 214 744 l 215 753 l 225 760 l 237 766 l 258 769 l 306 758 l 323 740 l 326 734 l 345 713 l 359 694 l 374 652 l 391 631 l 400 598 l 425 555 l 458 508 l 474 479 l 490 459 l 504 439 l 513 424 l 528 400 l 539 377 l 541 371 l 551 347 l 563 314 l 576 290 l 592 273 l 618 208 l 627 196 l 640 176 l 652 151 l 655 180 l 655 201 l 663 230 l 667 262 l 672 278 l 674 300 l 681 333 l 702 441 l 709 513 l 718 557 l 728 594 l 739 674 l 746 714 l 746 739 l 750 764 l 755 798 l 766 846 l 774 876 l 785 909 l 807 966 l 825 1002 l 838 1030 l 851 1055 l 866 1081 l 881 1117 l 895 1119 l 905 1111 l 907 1096 l 903 1072 l 895 1029 l 895 1025 l 890 1019 l 902 1011 l 900 992 l 902 972 l 900 941 l 902 913 l 905 871 l 907 840 l 905 798 l 901 743 z "},"O":{"ha":814,"x_min":74,"x_max":795,"o":"m 596 713 l 616 698 l 633 678 l 640 679 l 651 661 l 665 644 l 677 624 l 691 612 l 695 604 l 705 585 l 703 579 l 711 575 l 721 553 l 721 550 l 737 536 l 741 522 l 743 497 l 749 495 l 757 479 l 761 440 l 769 411 l 773 381 l 778 362 l 793 360 l 791 350 l 789 334 l 789 319 l 791 315 l 795 315 l 790 290 l 785 256 l 777 220 l 777 214 l 773 209 l 773 197 l 764 181 l 754 148 l 746 140 l 746 130 l 741 118 l 725 100 l 729 93 l 725 87 l 711 79 l 705 71 l 690 65 l 680 51 l 673 37 l 667 31 l 640 15 l 625 12 l 620 5 l 604 -7 l 583 -11 l 563 -17 l 557 -23 l 534 -35 l 505 -39 l 489 -45 l 473 -49 l 459 -47 l 441 -55 l 387 -50 l 340 -41 l 286 -19 l 277 -14 l 262 -7 l 212 20 l 186 39 l 148 74 l 118 117 l 96 157 l 80 214 l 74 245 l 75 313 l 79 346 l 94 407 l 119 462 l 127 470 l 129 480 l 149 511 l 163 535 l 210 600 l 226 622 l 282 693 l 298 711 l 303 717 l 319 727 l 331 745 l 347 753 l 358 766 l 372 772 l 387 788 l 405 796 l 416 804 l 467 819 l 471 823 l 487 823 l 495 827 l 515 823 l 528 825 l 538 817 l 548 807 l 550 800 l 560 784 l 570 780 l 570 774 l 570 752 l 437 614 l 428 611 l 404 579 l 377 524 l 340 456 l 328 433 l 320 400 l 309 380 l 296 342 l 291 336 l 271 294 l 248 240 l 248 189 l 258 146 l 270 133 l 292 111 l 336 96 l 413 94 l 421 96 l 437 99 l 467 102 l 511 121 l 530 136 l 552 144 l 571 169 l 590 221 l 603 268 l 606 290 l 619 309 l 614 317 l 616 372 l 599 454 l 585 498 l 573 520 l 546 550 l 521 588 l 502 599 l 481 618 l 592 718 l 596 713 z "},"P":{"ha":571,"x_min":102,"x_max":635,"o":"m 373 534 l 371 514 l 368 498 l 374 546 l 373 534 m 365 487 l 365 481 l 348 368 l 343 353 l 336 304 l 330 288 l 314 235 l 308 184 l 300 169 l 298 136 l 294 127 l 292 100 l 282 82 l 280 68 l 273 61 l 263 37 l 257 24 l 241 -4 l 233 -4 l 224 -18 l 218 -16 l 218 -33 l 216 -39 l 189 -49 l 178 -59 l 170 -61 l 157 -47 l 135 -9 l 115 49 l 106 112 l 102 178 l 104 271 l 104 285 l 110 351 l 115 408 l 121 432 l 137 528 l 141 540 l 147 565 l 161 624 l 163 630 l 151 644 l 133 665 l 133 669 l 125 673 l 121 681 l 130 699 l 147 722 l 165 738 l 233 789 l 284 810 l 314 819 l 345 821 l 402 821 l 449 808 l 477 799 l 532 771 l 573 742 l 585 730 l 594 718 l 614 701 l 616 689 l 624 673 l 620 667 l 626 661 l 631 646 l 631 624 l 635 618 l 631 599 l 633 587 l 626 581 l 618 557 l 610 540 l 606 538 l 602 532 l 596 532 l 581 518 l 581 509 l 553 479 l 536 469 l 522 459 l 514 453 l 490 437 l 475 426 l 471 422 l 447 410 l 435 406 l 418 395 l 412 395 l 408 389 l 402 387 l 454 461 l 469 471 l 484 487 l 500 500 l 518 524 l 530 536 l 541 562 l 545 579 l 540 610 l 522 637 l 486 661 l 477 665 l 433 673 l 424 673 l 402 669 l 376 659 l 367 650 l 376 593 l 374 546 l 368 498 l 365 487 z "},"Q":{"ha":965,"x_min":83,"x_max":1039,"o":"m 566 562 l 574 557 l 580 544 l 591 518 l 609 498 l 652 437 l 670 420 l 674 412 l 680 408 l 711 371 l 719 361 l 727 382 l 729 400 l 736 432 l 749 522 l 749 555 l 751 562 l 749 644 l 741 681 l 733 699 l 739 701 l 751 683 l 756 669 l 770 656 l 776 654 l 778 622 l 788 626 l 790 620 l 791 593 l 802 595 l 806 585 l 806 557 l 810 524 l 810 514 l 815 510 l 821 503 l 819 498 l 823 492 l 821 479 l 831 471 l 833 452 l 829 424 l 821 416 l 822 406 l 829 393 l 819 377 l 821 363 l 819 359 l 833 339 l 829 312 l 829 302 l 821 283 l 810 267 l 810 263 l 857 204 l 894 157 l 939 106 l 947 94 l 951 90 l 988 41 l 1012 9 l 1027 -9 l 1027 -16 l 1033 -29 l 1033 -37 l 1039 -41 l 1037 -49 l 1027 -45 l 1023 -61 l 1010 -66 l 1000 -73 l 977 -63 l 968 -68 l 953 -61 l 921 -51 l 918 -43 l 907 -45 l 865 -18 l 854 -12 l 802 28 l 790 39 l 770 53 l 725 96 l 721 96 l 721 94 l 715 98 l 711 92 l 705 92 l 700 77 l 692 66 l 663 33 l 646 22 l 639 11 l 631 6 l 606 -8 l 593 -14 l 584 -20 l 565 -30 l 541 -39 l 517 -47 l 492 -51 l 479 -59 l 458 -57 l 454 -61 l 437 -59 l 417 -66 l 401 -66 l 362 -65 l 345 -66 l 277 -49 l 252 -37 l 236 -31 l 224 -24 l 207 -8 l 178 16 l 146 57 l 115 112 l 97 165 l 89 191 l 83 263 l 83 300 l 89 342 l 105 391 l 123 430 l 165 509 l 220 597 l 254 636 l 258 648 l 293 685 l 303 694 l 349 738 l 374 760 l 393 769 l 401 779 l 446 808 l 450 814 l 464 814 l 472 817 l 476 821 l 488 819 l 501 819 l 517 814 l 533 817 l 564 795 l 578 793 l 588 785 l 604 779 l 609 767 l 619 760 l 621 751 l 617 748 l 617 720 l 609 699 l 589 689 l 558 685 l 547 683 l 527 661 l 517 652 l 476 602 l 466 581 l 442 547 l 411 481 l 382 420 l 354 338 l 340 306 l 327 261 l 321 218 l 319 212 l 317 167 l 330 130 l 338 116 l 358 100 l 386 88 l 435 81 l 474 88 l 499 104 l 513 108 l 562 147 l 615 198 l 625 206 l 637 224 l 598 264 l 578 285 l 560 310 l 549 322 l 541 338 l 515 379 l 500 410 l 543 562 l 566 562 z "},"R":{"ha":833,"x_min":46,"x_max":888,"o":"m 505 500 l 562 553 l 592 585 l 617 620 l 625 626 l 631 637 l 645 659 l 651 679 l 661 703 l 667 730 l 663 730 l 627 720 l 612 707 l 594 701 l 564 683 l 549 673 l 539 659 l 511 634 l 511 626 l 498 620 l 478 595 l 468 583 l 458 557 l 439 534 l 435 526 l 421 498 l 411 487 l 392 441 l 439 368 l 439 367 l 439 367 l 476 351 l 596 308 l 671 275 l 709 257 l 747 237 l 804 202 l 867 165 l 878 161 l 888 153 l 886 149 l 880 151 l 853 153 l 853 145 l 839 147 l 839 145 l 841 136 l 829 127 l 823 127 l 816 121 l 810 125 l 786 134 l 772 132 l 749 138 l 745 138 l 692 155 l 661 161 l 531 204 l 507 216 l 496 220 l 370 263 l 335 271 l 327 253 l 319 222 l 309 189 l 294 134 l 288 121 l 280 104 l 282 90 l 276 81 l 272 61 l 264 43 l 250 24 l 243 16 l 243 9 l 237 -2 l 227 -8 l 217 -39 l 211 -47 l 209 -53 l 199 -59 l 191 -75 l 172 -75 l 166 -86 l 149 -82 l 146 -88 l 136 -88 l 123 -94 l 107 -90 l 72 -57 l 66 -55 l 56 -37 l 50 -33 l 52 -9 l 46 0 l 48 12 l 56 65 l 56 102 l 58 116 l 74 189 l 111 314 l 131 406 l 160 510 l 176 551 l 191 581 l 191 589 l 201 600 l 199 610 l 209 648 l 223 681 l 223 687 l 233 703 l 246 716 l 264 718 l 278 722 l 296 720 l 315 709 l 335 701 l 351 701 l 357 705 l 370 713 l 429 766 l 460 787 l 480 803 l 523 828 l 574 850 l 612 863 l 639 867 l 678 865 l 704 856 l 729 838 l 755 821 l 790 775 l 802 753 l 812 718 l 816 693 l 812 675 l 814 671 l 808 642 l 784 608 l 781 608 l 770 597 l 762 595 l 751 595 l 737 579 l 727 565 l 708 553 l 654 509 l 637 496 l 625 481 l 615 473 l 498 469 l 500 496 l 505 500 z "},"S":{"ha":690,"x_min":69,"x_max":746,"o":"m 746 772 l 739 753 l 726 737 l 707 726 l 685 715 l 665 703 l 644 690 l 613 672 l 583 661 l 557 644 l 538 631 l 517 626 l 505 616 l 489 609 l 474 606 l 461 598 l 452 594 l 441 585 l 422 575 l 418 568 l 395 552 l 367 528 l 344 511 l 336 503 l 316 487 l 304 471 l 287 465 l 267 446 l 250 412 l 242 380 l 244 351 l 250 336 l 295 302 l 305 296 l 340 277 l 360 263 l 378 253 l 391 248 l 419 230 l 425 222 l 460 204 l 481 186 l 515 165 l 548 130 l 561 119 l 576 104 l 594 87 l 609 66 l 626 41 l 633 15 l 637 -9 l 634 -28 l 633 -43 l 631 -56 l 619 -82 l 585 -111 l 550 -126 l 535 -134 l 518 -137 l 490 -144 l 452 -150 l 409 -150 l 355 -146 l 328 -144 l 303 -141 l 289 -141 l 252 -134 l 236 -134 l 229 -130 l 220 -130 l 218 -127 l 213 -130 l 207 -123 l 203 -125 l 203 -132 l 201 -136 l 195 -132 l 189 -132 l 183 -121 l 174 -116 l 170 -119 l 159 -118 l 159 -119 l 152 -121 l 150 -119 l 142 -121 l 134 -116 l 130 -116 l 124 -112 l 121 -114 l 121 -112 l 122 -110 l 138 -106 l 165 -102 l 185 -102 l 201 -98 l 224 -96 l 252 -88 l 256 -86 l 299 -82 l 315 -81 l 334 -79 l 366 -79 l 374 -75 l 405 -73 l 413 -73 l 422 -66 l 444 -65 l 458 -65 l 464 -61 l 479 -59 l 490 -59 l 499 -57 l 507 -59 l 519 -55 l 532 -41 l 547 -41 l 556 -35 l 569 -25 l 572 -12 l 574 0 l 569 8 l 570 20 l 565 28 l 560 37 l 553 43 l 547 51 l 534 60 l 520 72 l 499 89 l 477 96 l 448 116 l 429 125 l 415 132 l 387 149 l 374 153 l 363 163 l 356 163 l 332 171 l 325 176 l 291 185 l 250 198 l 218 204 l 213 209 l 189 216 l 168 228 l 144 251 l 124 265 l 97 292 l 81 316 l 75 336 l 69 357 l 69 414 l 79 426 l 87 439 l 87 455 l 101 483 l 115 498 l 128 518 l 163 553 l 185 573 l 216 595 l 242 618 l 266 637 l 326 679 l 354 696 l 387 722 l 433 749 l 444 753 l 458 767 l 503 797 l 550 824 l 564 842 l 572 844 l 583 856 l 597 861 l 611 873 l 621 873 l 635 879 l 652 879 l 681 875 l 720 852 l 730 825 l 737 803 l 741 789 l 746 772 z "},"T":{"ha":800,"x_min":88,"x_max":921,"o":"m 400 657 l 406 667 l 378 667 l 369 664 l 332 660 l 294 662 l 254 665 l 196 666 l 141 686 l 132 686 l 101 692 l 88 711 l 88 720 l 102 731 l 104 735 l 125 743 l 140 737 l 155 744 l 163 758 l 214 768 l 238 772 l 250 778 l 264 785 l 269 785 l 281 787 l 299 777 l 323 783 l 353 781 l 396 783 l 466 791 l 543 795 l 617 791 l 671 800 l 741 792 l 804 791 l 886 772 l 921 747 l 908 740 l 885 736 l 883 731 l 867 726 l 849 723 l 844 710 l 825 711 l 812 702 l 779 705 l 775 700 l 774 691 l 770 691 l 762 697 l 752 696 l 747 696 l 745 696 l 744 690 l 729 701 l 709 692 l 703 685 l 669 681 l 653 680 l 593 675 l 576 667 l 572 665 l 564 642 l 542 578 l 505 469 l 481 383 l 463 315 l 451 264 l 440 237 l 438 208 l 427 182 l 424 168 l 421 153 l 416 140 l 413 120 l 408 102 l 403 80 l 393 51 l 391 20 l 388 -1 l 386 -25 l 387 -35 l 382 -57 l 374 -71 l 368 -111 l 360 -142 l 355 -145 l 356 -155 l 352 -157 l 338 -146 l 325 -66 l 328 -55 l 321 -42 l 317 -1 l 317 9 l 319 24 l 319 48 l 314 58 l 315 142 l 316 168 l 315 174 l 320 197 l 317 204 l 322 252 l 324 258 l 329 320 l 338 357 l 347 410 l 349 416 l 353 430 l 356 460 l 363 481 l 371 515 l 376 544 l 386 582 l 388 587 l 399 636 l 400 657 z "},"U":{"ha":723,"x_min":93,"x_max":760,"o":"m 742 924 l 748 936 l 754 936 l 760 924 l 760 881 l 754 861 l 756 848 l 756 838 l 752 806 l 744 793 l 746 783 l 739 765 l 742 742 l 742 730 l 734 703 l 736 683 l 730 652 l 722 618 l 722 604 l 719 597 l 715 567 l 707 553 l 707 538 l 696 520 l 692 500 l 697 479 l 695 450 l 691 441 l 687 416 l 687 400 l 680 369 l 675 369 l 669 355 l 662 316 l 662 298 l 664 290 l 663 263 l 660 237 l 652 212 l 644 167 l 641 142 l 634 123 l 632 112 l 623 102 l 612 104 l 609 79 l 601 64 l 585 47 l 572 31 l 561 13 l 544 -4 l 534 -6 l 520 -20 l 513 -30 l 485 -39 l 471 -39 l 446 -51 l 412 -51 l 397 -53 l 363 -49 l 316 -35 l 267 -10 l 218 25 l 177 73 l 151 104 l 126 153 l 104 222 l 96 243 l 93 288 l 93 319 l 94 334 l 94 380 l 104 431 l 111 441 l 112 457 l 140 542 l 153 565 l 157 581 l 173 612 l 175 622 l 203 665 l 212 677 l 238 720 l 252 732 l 277 755 l 296 767 l 313 767 l 322 773 l 324 779 l 342 779 l 371 771 l 391 751 l 401 724 l 401 700 l 394 685 l 389 673 l 389 659 l 376 614 l 364 569 l 334 496 l 311 408 l 292 326 l 283 241 l 290 192 l 295 169 l 322 126 l 361 102 l 381 90 l 389 88 l 407 88 l 418 96 l 444 117 l 465 155 l 495 216 l 532 310 l 532 316 l 546 357 l 575 444 l 612 551 l 630 606 l 636 618 l 642 626 l 642 644 l 662 692 l 675 732 l 677 742 l 715 838 l 724 865 l 728 871 l 736 914 l 734 922 l 742 924 z "},"V":{"ha":694,"x_min":65,"x_max":768,"o":"m 755 1062 l 758 1070 l 766 1069 l 768 1063 l 762 1058 l 758 1042 l 749 1019 l 743 991 l 735 961 l 730 928 l 724 903 l 719 887 l 711 870 l 706 850 l 694 829 l 686 815 l 682 782 l 672 765 l 667 740 l 666 724 l 659 707 l 655 692 l 655 690 l 654 672 l 654 646 l 656 638 l 652 619 l 650 589 l 650 556 l 642 527 l 642 502 l 640 492 l 632 467 l 627 435 l 618 398 l 613 376 l 606 353 l 598 312 l 595 293 l 587 260 l 568 203 l 557 172 l 547 146 l 540 127 l 517 92 l 500 50 l 484 20 l 458 -18 l 444 -31 l 422 -52 l 405 -56 l 390 -63 l 382 -62 l 380 -70 l 364 -75 l 345 -68 l 320 -54 l 295 -45 l 264 -17 l 256 0 l 219 100 l 208 140 l 203 155 l 173 263 l 129 447 l 111 551 l 96 642 l 85 714 l 80 730 l 66 754 l 68 760 l 65 768 l 67 772 l 75 777 l 83 781 l 109 777 l 144 774 l 176 759 l 208 739 l 250 654 l 256 628 l 275 574 l 289 527 l 302 469 l 306 459 l 305 455 l 315 419 l 328 361 l 330 345 l 333 319 l 336 300 l 340 286 l 357 211 l 387 271 l 410 326 l 434 389 l 440 401 l 456 430 l 464 457 l 469 476 l 476 490 l 477 496 l 484 509 l 494 557 l 507 596 l 517 634 l 543 720 l 553 755 l 563 778 l 570 794 l 576 815 l 600 851 l 614 882 l 625 895 l 642 926 l 645 935 l 669 972 l 675 977 l 682 985 l 711 1018 l 739 1046 l 747 1057 l 755 1062 z "},"W":{"ha":882,"x_min":83,"x_max":993,"o":"m 984 952 l 988 964 l 993 960 l 991 952 l 986 952 l 988 945 l 981 937 l 984 928 l 972 914 l 970 900 l 964 871 l 959 833 l 957 804 l 950 795 l 941 758 l 932 727 l 918 702 l 913 663 l 896 600 l 891 583 l 888 565 l 883 546 l 878 526 l 868 509 l 865 496 l 860 481 l 857 467 l 850 433 l 837 397 l 840 391 l 830 352 l 828 334 l 812 314 l 801 289 l 796 264 l 781 226 l 774 199 l 759 155 l 748 122 l 726 81 l 722 59 l 715 43 l 706 39 l 706 29 l 702 22 l 695 2 l 682 -12 l 686 -18 l 679 -31 l 672 -29 l 668 -31 l 668 -36 l 648 -43 l 634 -43 l 629 -39 l 609 -31 l 598 -16 l 591 2 l 587 22 l 580 36 l 553 115 l 537 187 l 521 260 l 517 302 l 510 343 l 498 494 l 498 571 l 494 697 l 487 720 l 471 695 l 465 695 l 458 675 l 447 661 l 440 648 l 427 610 l 420 591 l 415 573 l 410 555 l 404 539 l 397 505 l 397 496 l 377 449 l 377 425 l 374 415 l 368 411 l 370 377 l 363 363 l 359 325 l 354 260 l 347 228 l 345 208 l 345 199 l 349 192 l 343 178 l 349 156 l 352 117 l 357 102 l 354 70 l 347 52 l 347 43 l 352 36 l 349 18 l 345 9 l 343 0 l 327 0 l 309 -11 l 296 -28 l 269 -31 l 259 -27 l 243 -18 l 212 0 l 208 27 l 169 111 l 128 231 l 113 289 l 108 318 l 108 343 l 99 370 l 97 404 l 97 418 l 89 446 l 85 479 l 85 510 l 83 542 l 83 555 l 88 585 l 88 603 l 88 610 l 88 652 l 88 695 l 90 707 l 90 720 l 95 736 l 97 761 l 106 797 l 117 812 l 131 814 l 142 814 l 158 812 l 165 808 l 167 804 l 174 802 l 185 797 l 187 781 l 199 722 l 205 693 l 210 677 l 210 659 l 221 625 l 228 591 l 239 545 l 259 456 l 276 337 l 283 406 l 298 454 l 316 501 l 327 533 l 338 555 l 343 576 l 354 607 l 366 627 l 379 652 l 397 693 l 406 711 l 427 736 l 427 741 l 442 758 l 451 772 l 476 779 l 515 781 l 524 781 l 534 779 l 557 772 l 566 749 l 575 734 l 580 720 l 589 693 l 591 671 l 598 578 l 598 528 l 600 510 l 607 463 l 609 415 l 614 325 l 614 284 l 616 277 l 611 269 l 618 257 l 621 222 l 621 165 l 629 160 l 627 142 l 629 126 l 633 98 l 644 120 l 654 153 l 682 235 l 695 277 l 699 296 l 726 386 l 740 425 l 751 445 l 756 449 l 762 486 l 779 522 l 781 539 l 781 542 l 789 561 l 801 593 l 806 612 l 812 616 l 848 697 l 862 727 l 869 745 l 887 781 l 884 804 l 905 840 l 925 878 l 930 878 l 934 896 l 943 909 l 943 914 l 950 923 l 975 960 l 984 957 l 984 952 z "},"X":{"ha":726,"x_min":56,"x_max":791,"o":"m 185 920 l 181 930 l 185 930 l 216 907 l 252 861 l 301 787 l 340 716 l 374 667 l 434 751 l 444 767 l 462 791 l 517 854 l 534 867 l 562 891 l 566 899 l 583 907 l 611 911 l 618 909 l 638 909 l 648 903 l 662 885 l 680 859 l 691 834 l 691 799 l 688 793 l 680 753 l 662 708 l 644 681 l 642 673 l 631 657 l 595 597 l 572 557 l 562 549 l 558 538 l 519 475 l 521 451 l 572 367 l 605 310 l 642 247 l 646 243 l 670 203 l 718 135 l 751 81 l 783 39 l 789 33 l 791 18 l 789 14 l 775 8 l 765 8 l 759 -2 l 749 -9 l 728 11 l 687 52 l 544 196 l 473 265 l 444 294 l 416 304 l 409 304 l 328 189 l 291 139 l 264 102 l 236 59 l 212 35 l 203 18 l 193 2 l 185 -18 l 179 -22 l 175 -33 l 146 -81 l 132 -83 l 126 -86 l 113 -86 l 100 -94 l 93 -96 l 89 -102 l 58 -106 l 56 -102 l 60 -96 l 67 -30 l 93 71 l 100 98 l 106 121 l 126 174 l 136 202 l 148 226 l 154 243 l 209 369 l 214 376 l 222 398 l 283 512 l 281 522 l 244 579 l 220 622 l 209 644 l 174 724 l 155 773 l 140 842 l 138 881 l 138 901 l 148 918 l 150 922 l 163 926 l 181 916 l 185 920 z "},"Y":{"ha":692,"x_min":60,"x_max":821,"o":"m 764 1017 l 782 1031 l 795 1042 l 817 1055 l 821 1040 l 816 1024 l 802 998 l 795 975 l 768 922 l 758 899 l 719 826 l 703 795 l 688 767 l 675 744 l 670 730 l 644 687 l 635 671 l 621 648 l 605 618 l 599 612 l 589 589 l 579 573 l 570 553 l 554 530 l 548 510 l 524 461 l 515 448 l 503 418 l 503 412 l 497 406 l 489 389 l 477 369 l 473 357 l 475 347 l 471 288 l 469 214 l 466 200 l 466 86 l 468 71 l 468 29 l 466 0 l 466 -16 l 462 -26 l 461 -46 l 458 -71 l 456 -77 l 452 -96 l 454 -108 l 448 -121 l 432 -136 l 371 -142 l 327 -130 l 301 -85 l 288 -31 l 277 24 l 269 87 l 266 172 l 271 228 l 273 294 l 279 355 l 279 401 l 231 454 l 184 507 l 134 579 l 97 629 l 77 675 l 68 711 l 60 754 l 68 779 l 89 801 l 99 810 l 115 803 l 122 795 l 132 806 l 172 791 l 197 769 l 264 699 l 297 656 l 366 562 l 390 518 l 408 545 l 419 576 l 431 596 l 446 618 l 458 644 l 464 648 l 473 667 l 526 748 l 556 785 l 587 830 l 650 913 l 673 938 l 692 957 l 710 974 l 738 1002 l 764 1017 z "},"Z":{"ha":1101,"x_min":50,"x_max":1286,"o":"m 694 881 l 751 889 l 810 887 l 830 885 l 861 873 l 875 861 l 887 848 l 895 824 l 892 799 l 892 777 l 887 748 l 861 703 l 833 657 l 812 628 l 800 608 l 791 595 l 758 557 l 743 536 l 738 532 l 706 490 l 670 452 l 637 418 l 606 385 l 565 350 l 454 246 l 550 304 l 648 348 l 713 380 l 751 396 l 796 416 l 853 437 l 881 444 l 942 465 l 962 471 l 983 472 l 1011 479 l 1048 489 l 1070 492 l 1101 496 l 1137 496 l 1181 494 l 1209 494 l 1235 489 l 1259 484 l 1281 472 l 1286 454 l 1270 442 l 1250 437 l 1222 429 l 1174 406 l 1142 389 l 1112 375 l 1075 355 l 1052 345 l 1038 340 l 1020 336 l 983 312 l 951 294 l 940 292 l 908 275 l 890 272 l 863 259 l 859 249 l 848 245 l 831 239 l 811 228 l 792 222 l 747 198 l 707 174 l 649 141 l 640 132 l 608 110 l 589 102 l 553 82 l 522 68 l 498 51 l 490 45 l 445 24 l 416 8 l 382 -8 l 336 -25 l 312 -35 l 307 -35 l 292 -43 l 267 -48 l 246 -50 l 222 -48 l 199 -40 l 153 -31 l 109 -1 l 91 13 l 71 28 l 50 56 l 63 83 l 67 94 l 71 97 l 91 127 l 118 154 l 151 189 l 165 202 l 194 228 l 225 257 l 257 286 l 296 326 l 387 422 l 398 430 l 416 450 l 453 489 l 465 503 l 506 540 l 524 557 l 537 573 l 563 599 l 583 622 l 604 646 l 626 667 l 637 687 l 614 679 l 606 673 l 547 648 l 522 637 l 486 622 l 465 614 l 449 604 l 433 600 l 382 577 l 355 565 l 304 549 l 290 544 l 267 540 l 243 532 l 208 530 l 186 532 l 163 542 l 145 565 l 135 593 l 127 612 l 131 624 l 135 624 l 133 637 l 148 657 l 165 675 l 184 685 l 259 726 l 292 744 l 308 749 l 330 766 l 372 785 l 437 812 l 457 819 l 494 834 l 502 832 l 512 838 l 567 856 l 629 871 l 694 881 z "},"[":{"ha":583,"x_min":125,"x_max":610,"o":"m 374 937 l 382 942 l 400 942 l 408 935 l 421 932 l 478 945 l 522 942 l 557 926 l 610 887 l 610 873 l 600 866 l 608 857 l 608 854 l 604 850 l 604 836 l 608 813 l 602 795 l 587 784 l 575 777 l 557 767 l 538 760 l 509 753 l 441 751 l 427 715 l 412 686 l 398 645 l 390 619 l 372 557 l 355 500 l 328 420 l 321 415 l 319 393 l 302 358 l 300 349 l 290 315 l 282 287 l 269 260 l 237 149 l 227 92 l 225 42 l 235 21 l 247 16 l 304 18 l 380 23 l 425 21 l 492 1 l 498 -8 l 492 -17 l 492 -22 l 482 -24 l 480 -32 l 475 -37 l 473 -46 l 451 -67 l 439 -96 l 439 -105 l 368 -132 l 309 -134 l 245 -122 l 208 -108 l 172 -88 l 153 -70 l 137 -41 l 129 -8 l 125 47 l 135 111 l 182 317 l 233 534 l 278 700 l 288 733 l 292 745 l 288 755 l 274 757 l 267 762 l 262 776 l 256 785 l 260 802 l 269 821 l 272 838 l 276 847 l 286 857 l 290 857 l 302 869 l 347 892 l 374 937 z "},"\\":{"ha":568,"x_min":125,"x_max":534,"o":"m 161 962 l 180 962 l 197 949 l 223 928 l 252 890 l 307 789 l 361 681 l 425 519 l 470 375 l 505 241 l 523 137 l 534 17 l 534 -68 l 534 -108 l 528 -132 l 512 -138 l 500 -141 l 485 -117 l 481 -117 l 474 -101 l 467 -61 l 456 -33 l 436 59 l 430 78 l 418 87 l 408 127 l 403 140 l 395 175 l 389 194 l 371 252 l 359 267 l 357 295 l 351 316 l 345 321 l 332 366 l 327 366 l 309 425 l 245 596 l 218 655 l 195 703 l 163 778 l 138 846 l 125 890 l 127 907 l 128 924 l 134 940 l 161 962 z "},"]":{"ha":583,"x_min":50,"x_max":605,"o":"m 315 926 l 376 922 l 445 922 l 509 917 l 538 901 l 566 870 l 585 821 l 600 779 l 605 747 l 604 719 l 604 701 l 604 684 l 595 671 l 595 653 l 589 606 l 582 583 l 582 562 l 574 533 l 564 528 l 566 507 l 564 494 l 558 475 l 554 468 l 550 452 l 539 416 l 519 348 l 495 269 l 472 183 l 468 162 l 466 155 l 456 138 l 456 128 l 444 89 l 440 71 l 446 60 l 440 52 l 440 47 l 435 39 l 440 21 l 431 0 l 433 -10 l 429 -18 l 431 -28 l 425 -39 l 425 -44 l 419 -60 l 415 -60 l 411 -71 l 405 -78 l 385 -102 l 378 -115 l 356 -120 l 347 -125 l 334 -120 l 328 -127 l 313 -141 l 291 -146 l 248 -149 l 178 -141 l 134 -121 l 109 -114 l 103 -109 l 101 -103 l 79 -85 l 62 -77 l 50 -38 l 50 -17 l 56 -7 l 56 17 l 66 30 l 62 43 l 103 51 l 141 44 l 208 30 l 254 30 l 290 24 l 302 22 l 317 24 l 334 134 l 372 316 l 427 562 l 464 739 l 428 743 l 382 743 l 319 750 l 284 757 l 266 767 l 258 772 l 237 799 l 229 799 l 225 806 l 215 836 l 233 885 l 243 896 l 261 909 l 294 917 l 315 926 z "},"^":{"ha":555,"x_min":46,"x_max":509,"o":"m 56 916 l 56 9 l 500 9 l 500 916 l 56 916 m 509 0 l 46 0 l 46 926 l 509 926 l 509 0 z "},"_":{"ha":694,"x_min":0,"x_max":694,"o":"m 0 -315 l 0 -185 l 694 -185 l 694 -315 l 0 -315 z "},"`":{"ha":466,"x_min":93,"x_max":373,"o":"m 135 1198 l 146 1203 l 155 1202 l 165 1203 l 168 1200 l 176 1200 l 180 1194 l 202 1174 l 248 1124 l 270 1099 l 336 1025 l 373 991 l 372 978 l 368 975 l 361 978 l 357 975 l 355 974 l 354 975 l 353 975 l 329 970 l 303 976 l 277 979 l 248 987 l 225 1000 l 190 1025 l 153 1056 l 126 1085 l 109 1112 l 93 1157 l 96 1157 l 97 1173 l 100 1181 l 135 1198 z "},"a":{"ha":600,"x_min":33,"x_max":581,"o":"m 533 425 l 559 418 l 566 411 l 575 397 l 579 391 l 581 357 l 574 339 l 578 317 l 545 235 l 519 168 l 519 161 l 503 132 l 491 81 l 488 61 l 481 59 l 481 37 l 475 21 l 477 7 l 471 -10 l 469 -24 l 476 -31 l 479 -64 l 488 -78 l 492 -89 l 506 -100 l 522 -105 l 532 -108 l 532 -112 l 515 -116 l 508 -123 l 501 -123 l 486 -134 l 483 -140 l 476 -140 l 452 -138 l 436 -130 l 403 -96 l 392 -72 l 382 -47 l 382 -38 l 376 -9 l 368 50 l 373 115 l 380 161 l 376 161 l 376 157 l 345 119 l 313 89 l 298 66 l 285 54 l 280 49 l 269 38 l 244 18 l 201 -8 l 154 -25 l 132 -22 l 89 -8 l 56 8 l 43 28 l 34 47 l 33 78 l 37 113 l 47 158 l 75 209 l 82 216 l 107 247 l 173 306 l 273 376 l 356 426 l 408 452 l 451 462 l 469 462 l 484 445 l 440 378 l 417 370 l 355 333 l 278 276 l 229 228 l 191 184 l 168 134 l 165 115 l 181 106 l 249 161 l 328 231 l 420 322 l 456 366 l 522 424 l 533 425 z "},"b":{"ha":506,"x_min":41,"x_max":473,"o":"m 216 35 l 315 113 l 353 156 l 366 174 l 386 214 l 391 241 l 389 261 l 370 281 l 353 294 l 310 299 l 261 292 l 227 277 l 218 270 l 210 259 l 205 235 l 203 228 l 196 223 l 194 205 l 196 201 l 192 185 l 185 183 l 185 174 l 176 154 l 174 138 l 167 116 l 167 107 l 160 85 l 153 58 l 147 28 l 147 18 l 142 -1 l 134 -7 l 134 -25 l 134 -24 l 127 -75 l 125 -77 l 118 -115 l 98 -128 l 89 -130 l 75 -135 l 75 -144 l 71 -151 l 53 -151 l 48 -146 l 44 -128 l 44 -110 l 41 -101 l 46 -63 l 51 -3 l 55 71 l 77 208 l 57 235 l 57 270 l 68 292 l 75 297 l 93 317 l 102 323 l 129 416 l 185 563 l 237 675 l 288 762 l 330 819 l 342 823 l 355 823 l 366 821 l 384 803 l 395 783 l 382 729 l 353 650 l 342 624 l 321 552 l 292 476 l 292 467 l 275 429 l 275 420 l 263 397 l 301 400 l 366 395 l 413 380 l 442 353 l 465 326 l 467 321 l 465 315 l 471 304 l 473 261 l 471 245 l 473 239 l 467 205 l 458 192 l 458 187 l 440 161 l 431 163 l 404 125 l 395 113 l 382 100 l 366 82 l 349 66 l 319 44 l 275 8 l 259 -3 l 239 -16 l 232 -16 l 225 -23 l 212 -27 l 212 -32 l 201 -37 l 176 -47 l 163 -56 l 172 3 l 216 35 z "},"c":{"ha":515,"x_min":28,"x_max":515,"o":"m 323 468 l 330 468 l 368 468 l 386 456 l 393 450 l 399 437 l 399 435 l 406 419 l 408 416 l 408 404 l 395 381 l 366 365 l 361 368 l 348 363 l 321 342 l 281 296 l 260 269 l 240 242 l 216 202 l 180 153 l 169 130 l 169 113 l 205 99 l 233 94 l 310 94 l 404 106 l 511 137 l 515 139 l 515 137 l 502 123 l 486 106 l 479 99 l 475 92 l 446 70 l 437 68 l 428 56 l 419 52 l 417 47 l 370 27 l 370 25 l 355 14 l 341 16 l 330 5 l 321 5 l 319 1 l 258 -20 l 256 -18 l 227 -24 l 222 -28 l 214 -35 l 178 -31 l 126 -22 l 117 -18 l 81 7 l 48 52 l 45 59 l 33 92 l 28 132 l 37 153 l 39 168 l 43 168 l 57 197 l 79 233 l 121 292 l 214 392 l 256 428 l 290 450 l 323 468 z "},"d":{"ha":537,"x_min":41,"x_max":639,"o":"m 277 325 l 248 298 l 234 280 l 201 211 l 194 191 l 194 150 l 201 123 l 205 115 l 216 115 l 232 123 l 254 155 l 272 182 l 313 264 l 349 356 l 376 464 l 380 463 l 417 581 l 465 730 l 496 808 l 503 833 l 500 859 l 507 882 l 514 882 l 520 897 l 523 904 l 541 911 l 561 904 l 568 909 l 599 897 l 608 902 l 630 886 l 639 871 l 635 833 l 625 806 l 623 781 l 619 763 l 594 685 l 583 647 l 556 575 l 547 551 l 541 533 l 532 517 l 534 508 l 527 499 l 514 486 l 514 466 l 500 439 l 498 423 l 485 412 l 487 399 l 487 394 l 475 361 l 467 347 l 458 302 l 458 294 l 451 280 l 456 269 l 449 260 l 446 222 l 444 217 l 444 179 l 442 130 l 442 105 l 446 72 l 451 54 l 456 50 l 463 18 l 473 -11 l 478 -11 l 485 -29 l 487 -45 l 503 -60 l 507 -62 l 520 -64 l 534 -62 l 552 -58 l 554 -67 l 549 -74 l 549 -85 l 525 -107 l 503 -121 l 480 -121 l 465 -107 l 411 -18 l 382 65 l 375 81 l 368 77 l 368 72 l 361 63 l 351 47 l 330 27 l 319 16 l 292 0 l 241 -16 l 201 -22 l 176 -20 l 144 -7 l 113 12 l 86 34 l 66 65 l 46 115 l 41 139 l 44 177 l 60 235 l 89 289 l 125 336 l 146 358 l 203 418 l 277 472 l 296 479 l 330 479 l 361 469 l 315 353 l 277 325 z "},"e":{"ha":562,"x_min":37,"x_max":553,"o":"m 195 208 l 244 226 l 290 250 l 327 273 l 356 300 l 382 326 l 418 374 l 414 374 l 383 368 l 340 351 l 287 324 l 233 281 l 205 254 l 168 208 l 160 109 l 159 109 l 152 89 l 155 82 l 161 71 l 193 53 l 241 39 l 295 33 l 300 28 l 389 24 l 456 28 l 517 37 l 548 44 l 553 44 l 553 39 l 519 19 l 488 3 l 486 -1 l 472 -5 l 454 -7 l 450 -14 l 420 -26 l 410 -26 l 405 -33 l 396 -35 l 385 -33 l 382 -35 l 369 -35 l 362 -41 l 334 -45 l 315 -48 l 289 -52 l 273 -50 l 271 -52 l 246 -52 l 239 -57 l 231 -55 l 217 -55 l 212 -52 l 195 -52 l 191 -48 l 181 -48 l 165 -43 l 161 -41 l 161 -39 l 159 -37 l 143 -37 l 138 -35 l 130 -37 l 121 -30 l 103 -17 l 83 3 l 65 28 l 47 68 l 45 84 l 47 91 l 41 115 l 41 120 l 37 126 l 41 136 l 41 153 l 43 174 l 69 212 l 100 252 l 123 272 l 143 294 l 159 306 l 241 366 l 302 404 l 391 442 l 434 456 l 477 451 l 488 440 l 492 425 l 488 420 l 494 399 l 492 372 l 483 354 l 481 346 l 479 339 l 460 315 l 458 306 l 450 294 l 434 281 l 425 273 l 403 252 l 376 225 l 351 205 l 349 198 l 336 191 l 331 191 l 317 180 l 304 174 l 267 146 l 248 140 l 244 134 l 186 111 l 172 110 l 180 208 l 195 208 z "},"f":{"ha":610,"x_min":0,"x_max":694,"o":"m 570 791 l 584 805 l 589 805 l 593 796 l 604 789 l 606 785 l 613 758 l 617 753 l 613 738 l 604 722 l 568 695 l 544 660 l 517 633 l 499 600 l 488 593 l 477 568 l 458 550 l 458 539 l 446 526 l 427 510 l 441 503 l 436 496 l 425 496 l 418 492 l 406 465 l 384 433 l 367 409 l 362 402 l 378 398 l 416 396 l 541 396 l 625 391 l 694 378 l 694 374 l 689 371 l 689 360 l 680 353 l 656 345 l 656 340 l 631 333 l 611 329 l 597 322 l 595 315 l 559 311 l 538 302 l 510 295 l 484 288 l 465 281 l 436 266 l 403 250 l 380 237 l 369 239 l 360 230 l 347 224 l 342 224 l 338 228 l 313 221 l 279 214 l 279 210 l 277 201 l 277 168 l 273 157 l 271 136 l 264 123 l 257 85 l 255 60 l 255 42 l 251 35 l 255 28 l 251 24 l 247 -66 l 241 -119 l 240 -197 l 239 -215 l 239 -237 l 239 -257 l 230 -279 l 214 -281 l 208 -291 l 210 -295 l 201 -311 l 192 -311 l 187 -309 l 178 -324 l 170 -329 l 156 -322 l 156 -319 l 158 -317 l 152 -297 l 154 -295 l 152 -286 l 149 -266 l 145 -259 l 149 -253 l 142 -233 l 142 -184 l 140 -86 l 142 -49 l 143 -7 l 143 22 l 143 45 l 141 60 l 146 74 l 143 83 l 146 116 l 146 140 l 148 161 l 152 174 l 148 188 l 150 201 l 157 210 l 152 219 l 157 230 l 116 235 l 60 245 l 54 250 l 29 257 l 5 284 l 0 300 l 5 309 l 9 311 l 9 324 l 18 333 l 58 349 l 96 357 l 103 357 l 188 371 l 195 376 l 193 380 l 201 407 l 210 425 l 233 474 l 277 546 l 295 570 l 298 581 l 302 583 l 304 590 l 322 610 l 338 642 l 347 644 l 382 684 l 412 718 l 434 734 l 474 769 l 513 789 l 528 798 l 553 805 l 555 803 l 566 796 l 570 791 z "},"g":{"ha":468,"x_min":9,"x_max":468,"o":"m 334 409 l 280 371 l 275 355 l 251 328 l 240 306 l 234 286 l 240 278 l 254 281 l 272 286 l 283 297 l 304 319 l 330 355 l 345 393 l 389 467 l 405 483 l 418 492 l 450 490 l 461 480 l 459 469 l 468 449 l 459 416 l 454 400 l 456 397 l 446 371 l 448 349 l 434 297 l 418 205 l 412 192 l 412 176 l 403 145 l 396 116 l 392 84 l 385 71 l 380 44 l 378 42 l 370 39 l 367 24 l 358 1 l 358 -12 l 347 -59 l 345 -81 l 327 -95 l 329 -106 l 325 -108 l 325 -110 l 318 -123 l 307 -135 l 300 -137 l 291 -142 l 278 -157 l 267 -166 l 251 -171 l 242 -175 l 222 -177 l 193 -180 l 130 -159 l 99 -139 l 74 -117 l 54 -90 l 32 -54 l 18 -21 l 9 42 l 14 84 l 20 102 l 20 125 l 25 127 l 29 120 l 36 118 l 43 109 l 45 113 l 47 113 l 54 87 l 54 82 l 76 47 l 81 44 l 85 31 l 90 31 l 99 15 l 108 15 l 123 -18 l 139 -34 l 163 -52 l 184 -63 l 199 -66 l 233 -79 l 253 -77 l 259 -7 l 263 22 l 266 63 l 274 113 l 277 168 l 284 221 l 282 223 l 237 205 l 208 208 l 168 214 l 161 216 l 148 228 l 134 248 l 132 263 l 132 299 l 141 333 l 173 375 l 199 411 l 220 429 l 226 433 l 260 460 l 275 469 l 284 471 l 298 476 l 323 487 l 354 483 l 372 473 l 375 469 l 344 413 l 334 409 z "},"h":{"ha":498,"x_min":18,"x_max":498,"o":"m 316 814 l 336 826 l 368 824 l 376 806 l 381 790 l 374 745 l 374 739 l 370 721 l 340 654 l 307 562 l 302 555 l 298 535 l 289 522 l 289 517 l 280 497 l 283 495 l 332 515 l 361 522 l 383 522 l 412 515 l 437 506 l 455 499 l 477 470 l 493 452 l 496 431 l 498 406 l 494 387 l 490 367 l 477 345 l 467 305 l 428 173 l 419 155 l 406 117 l 397 103 l 397 97 l 388 74 l 384 63 l 384 58 l 377 34 l 368 20 l 359 9 l 353 -7 l 347 -15 l 336 -18 l 324 -23 l 320 -18 l 317 6 l 320 69 l 322 96 l 374 336 l 378 396 l 376 401 l 368 401 l 352 399 l 307 374 l 296 358 l 285 349 l 264 323 l 231 267 l 189 182 l 171 144 l 106 -6 l 90 -28 l 83 -31 l 79 -38 l 50 -40 l 43 -35 l 30 -22 l 21 9 l 18 27 l 30 67 l 68 179 l 142 437 l 184 566 l 233 680 l 280 768 l 316 814 z "},"i":{"ha":326,"x_min":37,"x_max":308,"o":"m 234 587 l 243 589 l 258 580 l 274 576 l 279 555 l 283 553 l 279 549 l 279 522 l 272 493 l 248 477 l 222 473 l 203 477 l 176 513 l 174 531 l 174 549 l 178 567 l 189 569 l 189 576 l 200 585 l 207 585 l 212 589 l 234 587 m 174 361 l 194 370 l 207 366 l 214 370 l 218 370 l 236 354 l 245 349 l 261 318 l 263 296 l 263 273 l 243 231 l 212 128 l 205 63 l 203 41 l 216 37 l 256 39 l 308 52 l 298 34 l 298 28 l 286 5 l 276 -4 l 279 -11 l 263 -22 l 258 -22 l 254 -31 l 236 -37 l 232 -42 l 191 -66 l 176 -78 l 146 -82 l 142 -84 l 136 -80 l 109 -68 l 75 -44 l 55 -20 l 46 3 l 37 52 l 37 113 l 46 149 l 73 216 l 113 285 l 149 332 l 174 361 z "},"j":{"ha":332,"x_min":-241,"x_max":323,"o":"m 211 392 l 222 392 l 238 392 l 254 390 l 285 356 l 292 320 l 281 263 l 267 197 l 256 165 l 246 134 l 241 115 l 235 94 l 231 75 l 227 66 l 227 50 l 215 20 l 204 5 l 204 -8 l 199 -13 l 193 -21 l 183 -43 l 177 -53 l 169 -73 l 170 -91 l 158 -129 l 144 -144 l 147 -153 l 136 -174 l 127 -205 l 118 -220 l 107 -246 l 100 -270 l 77 -313 l 61 -333 l 42 -350 l 22 -359 l -22 -385 l -63 -413 l -106 -441 l -137 -450 l -161 -441 l -196 -420 l -196 -409 l -203 -409 l -222 -393 l -222 -391 l -239 -369 l -241 -349 l -239 -306 l -218 -219 l -210 -192 l -198 -180 l -191 -165 l -187 -168 l -189 -183 l -176 -210 l -182 -214 l -182 -248 l -178 -250 l -178 -261 l -165 -279 l -151 -319 l -99 -326 l -92 -319 l -81 -326 l -79 -319 l -77 -319 l -75 -323 l -72 -323 l -63 -319 l -26 -192 l 0 -115 l 15 -39 l 39 15 l 64 92 l 111 213 l 191 378 l 200 381 l 211 392 m 229 723 l 245 726 l 256 728 l 262 721 l 276 726 l 290 714 l 303 696 l 305 692 l 303 685 l 321 636 l 323 633 l 319 600 l 321 591 l 312 576 l 288 569 l 262 569 l 222 602 l 220 604 l 209 616 l 207 633 l 200 645 l 195 663 l 200 692 l 205 703 l 216 707 l 229 723 z "},"k":{"ha":679,"x_min":0,"x_max":715,"o":"m 298 718 l 328 776 l 361 787 l 396 764 l 416 737 l 422 708 l 420 692 l 418 668 l 409 604 l 391 545 l 376 494 l 347 426 l 345 406 l 338 399 l 331 372 l 378 408 l 429 439 l 457 461 l 481 474 l 498 477 l 520 490 l 541 494 l 554 486 l 557 486 l 557 480 l 586 446 l 596 413 l 602 391 l 606 379 l 604 366 l 597 361 l 585 345 l 568 332 l 549 323 l 536 319 l 534 310 l 509 301 l 493 286 l 466 272 l 455 267 l 437 265 l 428 258 l 397 252 l 399 256 l 392 258 l 361 243 l 380 234 l 445 174 l 469 151 l 552 84 l 675 -35 l 689 -52 l 700 -59 l 711 -71 l 715 -88 l 709 -86 l 709 -88 l 713 -109 l 703 -126 l 689 -131 l 675 -133 l 664 -122 l 660 -122 l 651 -126 l 644 -122 l 597 -95 l 586 -90 l 557 -73 l 523 -57 l 505 -45 l 465 -21 l 407 12 l 385 24 l 326 68 l 288 100 l 284 104 l 279 104 l 268 113 l 245 138 l 237 138 l 235 131 l 224 126 l 228 120 l 218 102 l 215 76 l 195 41 l 190 28 l 174 3 l 156 -19 l 156 -24 l 147 -35 l 130 -41 l 121 -39 l 118 -43 l 102 -66 l 92 -75 l 80 -73 l 74 -81 l 47 -81 l 20 -68 l 9 -61 l 0 -43 l 0 -22 l 3 5 l 17 45 l 33 87 l 89 235 l 191 477 l 254 627 l 298 718 z "},"l":{"ha":253,"x_min":62,"x_max":389,"o":"m 345 842 l 353 846 l 369 844 l 385 824 l 389 815 l 389 795 l 372 743 l 353 705 l 349 688 l 317 629 l 309 618 l 298 591 l 291 582 l 284 566 l 257 517 l 243 490 l 228 459 l 219 444 l 208 421 l 208 404 l 197 394 l 199 388 l 183 354 l 183 349 l 180 332 l 168 316 l 170 298 l 165 294 l 161 280 l 157 256 l 150 216 l 148 206 l 148 191 l 143 184 l 145 177 l 145 164 l 141 157 l 141 128 l 143 119 l 145 90 l 157 50 l 165 30 l 163 18 l 174 7 l 174 -2 l 199 -28 l 233 -35 l 250 -33 l 257 -37 l 269 -44 l 250 -53 l 250 -60 l 248 -60 l 226 -73 l 219 -75 l 201 -75 l 161 -60 l 143 -44 l 123 -24 l 114 -11 l 85 41 l 83 54 l 71 94 l 62 159 l 62 197 l 67 244 l 71 251 l 67 258 l 85 352 l 116 444 l 121 452 l 143 515 l 201 627 l 210 640 l 235 688 l 298 781 l 333 826 l 345 842 z "},"m":{"ha":781,"x_min":9,"x_max":781,"o":"m 302 474 l 334 483 l 351 483 l 387 469 l 392 467 l 410 452 l 439 407 l 441 378 l 432 335 l 428 322 l 414 291 l 406 273 l 399 257 l 387 235 l 385 214 l 374 185 l 378 176 l 367 159 l 370 152 l 365 149 l 365 143 l 370 143 l 492 311 l 546 371 l 571 393 l 606 420 l 620 429 l 638 431 l 642 438 l 667 445 l 696 445 l 705 438 l 721 438 l 725 431 l 734 429 l 750 416 l 781 360 l 779 333 l 781 326 l 774 293 l 763 273 l 754 257 l 745 233 l 739 214 l 728 203 l 723 193 l 713 180 l 688 159 l 671 134 l 673 127 l 665 121 l 650 89 l 629 51 l 619 31 l 604 4 l 602 -16 l 593 -52 l 582 -65 l 585 -79 l 575 -103 l 575 -123 l 573 -134 l 566 -137 l 568 -170 l 559 -182 l 557 -199 l 551 -199 l 551 -201 l 546 -201 l 540 -204 l 535 -199 l 530 -177 l 526 -166 l 524 -137 l 526 -128 l 522 -123 l 517 -108 l 524 -74 l 522 -52 l 522 -34 l 524 -18 l 528 -12 l 528 13 l 530 16 l 542 64 l 557 127 l 578 185 l 578 190 l 578 197 l 585 203 l 589 223 l 600 255 l 606 259 l 606 266 l 618 290 l 625 293 l 625 304 l 616 302 l 600 283 l 591 257 l 582 250 l 580 243 l 568 237 l 568 228 l 553 205 l 540 188 l 528 161 l 521 132 l 501 107 l 488 87 l 481 78 l 475 58 l 435 20 l 406 -3 l 387 -7 l 375 -12 l 365 -16 l 348 -14 l 334 -7 l 302 18 l 273 60 l 269 71 l 271 78 l 264 96 l 269 168 l 272 228 l 278 252 l 278 257 l 280 273 l 284 302 l 244 239 l 240 235 l 211 176 l 184 125 l 175 104 l 173 94 l 163 69 l 159 62 l 159 54 l 153 42 l 146 24 l 141 18 l 130 -7 l 128 -25 l 123 -29 l 115 -45 l 101 -50 l 101 -56 l 90 -56 l 87 -54 l 61 -54 l 50 -39 l 45 -34 l 36 -29 l 25 -16 l 20 -9 l 12 -7 l 9 6 l 9 11 l 16 13 l 16 33 l 25 51 l 36 107 l 39 114 l 58 181 l 63 197 l 90 266 l 153 389 l 166 414 l 179 429 l 191 440 l 206 440 l 224 443 l 229 440 l 242 431 l 249 434 l 287 463 l 302 474 z "},"n":{"ha":543,"x_min":28,"x_max":515,"o":"m 465 122 l 457 100 l 459 38 l 469 7 l 490 -49 l 499 -68 l 507 -81 l 495 -84 l 486 -93 l 477 -83 l 464 -83 l 464 -87 l 459 -89 l 446 -85 l 428 -80 l 378 -22 l 353 60 l 349 71 l 351 78 l 344 96 l 349 168 l 342 172 l 353 199 l 351 203 l 351 210 l 355 214 l 355 254 l 361 281 l 363 302 l 367 328 l 367 340 l 359 357 l 347 368 l 323 370 l 294 363 l 284 340 l 276 317 l 264 302 l 253 263 l 244 249 l 237 224 l 217 178 l 194 125 l 185 104 l 183 94 l 170 62 l 170 54 l 163 42 l 147 1 l 143 -3 l 134 -19 l 121 -24 l 121 -31 l 107 -28 l 80 -28 l 69 -12 l 64 -8 l 56 -3 l 45 10 l 40 16 l 31 19 l 28 37 l 35 51 l 46 107 l 49 114 l 68 181 l 73 197 l 96 272 l 115 357 l 144 438 l 160 461 l 183 472 l 214 471 l 216 469 l 231 473 l 236 471 l 254 452 l 259 434 l 297 463 l 313 474 l 344 483 l 399 494 l 467 469 l 471 467 l 490 452 l 492 447 l 509 423 l 515 380 l 512 335 l 508 319 l 498 293 l 485 248 l 475 214 l 469 176 l 463 165 l 459 156 l 463 152 l 465 138 l 465 122 z "},"o":{"ha":548,"x_min":35,"x_max":513,"o":"m 378 374 l 368 373 l 355 370 l 347 363 l 332 350 l 314 337 l 283 301 l 260 264 l 239 231 l 214 182 l 195 127 l 193 99 l 201 85 l 216 82 l 234 84 l 254 90 l 277 98 l 309 121 l 334 151 l 361 188 l 378 244 l 384 279 l 387 329 l 385 363 l 471 408 l 475 404 l 477 383 l 490 352 l 503 305 l 505 292 l 509 274 l 513 252 l 509 242 l 505 222 l 511 202 l 509 193 l 505 166 l 489 124 l 489 106 l 480 95 l 464 86 l 460 64 l 433 37 l 421 20 l 391 0 l 368 -17 l 357 -24 l 357 -28 l 337 -44 l 326 -44 l 319 -51 l 312 -48 l 308 -53 l 274 -64 l 258 -60 l 256 -66 l 252 -66 l 248 -62 l 234 -71 l 196 -71 l 189 -66 l 184 -68 l 143 -61 l 117 -46 l 97 -35 l 81 -19 l 71 -6 l 66 9 l 62 14 l 55 26 l 55 41 l 52 66 l 46 71 l 45 87 l 36 94 l 35 106 l 35 119 l 43 124 l 41 128 l 41 135 l 39 164 l 41 184 l 64 229 l 73 256 l 84 262 l 88 283 l 164 388 l 191 415 l 209 435 l 260 479 l 274 486 l 286 496 l 305 505 l 312 500 l 323 505 l 337 495 l 366 511 l 379 507 l 401 505 l 429 500 l 437 488 l 446 471 l 446 466 l 442 462 l 448 457 l 458 444 l 447 412 l 378 374 z "},"p":{"ha":656,"x_min":0,"x_max":637,"o":"m 387 473 l 410 469 l 416 471 l 432 471 l 488 460 l 524 442 l 537 433 l 550 429 l 555 422 l 575 404 l 586 393 l 600 368 l 604 359 l 620 349 l 622 337 l 622 335 l 620 330 l 629 308 l 631 294 l 637 281 l 637 266 l 635 221 l 624 196 l 614 157 l 591 138 l 591 127 l 572 111 l 559 106 l 555 102 l 538 85 l 515 73 l 505 64 l 486 58 l 479 56 l 467 49 l 463 53 l 445 44 l 414 39 l 414 47 l 410 51 l 405 47 l 365 39 l 320 50 l 279 58 l 271 58 l 222 78 l 206 77 l 209 63 l 206 45 l 195 17 l 189 -13 l 184 -40 l 172 -66 l 170 -92 l 155 -127 l 146 -154 l 142 -161 l 132 -197 l 137 -199 l 142 -218 l 142 -221 l 125 -237 l 130 -243 l 112 -261 l 103 -252 l 99 -252 l 94 -259 l 97 -275 l 92 -292 l 78 -311 l 78 -318 l 65 -325 l 40 -325 l 31 -321 l 20 -307 l 7 -278 l 0 -244 l 2 -193 l 9 -130 l 22 -52 l 33 -5 l 67 147 l 92 237 l 90 248 l 96 257 l 87 270 l 81 279 l 81 304 l 90 308 l 94 317 l 87 317 l 87 323 l 103 333 l 112 347 l 130 359 l 143 389 l 190 492 l 237 576 l 248 585 l 257 597 l 284 606 l 304 595 l 307 595 l 342 559 l 351 534 l 358 511 l 363 501 l 326 289 l 326 289 l 320 259 l 290 244 l 297 189 l 320 189 l 342 172 l 387 170 l 416 185 l 444 183 l 469 203 l 484 244 l 472 281 l 454 300 l 426 319 l 384 318 l 353 309 l 344 302 l 377 473 l 387 473 z "},"q":{"ha":474,"x_min":35,"x_max":511,"o":"m 337 368 l 296 332 l 260 290 l 258 285 l 248 271 l 230 252 l 186 186 l 178 175 l 155 134 l 154 109 l 168 98 l 190 104 l 221 132 l 241 159 l 264 196 l 304 267 l 322 304 l 340 342 l 347 353 l 429 468 l 431 469 l 431 470 l 438 481 l 439 481 l 444 481 l 462 477 l 467 481 l 487 477 l 500 471 l 511 453 l 509 441 l 494 410 l 489 397 l 482 381 l 439 281 l 433 269 l 431 252 l 386 149 l 379 144 l 372 119 l 355 102 l 348 75 l 341 70 l 330 54 l 330 43 l 319 30 l 303 -10 l 296 -15 l 281 -71 l 265 -91 l 265 -102 l 260 -113 l 254 -134 l 248 -146 l 236 -189 l 220 -234 l 216 -256 l 209 -272 l 209 -281 l 200 -311 l 193 -352 l 189 -380 l 186 -418 l 185 -433 l 186 -454 l 194 -494 l 203 -482 l 263 -342 l 310 -248 l 384 -118 l 391 -134 l 385 -154 l 378 -172 l 387 -193 l 385 -209 l 389 -226 l 378 -252 l 374 -283 l 350 -326 l 317 -393 l 290 -458 l 281 -471 l 236 -545 l 198 -581 l 178 -590 l 160 -583 l 142 -543 l 129 -482 l 124 -415 l 124 -351 l 133 -283 l 155 -151 l 186 -24 l 196 12 l 201 18 l 201 37 l 146 16 l 113 14 l 77 26 l 62 39 l 37 81 l 35 119 l 39 159 l 59 202 l 93 244 l 122 276 l 151 307 l 248 386 l 301 419 l 348 437 l 363 439 l 380 436 l 345 370 l 337 368 m 431 475 l 438 481 l 431 470 l 431 475 z "},"r":{"ha":446,"x_min":37,"x_max":473,"o":"m 182 454 l 196 461 l 216 461 l 241 437 l 241 408 l 239 392 l 267 408 l 308 418 l 363 416 l 391 412 l 437 387 l 456 372 l 471 342 l 473 327 l 458 311 l 458 307 l 439 289 l 424 291 l 417 302 l 401 309 l 351 320 l 334 320 l 303 316 l 267 298 l 241 275 l 207 229 l 184 182 l 158 83 l 149 23 l 146 3 l 136 -47 l 131 -56 l 109 -62 l 95 -73 l 82 -76 l 71 -71 l 68 -62 l 48 -31 l 44 -16 l 46 -9 l 41 -4 l 37 9 l 41 23 l 48 39 l 50 70 l 82 204 l 127 354 l 158 425 l 182 454 z "},"s":{"ha":492,"x_min":-33,"x_max":482,"o":"m 391 525 l 406 530 l 437 530 l 469 521 l 471 519 l 471 514 l 482 490 l 482 471 l 475 458 l 446 438 l 426 438 l 382 409 l 334 373 l 292 330 l 288 313 l 288 306 l 292 292 l 366 219 l 401 174 l 424 130 l 424 125 l 426 120 l 431 102 l 431 100 l 426 85 l 426 78 l 415 60 l 399 47 l 375 31 l 323 22 l 308 20 l 267 13 l 256 13 l 234 8 l 142 -3 l 50 -7 l 46 -1 l 35 -1 l 31 4 l 21 2 l -12 2 l -26 -1 l -33 6 l -28 24 l -7 37 l 24 53 l 102 75 l 180 89 l 298 104 l 319 111 l 321 113 l 303 138 l 283 159 l 276 165 l 267 176 l 241 199 l 227 208 l 227 210 l 205 230 l 198 239 l 174 290 l 169 344 l 180 385 l 193 407 l 236 447 l 279 476 l 321 498 l 391 525 z "},"t":{"ha":534,"x_min":9,"x_max":701,"o":"m 365 700 l 385 700 l 394 702 l 403 696 l 416 682 l 432 657 l 441 629 l 444 604 l 425 534 l 423 523 l 439 519 l 472 517 l 528 510 l 597 505 l 669 496 l 696 485 l 701 481 l 699 478 l 667 469 l 644 458 l 631 458 l 625 452 l 587 450 l 584 443 l 578 440 l 551 438 l 526 431 l 466 414 l 410 393 l 389 382 l 361 371 l 340 340 l 338 319 l 332 307 l 322 286 l 320 273 l 318 264 l 309 248 l 298 208 l 296 192 l 284 159 l 277 132 l 275 111 l 271 105 l 273 100 l 275 64 l 277 60 l 302 47 l 325 49 l 351 62 l 358 66 l 365 66 l 365 62 l 358 56 l 356 40 l 351 28 l 345 11 l 329 -3 l 309 -27 l 282 -47 l 262 -54 l 244 -68 l 197 -54 l 157 -32 l 130 -1 l 117 38 l 108 100 l 115 163 l 148 288 l 165 345 l 139 340 l 72 342 l 41 357 l 27 369 l 22 374 l 16 391 l 9 398 l 16 414 l 14 422 l 27 440 l 54 450 l 115 476 l 186 492 l 224 498 l 231 500 l 284 608 l 325 673 l 347 698 l 365 700 z "},"u":{"ha":467,"x_min":56,"x_max":439,"o":"m 163 472 l 176 479 l 178 479 l 198 475 l 210 450 l 210 418 l 191 339 l 191 322 l 178 268 l 161 164 l 161 96 l 169 86 l 182 97 l 197 125 l 273 305 l 288 342 l 327 431 l 330 442 l 337 452 l 349 465 l 363 465 l 380 470 l 397 470 l 427 463 l 437 448 l 439 428 l 439 425 l 437 404 l 438 389 l 435 371 l 428 338 l 420 307 l 411 279 l 405 254 l 399 233 l 393 208 l 382 147 l 377 94 l 380 37 l 390 -11 l 377 -18 l 366 -14 l 363 -22 l 355 -20 l 349 -21 l 342 -15 l 334 5 l 329 27 l 322 52 l 319 106 l 294 56 l 272 29 l 223 -18 l 184 -39 l 154 -45 l 132 -37 l 107 -25 l 80 7 l 60 61 l 56 96 l 60 172 l 75 260 l 110 369 l 139 443 l 163 472 z "},"v":{"ha":446,"x_min":65,"x_max":501,"o":"m 148 559 l 155 561 l 174 557 l 184 550 l 186 543 l 195 530 l 203 442 l 197 317 l 193 232 l 190 214 l 193 178 l 190 168 l 201 107 l 208 94 l 215 102 l 295 263 l 342 347 l 367 380 l 416 460 l 470 534 l 494 561 l 501 561 l 492 543 l 496 538 l 499 530 l 492 521 l 474 490 l 472 476 l 479 476 l 460 445 l 452 420 l 450 404 l 445 397 l 436 371 l 429 351 l 423 330 l 420 321 l 410 297 l 414 290 l 400 257 l 403 252 l 385 214 l 315 69 l 293 31 l 273 11 l 255 -1 l 231 -20 l 212 -20 l 188 -27 l 163 -27 l 150 -20 l 123 18 l 103 64 l 85 116 l 72 178 l 65 239 l 65 326 l 67 347 l 69 369 l 83 440 l 98 507 l 125 552 l 138 561 l 148 559 z "},"w":{"ha":623,"x_min":74,"x_max":725,"o":"m 705 671 l 723 694 l 725 694 l 718 673 l 716 669 l 716 662 l 711 660 l 711 648 l 714 646 l 705 624 l 699 610 l 685 593 l 687 584 l 665 534 l 663 526 l 661 517 l 640 472 l 635 458 l 635 450 l 627 429 l 629 422 l 627 407 l 613 374 l 606 358 l 595 317 l 582 293 l 577 275 l 580 264 l 571 243 l 568 239 l 571 226 l 562 205 l 557 201 l 546 165 l 530 125 l 512 83 l 497 56 l 486 31 l 475 22 l 456 9 l 444 -5 l 430 -12 l 396 -9 l 361 9 l 336 40 l 318 87 l 302 152 l 298 266 l 296 333 l 291 333 l 280 311 l 255 228 l 255 208 l 239 154 l 241 135 l 225 65 l 197 -15 l 175 -29 l 157 -29 l 130 -12 l 115 7 l 96 40 l 85 90 l 79 147 l 74 239 l 81 360 l 92 472 l 110 498 l 121 505 l 141 505 l 161 483 l 172 458 l 175 367 l 172 345 l 177 311 l 177 271 l 172 255 l 172 208 l 206 302 l 222 345 l 251 393 l 262 407 l 271 414 l 294 422 l 318 429 l 345 427 l 363 414 l 376 398 l 387 376 l 399 336 l 401 315 l 401 230 l 399 224 l 401 154 l 408 116 l 412 107 l 416 107 l 501 282 l 580 456 l 606 508 l 609 512 l 625 539 l 631 550 l 637 566 l 649 586 l 654 593 l 667 615 l 682 635 l 682 642 l 689 648 l 705 669 l 705 671 z "},"x":{"ha":484,"x_min":-9,"x_max":539,"o":"m 514 575 l 521 579 l 523 579 l 534 555 l 539 515 l 536 508 l 530 494 l 510 465 l 505 465 l 463 412 l 414 358 l 389 329 l 340 269 l 328 257 l 324 244 l 317 241 l 313 224 l 324 195 l 362 107 l 420 -9 l 438 -33 l 443 -47 l 447 -50 l 452 -67 l 454 -74 l 454 -78 l 469 -103 l 476 -110 l 479 -119 l 474 -119 l 467 -110 l 463 -110 l 472 -125 l 467 -125 l 447 -117 l 434 -114 l 429 -119 l 416 -112 l 407 -94 l 396 -98 l 313 -2 l 233 110 l 221 127 l 195 98 l 192 92 l 127 7 l 114 -16 l 92 -40 l 76 -60 l 71 -62 l 60 -81 l 54 -92 l 47 -92 l 40 -105 l 33 -103 l 18 -117 l 16 -117 l 0 -121 l -5 -114 l -9 -92 l -5 -67 l 22 -11 l 42 16 l 100 105 l 157 191 l 176 215 l 140 307 l 107 427 l 100 479 l 100 526 l 107 541 l 125 562 l 132 564 l 145 568 l 157 568 l 161 568 l 170 575 l 188 555 l 217 501 l 237 454 l 269 367 l 273 349 l 347 443 l 418 519 l 469 568 l 490 577 l 507 577 l 514 575 z "},"y":{"ha":545,"x_min":-130,"x_max":526,"o":"m 201 506 l 229 508 l 239 508 l 244 501 l 249 501 l 258 479 l 260 444 l 255 439 l 260 434 l 253 405 l 229 349 l 217 327 l 206 296 l 199 275 l 197 273 l 188 237 l 188 233 l 186 210 l 206 226 l 255 287 l 307 358 l 331 387 l 334 394 l 351 412 l 372 444 l 398 458 l 405 465 l 437 468 l 446 470 l 481 448 l 488 446 l 504 430 l 506 421 l 513 416 l 524 405 l 524 378 l 526 374 l 526 354 l 519 334 l 522 309 l 510 273 l 510 258 l 501 246 l 494 213 l 490 206 l 479 179 l 475 161 l 458 148 l 443 121 l 434 96 l 416 66 l 403 41 l 394 9 l 380 3 l 378 -7 l 370 -11 l 376 -20 l 363 -54 l 349 -74 l 353 -87 l 347 -87 l 342 -90 l 342 -105 l 332 -140 l 327 -155 l 315 -176 l 302 -203 l 297 -222 l 284 -252 l 273 -257 l 273 -269 l 264 -275 l 267 -279 l 258 -293 l 243 -315 l 231 -331 l 224 -349 l 197 -374 l 177 -400 l 159 -412 l 150 -416 l 134 -427 l 98 -438 l 90 -438 l 63 -443 l 56 -448 l 33 -448 l 7 -438 l -7 -434 l -22 -434 l -45 -422 l -69 -416 l -96 -393 l -114 -376 l -121 -358 l -125 -347 l -123 -340 l -123 -333 l -125 -317 l -130 -309 l -127 -297 l -130 -291 l -125 -281 l -119 -293 l -116 -288 l -116 -262 l -107 -266 l -105 -297 l -100 -300 l -92 -297 l -78 -307 l -74 -313 l -47 -324 l 38 -322 l 72 -315 l 107 -302 l 121 -295 l 146 -288 l 170 -269 l 197 -230 l 226 -143 l 260 0 l 262 31 l 267 54 l 271 72 l 275 103 l 229 69 l 219 76 l 175 61 l 141 65 l 132 72 l 107 85 l 81 110 l 65 150 l 58 181 l 56 220 l 63 262 l 74 302 l 119 401 l 168 477 l 193 501 l 201 506 z "},"z":{"ha":840,"x_min":0,"x_max":895,"o":"m 575 505 l 615 507 l 678 505 l 696 503 l 725 486 l 739 473 l 747 453 l 745 431 l 747 424 l 751 422 l 756 404 l 745 386 l 705 359 l 689 350 l 673 339 l 640 319 l 624 310 l 617 308 l 602 296 l 589 292 l 548 279 l 522 263 l 501 252 l 470 238 l 460 238 l 450 227 l 425 216 l 405 200 l 389 193 l 378 187 l 356 171 l 342 167 l 329 155 l 309 146 l 302 140 l 286 136 l 275 126 l 260 115 l 248 113 l 235 98 l 257 104 l 264 104 l 277 106 l 345 126 l 380 129 l 416 138 l 460 142 l 465 146 l 474 140 l 488 146 l 494 142 l 501 146 l 532 146 l 579 151 l 608 153 l 631 153 l 640 153 l 646 149 l 673 155 l 696 153 l 701 153 l 707 149 l 711 151 l 718 151 l 745 149 l 747 149 l 772 146 l 794 144 l 806 140 l 823 140 l 841 133 l 879 126 l 895 120 l 895 117 l 886 113 l 882 115 l 875 111 l 857 109 l 837 100 l 819 98 l 779 88 l 774 86 l 749 79 l 736 81 l 723 79 l 723 75 l 691 68 l 682 64 l 680 62 l 665 59 l 649 59 l 611 50 l 597 43 l 582 46 l 575 39 l 564 43 l 559 39 l 550 41 l 526 37 l 522 33 l 515 35 l 492 24 l 479 26 l 456 17 l 452 12 l 391 -5 l 380 -8 l 345 -17 l 327 -19 l 304 -24 l 255 -39 l 248 -39 l 165 -62 l 101 -73 l 76 -68 l 22 -57 l 2 -43 l 0 -19 l 0 -12 l 7 -1 l 4 8 l 11 17 l 20 33 l 38 53 l 116 100 l 203 158 l 210 162 l 273 205 l 320 236 l 349 258 l 530 379 l 505 375 l 412 361 l 385 359 l 320 357 l 253 357 l 203 363 l 179 370 l 170 375 l 172 382 l 170 386 l 172 404 l 212 437 l 313 467 l 410 489 l 575 505 z "},"{":{"ha":555,"x_min":46,"x_max":509,"o":"m 56 916 l 56 9 l 500 9 l 500 916 l 56 916 m 509 0 l 46 0 l 46 926 l 509 926 l 509 0 z "},"|":{"ha":555,"x_min":46,"x_max":509,"o":"m 56 916 l 56 9 l 500 9 l 500 916 l 56 916 m 509 0 l 46 0 l 46 926 l 509 926 l 509 0 z "},"}":{"ha":555,"x_min":46,"x_max":509,"o":"m 56 916 l 56 9 l 500 9 l 500 916 l 56 916 m 509 0 l 46 0 l 46 926 l 509 926 l 509 0 z "},"~":{"ha":555,"x_min":46,"x_max":509,"o":"m 56 916 l 56 9 l 500 9 l 500 916 l 56 916 m 509 0 l 46 0 l 46 926 l 509 926 l 509 0 m 56 916 l 56 9 l 500 9 l 500 916 l 56 916 m 509 0 l 46 0 l 46 926 l 509 926 l 509 0 z "},"Ä":{"ha":554,"x_min":46,"x_max":632,"o":"m 360 192 l 327 188 l 323 184 l 280 182 l 246 182 l 231 178 l 219 151 l 221 130 l 213 102 l 208 80 l 205 68 l 201 62 l 191 33 l 190 20 l 186 12 l 184 -8 l 178 -30 l 166 -54 l 164 -65 l 153 -89 l 144 -106 l 134 -118 l 121 -122 l 111 -130 l 92 -134 l 80 -134 l 66 -126 l 52 -109 l 48 -83 l 46 -77 l 46 -34 l 50 -6 l 64 74 l 72 106 l 87 180 l 96 210 l 101 220 l 101 233 l 83 262 l 81 275 l 90 280 l 85 288 l 90 304 l 92 315 l 92 317 l 113 323 l 129 332 l 138 361 l 142 376 l 166 449 l 174 479 l 178 481 l 178 488 l 205 563 l 215 587 l 231 633 l 243 673 l 264 739 l 268 747 l 272 759 l 298 828 l 305 840 l 323 888 l 341 923 l 355 931 l 370 937 l 408 935 l 431 931 l 435 927 l 449 925 l 480 909 l 524 858 l 539 833 l 539 828 l 537 812 l 543 796 l 545 741 l 543 722 l 543 699 l 539 671 l 537 631 l 535 596 l 527 538 l 525 519 l 515 479 l 511 469 l 509 444 l 504 418 l 504 400 l 500 396 l 500 382 l 498 376 l 502 371 l 490 349 l 490 343 l 502 330 l 502 317 l 507 317 l 502 292 l 498 282 l 502 264 l 496 259 l 498 247 l 498 224 l 490 220 l 486 218 l 490 194 l 494 188 l 492 170 l 496 157 l 492 153 l 494 141 l 492 123 l 505 43 l 509 29 l 507 21 l 515 -4 l 513 -24 l 515 -63 l 519 -73 l 515 -79 l 517 -89 l 522 -109 l 527 -116 l 525 -130 l 531 -161 l 537 -184 l 537 -199 l 545 -228 l 543 -252 l 520 -213 l 500 -171 l 500 -167 l 492 -149 l 468 -102 l 460 -79 l 443 -34 l 441 -16 l 429 9 l 419 31 l 414 56 l 354 453 l 355 470 l 355 513 l 352 576 l 352 629 l 348 674 l 330 612 l 319 573 l 311 549 l 305 510 l 301 504 l 298 481 l 290 455 l 282 420 l 276 388 l 276 365 l 292 361 l 330 358 l 363 193 l 360 192 m 536 1155 l 540 1162 l 571 1153 l 583 1155 l 589 1149 l 600 1135 l 620 1118 l 632 1084 l 632 1050 l 632 1047 l 614 1027 l 606 1023 l 593 1019 l 557 1025 l 530 1039 l 500 1064 l 498 1086 l 492 1094 l 508 1141 l 522 1151 l 536 1155 m 304 1160 l 326 1164 l 328 1164 l 339 1160 l 351 1155 l 363 1157 l 361 1147 l 375 1141 l 394 1123 l 402 1114 l 422 1068 l 424 1059 l 424 1045 l 424 1041 l 414 1025 l 404 1013 l 402 1011 l 382 1008 l 359 1006 l 334 1015 l 321 1021 l 319 1023 l 286 1047 l 271 1061 l 269 1068 l 269 1086 l 265 1101 l 269 1120 l 279 1141 l 304 1160 z "},"Å":{"ha":554,"x_min":46,"x_max":572,"o":"m 360 192 l 327 188 l 323 184 l 280 182 l 246 182 l 231 178 l 219 151 l 221 130 l 213 102 l 208 80 l 205 68 l 201 62 l 191 33 l 190 20 l 186 12 l 184 -8 l 178 -30 l 166 -54 l 164 -65 l 153 -89 l 144 -106 l 134 -118 l 121 -122 l 111 -130 l 92 -134 l 80 -134 l 66 -126 l 52 -109 l 48 -83 l 46 -77 l 46 -34 l 50 -6 l 64 74 l 72 106 l 87 180 l 96 210 l 101 220 l 101 233 l 83 262 l 81 275 l 90 280 l 85 288 l 90 304 l 92 315 l 92 317 l 113 323 l 129 332 l 138 361 l 142 376 l 166 449 l 174 479 l 178 481 l 178 488 l 205 563 l 215 587 l 231 633 l 243 673 l 264 739 l 268 747 l 272 759 l 298 828 l 305 840 l 323 888 l 341 923 l 355 931 l 370 937 l 408 935 l 431 931 l 435 927 l 449 925 l 480 909 l 524 858 l 539 833 l 539 828 l 537 812 l 543 796 l 545 741 l 543 722 l 543 699 l 539 671 l 537 631 l 535 596 l 527 538 l 525 519 l 515 479 l 511 469 l 509 444 l 504 418 l 504 400 l 500 396 l 500 382 l 498 376 l 502 371 l 490 349 l 490 343 l 502 330 l 502 317 l 507 317 l 502 292 l 498 282 l 502 264 l 496 259 l 498 247 l 498 224 l 490 220 l 486 218 l 490 194 l 494 188 l 492 170 l 496 157 l 492 153 l 494 141 l 492 123 l 505 43 l 509 29 l 507 21 l 515 -4 l 513 -24 l 515 -63 l 519 -73 l 515 -79 l 517 -89 l 522 -109 l 527 -116 l 525 -130 l 531 -161 l 537 -184 l 537 -199 l 545 -228 l 543 -252 l 520 -213 l 500 -171 l 500 -167 l 492 -149 l 468 -102 l 460 -79 l 443 -34 l 441 -16 l 429 9 l 419 31 l 414 56 l 354 453 l 355 470 l 355 513 l 352 576 l 352 629 l 348 674 l 330 612 l 319 573 l 311 549 l 305 510 l 301 504 l 298 481 l 290 455 l 282 420 l 276 388 l 276 365 l 292 361 l 330 358 l 363 193 l 360 192 m 487 1118 l 471 1121 l 436 1069 l 431 1038 l 433 1019 l 435 1017 l 464 1041 l 490 1071 l 490 1090 l 487 1118 m 444 1209 l 461 1217 l 482 1213 l 492 1208 l 494 1206 l 503 1188 l 503 1180 l 510 1172 l 518 1167 l 536 1145 l 545 1138 l 560 1111 l 568 1093 l 570 1065 l 572 1044 l 572 1033 l 570 1023 l 564 1012 l 532 983 l 521 975 l 513 970 l 494 957 l 466 952 l 435 950 l 380 965 l 357 984 l 351 999 l 347 1028 l 347 1054 l 351 1082 l 363 1105 l 361 1112 l 369 1118 l 382 1141 l 410 1179 l 440 1206 l 444 1209 z "},"Ç":{"ha":647,"x_min":74,"x_max":758,"o":"m 411 -20 l 366 -22 l 345 -24 l 337 -43 l 337 -55 l 389 -79 l 408 -90 l 429 -118 l 444 -163 l 439 -177 l 426 -177 l 414 -189 l 381 -205 l 351 -216 l 328 -228 l 237 -257 l 182 -273 l 161 -273 l 151 -267 l 143 -267 l 137 -265 l 135 -257 l 125 -257 l 121 -252 l 133 -243 l 155 -234 l 227 -204 l 302 -175 l 328 -157 l 319 -155 l 279 -159 l 253 -159 l 253 -155 l 245 -145 l 233 -144 l 231 -140 l 220 -134 l 214 -130 l 214 -112 l 214 -98 l 214 -90 l 255 -26 l 260 0 l 231 9 l 198 30 l 171 51 l 130 92 l 102 133 l 85 176 l 78 202 l 78 224 l 74 252 l 76 277 l 78 310 l 96 372 l 100 387 l 111 407 l 117 424 l 119 431 l 128 450 l 154 491 l 167 511 l 174 522 l 191 545 l 203 558 l 212 569 l 214 578 l 256 623 l 305 683 l 327 707 l 340 718 l 344 726 l 348 731 l 355 737 l 393 772 l 415 793 l 460 834 l 473 845 l 499 863 l 510 876 l 530 888 l 553 908 l 566 914 l 596 927 l 610 945 l 621 945 l 623 940 l 646 940 l 652 936 l 657 936 l 687 914 l 711 914 l 720 908 l 728 895 l 730 882 l 743 863 l 758 832 l 758 800 l 747 776 l 734 761 l 720 750 l 676 739 l 663 733 l 657 726 l 635 705 l 627 690 l 607 670 l 592 648 l 573 631 l 526 580 l 517 571 l 493 543 l 465 502 l 454 489 l 382 396 l 372 385 l 353 351 l 338 330 l 327 308 l 316 288 l 307 252 l 294 219 l 290 174 l 290 170 l 292 141 l 311 107 l 344 85 l 378 73 l 426 62 l 460 60 l 506 60 l 526 57 l 530 60 l 536 62 l 551 52 l 551 33 l 547 18 l 547 5 l 543 7 l 541 7 l 526 -3 l 499 -7 l 473 -14 l 469 -12 l 444 -18 l 439 -20 l 417 -20 l 411 -20 z "},"É":{"ha":733,"x_min":93,"x_max":918,"o":"m 313 869 l 352 873 l 367 869 l 372 869 l 387 867 l 413 867 l 439 871 l 478 873 l 536 873 l 568 867 l 604 867 l 674 863 l 704 860 l 820 848 l 880 843 l 911 838 l 916 838 l 918 828 l 916 817 l 892 811 l 880 809 l 872 806 l 840 808 l 831 804 l 805 806 l 799 802 l 791 806 l 788 798 l 783 791 l 783 781 l 764 776 l 756 779 l 751 774 l 749 774 l 728 768 l 709 753 l 702 757 l 699 751 l 691 753 l 686 748 l 646 742 l 641 744 l 624 736 l 624 733 l 598 727 l 583 716 l 570 711 l 561 703 l 534 694 l 510 688 l 499 686 l 494 681 l 464 679 l 443 673 l 417 664 l 389 654 l 385 647 l 376 644 l 350 584 l 338 543 l 328 524 l 326 513 l 322 500 l 328 498 l 372 505 l 445 507 l 517 504 l 551 500 l 562 496 l 577 494 l 585 490 l 590 489 l 590 485 l 581 467 l 553 448 l 538 438 l 531 440 l 525 431 l 486 422 l 439 407 l 413 398 l 335 386 l 315 385 l 290 382 l 277 321 l 273 306 l 264 252 l 258 243 l 258 181 l 260 168 l 260 153 l 266 134 l 281 125 l 303 123 l 338 123 l 425 134 l 452 142 l 531 153 l 577 166 l 622 176 l 678 193 l 680 184 l 658 157 l 658 153 l 637 127 l 602 97 l 577 79 l 568 73 l 564 62 l 551 56 l 527 45 l 519 37 l 512 37 l 512 34 l 499 22 l 490 15 l 484 17 l 473 9 l 465 7 l 465 4 l 450 0 l 425 -11 l 417 -15 l 404 -15 l 400 -18 l 342 -24 l 309 -22 l 286 -20 l 212 -1 l 188 12 l 163 26 l 161 32 l 149 45 l 139 56 l 132 75 l 117 99 l 109 119 l 106 123 l 98 166 l 98 176 l 94 200 l 93 246 l 93 265 l 98 280 l 96 286 l 96 313 l 102 336 l 104 353 l 109 392 l 124 455 l 126 468 l 136 502 l 139 517 l 139 522 l 151 549 l 152 562 l 154 576 l 169 619 l 180 656 l 184 659 l 191 692 l 180 699 l 158 718 l 144 733 l 139 742 l 156 750 l 156 753 l 165 759 l 161 766 l 167 778 l 167 789 l 191 804 l 195 804 l 208 813 l 229 823 l 238 825 l 251 831 l 262 841 l 268 850 l 285 861 l 313 869 m 647 1179 l 699 1185 l 703 1185 l 710 1181 l 712 1177 l 706 1175 l 701 1163 l 703 1159 l 697 1156 l 685 1150 l 685 1145 l 690 1140 l 684 1134 l 687 1124 l 681 1119 l 681 1115 l 699 1118 l 699 1116 l 678 1101 l 675 1087 l 665 1072 l 656 1062 l 640 1047 l 625 1036 l 569 1003 l 519 981 l 509 979 l 485 979 l 469 984 l 457 984 l 450 988 l 450 994 l 444 1000 l 437 1019 l 438 1027 l 435 1034 l 438 1040 l 447 1048 l 447 1052 l 488 1088 l 507 1103 l 565 1144 l 606 1169 l 647 1179 z "},"Ñ":{"ha":926,"x_min":74,"x_max":907,"o":"m 901 743 l 898 692 l 892 663 l 900 651 l 903 604 l 900 566 l 900 545 l 896 528 l 902 506 l 895 426 l 893 401 l 887 319 l 886 285 l 878 261 l 876 235 l 869 205 l 860 172 l 858 156 l 844 121 l 834 90 l 825 66 l 817 44 l 817 40 l 805 31 l 798 -9 l 787 -31 l 772 -50 l 758 -64 l 751 -75 l 720 -85 l 698 -79 l 675 -68 l 654 -54 l 629 -26 l 596 9 l 563 45 l 547 63 l 508 100 l 460 161 l 449 178 l 437 189 l 390 265 l 361 308 l 329 349 l 315 302 l 308 279 l 306 263 l 290 218 l 275 170 l 259 132 l 260 123 l 251 108 l 247 81 l 241 45 l 235 12 l 221 -18 l 219 -35 l 215 -39 l 212 -59 l 198 -55 l 186 -86 l 178 -116 l 168 -134 l 144 -145 l 139 -145 l 131 -139 l 117 -139 l 107 -138 l 100 -125 l 78 -110 l 74 -98 l 80 -68 l 78 -47 l 80 18 l 84 55 l 86 84 l 96 182 l 98 210 l 102 233 l 111 290 l 123 385 l 157 569 l 162 587 l 168 610 l 182 673 l 196 714 l 203 732 l 214 744 l 215 753 l 225 760 l 237 766 l 258 769 l 306 758 l 323 740 l 326 734 l 345 713 l 359 694 l 374 652 l 391 631 l 400 598 l 425 555 l 458 508 l 474 479 l 490 459 l 504 439 l 513 424 l 528 400 l 539 377 l 541 371 l 551 347 l 563 314 l 576 290 l 592 273 l 618 208 l 627 196 l 640 176 l 652 151 l 655 180 l 655 201 l 663 230 l 667 262 l 672 278 l 674 300 l 681 333 l 702 441 l 709 513 l 718 557 l 728 594 l 739 674 l 746 714 l 746 739 l 750 764 l 755 798 l 766 846 l 774 876 l 785 909 l 807 966 l 825 1002 l 838 1030 l 851 1055 l 866 1081 l 881 1117 l 895 1119 l 905 1111 l 907 1096 l 903 1072 l 895 1029 l 895 1025 l 890 1019 l 902 1011 l 900 992 l 902 972 l 900 941 l 902 913 l 905 871 l 907 840 l 905 798 l 901 743 m 743 1199 l 760 1205 l 771 1205 l 762 1181 l 765 1180 l 765 1179 l 758 1171 l 745 1147 l 743 1136 l 740 1127 l 737 1125 l 737 1122 l 740 1121 l 728 1093 l 730 1087 l 730 1086 l 736 1081 l 732 1068 l 728 1053 l 736 1056 l 736 1053 l 731 1048 l 731 1046 l 721 1031 l 720 1029 l 717 1017 l 711 1006 l 703 1002 l 697 998 l 686 990 l 656 977 l 616 970 l 575 972 l 541 984 l 519 998 l 503 1013 l 492 1033 l 478 1063 l 473 1077 l 462 1069 l 441 1043 l 433 1028 l 431 1024 l 420 1018 l 419 1013 l 408 1010 l 400 1004 l 399 1004 l 389 1004 l 382 1002 l 369 1002 l 365 1004 l 363 1009 l 356 1017 l 346 1028 l 350 1031 l 346 1037 l 346 1043 l 345 1053 l 349 1074 l 368 1115 l 385 1143 l 413 1165 l 437 1181 l 452 1189 l 463 1187 l 488 1189 l 505 1185 l 549 1159 l 576 1121 l 580 1111 l 578 1107 l 578 1074 l 580 1072 l 587 1067 l 597 1067 l 621 1071 l 633 1080 l 654 1106 l 687 1149 l 706 1170 l 717 1181 l 743 1199 z "},"Ö":{"ha":814,"x_min":74,"x_max":795,"o":"m 596 713 l 616 698 l 633 678 l 640 679 l 651 661 l 665 644 l 677 624 l 691 612 l 695 604 l 705 585 l 703 579 l 711 575 l 721 553 l 721 550 l 737 536 l 741 522 l 743 497 l 749 495 l 757 479 l 761 440 l 769 411 l 773 381 l 778 362 l 793 360 l 791 350 l 789 334 l 789 319 l 791 315 l 795 315 l 790 290 l 785 256 l 777 220 l 777 214 l 773 209 l 773 197 l 764 181 l 754 148 l 746 140 l 746 130 l 741 118 l 725 100 l 729 93 l 725 87 l 711 79 l 705 71 l 690 65 l 680 51 l 673 37 l 667 31 l 640 15 l 625 12 l 620 5 l 604 -7 l 583 -11 l 563 -17 l 557 -23 l 534 -35 l 505 -39 l 489 -45 l 473 -49 l 459 -47 l 441 -55 l 387 -50 l 340 -41 l 286 -19 l 277 -14 l 262 -7 l 212 20 l 186 39 l 148 74 l 118 117 l 96 157 l 80 214 l 74 245 l 75 313 l 79 346 l 94 407 l 119 462 l 127 470 l 129 480 l 149 511 l 163 535 l 210 600 l 226 622 l 282 693 l 298 711 l 303 717 l 319 727 l 331 745 l 347 753 l 358 766 l 372 772 l 387 788 l 405 796 l 416 804 l 467 819 l 471 823 l 487 823 l 495 827 l 515 823 l 528 825 l 538 817 l 548 807 l 550 800 l 560 784 l 570 780 l 570 774 l 570 752 l 437 614 l 428 611 l 404 579 l 377 524 l 340 456 l 328 433 l 320 400 l 309 380 l 296 342 l 291 336 l 271 294 l 248 240 l 248 189 l 258 146 l 270 133 l 292 111 l 336 96 l 413 94 l 421 96 l 437 99 l 467 102 l 511 121 l 530 136 l 552 144 l 571 169 l 590 221 l 603 268 l 606 290 l 619 309 l 614 317 l 616 372 l 599 454 l 585 498 l 573 520 l 546 550 l 521 588 l 502 599 l 481 618 l 592 718 l 596 713 m 580 1155 l 584 1162 l 615 1153 l 627 1155 l 633 1149 l 644 1135 l 664 1118 l 676 1084 l 676 1050 l 676 1047 l 659 1027 l 650 1023 l 637 1019 l 602 1025 l 574 1039 l 545 1064 l 543 1086 l 536 1094 l 552 1141 l 566 1151 l 580 1155 m 348 1160 l 370 1164 l 372 1164 l 383 1160 l 395 1155 l 407 1157 l 405 1147 l 419 1141 l 438 1123 l 446 1114 l 466 1068 l 468 1059 l 468 1045 l 468 1041 l 458 1025 l 448 1013 l 446 1011 l 427 1008 l 403 1006 l 378 1015 l 366 1021 l 363 1023 l 330 1047 l 315 1061 l 313 1068 l 313 1086 l 309 1101 l 313 1120 l 323 1141 l 348 1160 z "},"Ü":{"ha":723,"x_min":93,"x_max":760,"o":"m 742 924 l 748 936 l 754 936 l 760 924 l 760 881 l 754 861 l 756 848 l 756 838 l 752 806 l 744 793 l 746 783 l 739 765 l 742 742 l 742 730 l 734 703 l 736 683 l 730 652 l 722 618 l 722 604 l 719 597 l 715 567 l 707 553 l 707 538 l 696 520 l 692 500 l 697 479 l 695 450 l 691 441 l 687 416 l 687 400 l 680 369 l 675 369 l 669 355 l 662 316 l 662 298 l 664 290 l 663 263 l 660 237 l 652 212 l 644 167 l 641 142 l 634 123 l 632 112 l 623 102 l 612 104 l 609 79 l 601 64 l 585 47 l 572 31 l 561 13 l 544 -4 l 534 -6 l 520 -20 l 513 -30 l 485 -39 l 471 -39 l 446 -51 l 412 -51 l 397 -53 l 363 -49 l 316 -35 l 267 -10 l 218 25 l 177 73 l 151 104 l 126 153 l 104 222 l 96 243 l 93 288 l 93 319 l 94 334 l 94 380 l 104 431 l 111 441 l 112 457 l 140 542 l 153 565 l 157 581 l 173 612 l 175 622 l 203 665 l 212 677 l 238 720 l 252 732 l 277 755 l 296 767 l 313 767 l 322 773 l 324 779 l 342 779 l 371 771 l 391 751 l 401 724 l 401 700 l 394 685 l 389 673 l 389 659 l 376 614 l 364 569 l 334 496 l 311 408 l 292 326 l 283 241 l 290 192 l 295 169 l 322 126 l 361 102 l 381 90 l 389 88 l 407 88 l 418 96 l 444 117 l 465 155 l 495 216 l 532 310 l 532 316 l 546 357 l 575 444 l 612 551 l 630 606 l 636 618 l 642 626 l 642 644 l 662 692 l 675 732 l 677 742 l 715 838 l 724 865 l 728 871 l 736 914 l 734 922 l 742 924 m 612 1155 l 616 1162 l 647 1153 l 659 1155 l 665 1149 l 676 1135 l 696 1118 l 708 1084 l 708 1050 l 708 1047 l 690 1027 l 682 1023 l 669 1019 l 633 1025 l 606 1039 l 576 1064 l 574 1086 l 568 1094 l 584 1141 l 598 1151 l 612 1155 m 380 1160 l 401 1164 l 404 1164 l 415 1160 l 427 1155 l 439 1157 l 437 1147 l 451 1141 l 470 1123 l 478 1114 l 498 1068 l 500 1059 l 500 1045 l 500 1041 l 490 1025 l 480 1013 l 478 1011 l 458 1008 l 435 1006 l 410 1015 l 397 1021 l 395 1023 l 362 1047 l 347 1061 l 345 1068 l 345 1086 l 341 1101 l 345 1120 l 355 1141 l 380 1160 z "},"á":{"ha":600,"x_min":33,"x_max":623,"o":"m 533 425 l 559 418 l 566 411 l 575 397 l 579 391 l 581 357 l 574 339 l 578 317 l 545 235 l 519 168 l 519 161 l 503 132 l 491 81 l 488 61 l 481 59 l 481 37 l 475 21 l 477 7 l 471 -10 l 469 -24 l 476 -31 l 479 -64 l 488 -78 l 492 -89 l 506 -100 l 522 -105 l 532 -108 l 532 -112 l 515 -116 l 508 -123 l 501 -123 l 486 -134 l 483 -140 l 476 -140 l 452 -138 l 436 -130 l 403 -96 l 392 -72 l 382 -47 l 382 -38 l 376 -9 l 368 50 l 373 115 l 380 161 l 376 161 l 376 157 l 345 119 l 313 89 l 298 66 l 285 54 l 280 49 l 269 38 l 244 18 l 201 -8 l 154 -25 l 132 -22 l 89 -8 l 56 8 l 43 28 l 34 47 l 33 78 l 37 113 l 47 158 l 75 209 l 82 216 l 107 247 l 173 306 l 273 376 l 356 426 l 408 452 l 451 462 l 469 462 l 484 445 l 440 378 l 417 370 l 355 333 l 278 276 l 229 228 l 191 184 l 168 134 l 165 115 l 181 106 l 249 161 l 328 231 l 420 322 l 456 366 l 522 424 l 533 425 m 558 758 l 610 764 l 614 764 l 621 759 l 623 755 l 617 753 l 612 741 l 614 737 l 608 734 l 596 728 l 596 724 l 601 718 l 595 712 l 598 702 l 592 697 l 592 693 l 610 696 l 610 694 l 589 680 l 586 665 l 576 650 l 567 640 l 551 625 l 536 614 l 480 581 l 430 559 l 420 557 l 396 557 l 380 562 l 368 562 l 361 566 l 361 572 l 355 578 l 348 597 l 349 605 l 347 612 l 349 618 l 358 627 l 358 630 l 399 667 l 418 682 l 476 722 l 517 747 l 558 758 z "},"à":{"ha":600,"x_min":33,"x_max":581,"o":"m 533 425 l 559 418 l 566 411 l 575 397 l 579 391 l 581 357 l 574 339 l 578 317 l 545 235 l 519 168 l 519 161 l 503 132 l 491 81 l 488 61 l 481 59 l 481 37 l 475 21 l 477 7 l 471 -10 l 469 -24 l 476 -31 l 479 -64 l 488 -78 l 492 -89 l 506 -100 l 522 -105 l 532 -108 l 532 -112 l 515 -116 l 508 -123 l 501 -123 l 486 -134 l 483 -140 l 476 -140 l 452 -138 l 436 -130 l 403 -96 l 392 -72 l 382 -47 l 382 -38 l 376 -9 l 368 50 l 373 115 l 380 161 l 376 161 l 376 157 l 345 119 l 313 89 l 298 66 l 285 54 l 280 49 l 269 38 l 244 18 l 201 -8 l 154 -25 l 132 -22 l 89 -8 l 56 8 l 43 28 l 34 47 l 33 78 l 37 113 l 47 158 l 75 209 l 82 216 l 107 247 l 173 306 l 273 376 l 356 426 l 408 452 l 451 462 l 469 462 l 484 445 l 440 378 l 417 370 l 355 333 l 278 276 l 229 228 l 191 184 l 168 134 l 165 115 l 181 106 l 249 161 l 328 231 l 420 322 l 456 366 l 522 424 l 533 425 m 309 772 l 321 777 l 330 776 l 340 777 l 342 774 l 350 774 l 355 768 l 376 748 l 422 698 l 444 673 l 511 600 l 547 566 l 546 552 l 542 549 l 536 552 l 531 549 l 530 548 l 528 549 l 527 549 l 503 545 l 477 550 l 452 553 l 422 561 l 399 574 l 364 599 l 327 630 l 300 659 l 283 686 l 267 731 l 270 731 l 271 747 l 274 755 l 309 772 z "},"â":{"ha":600,"x_min":33,"x_max":607,"o":"m 533 425 l 559 418 l 566 411 l 575 397 l 579 391 l 581 357 l 574 339 l 578 317 l 545 235 l 519 168 l 519 161 l 503 132 l 491 81 l 488 61 l 481 59 l 481 37 l 475 21 l 477 7 l 471 -10 l 469 -24 l 476 -31 l 479 -64 l 488 -78 l 492 -89 l 506 -100 l 522 -105 l 532 -108 l 532 -112 l 515 -116 l 508 -123 l 501 -123 l 486 -134 l 483 -140 l 476 -140 l 452 -138 l 436 -130 l 403 -96 l 392 -72 l 382 -47 l 382 -38 l 376 -9 l 368 50 l 373 115 l 380 161 l 376 161 l 376 157 l 345 119 l 313 89 l 298 66 l 285 54 l 280 49 l 269 38 l 244 18 l 201 -8 l 154 -25 l 132 -22 l 89 -8 l 56 8 l 43 28 l 34 47 l 33 78 l 37 113 l 47 158 l 75 209 l 82 216 l 107 247 l 173 306 l 273 376 l 356 426 l 408 452 l 451 462 l 469 462 l 484 445 l 440 378 l 417 370 l 355 333 l 278 276 l 229 228 l 191 184 l 168 134 l 165 115 l 181 106 l 249 161 l 328 231 l 420 322 l 456 366 l 522 424 l 533 425 m 466 783 l 482 787 l 494 786 l 506 781 l 513 781 l 526 776 l 549 760 l 563 734 l 583 665 l 591 631 l 604 597 l 603 596 l 607 580 l 604 577 l 603 561 l 602 559 l 595 564 l 593 562 l 579 562 l 578 564 l 576 564 l 575 564 l 574 564 l 529 624 l 513 646 l 487 696 l 485 692 l 476 689 l 472 678 l 450 656 l 420 623 l 410 606 l 359 549 l 344 542 l 336 536 l 325 533 l 310 530 l 291 530 l 282 533 l 276 540 l 273 552 l 271 558 l 272 561 l 272 562 l 272 577 l 294 614 l 329 659 l 361 698 l 412 747 l 441 770 l 466 783 z "},"ä":{"ha":600,"x_min":33,"x_max":647,"o":"m 533 425 l 559 418 l 566 411 l 575 397 l 579 391 l 581 357 l 574 339 l 578 317 l 545 235 l 519 168 l 519 161 l 503 132 l 491 81 l 488 61 l 481 59 l 481 37 l 475 21 l 477 7 l 471 -10 l 469 -24 l 476 -31 l 479 -64 l 488 -78 l 492 -89 l 506 -100 l 522 -105 l 532 -108 l 532 -112 l 515 -116 l 508 -123 l 501 -123 l 486 -134 l 483 -140 l 476 -140 l 452 -138 l 436 -130 l 403 -96 l 392 -72 l 382 -47 l 382 -38 l 376 -9 l 368 50 l 373 115 l 380 161 l 376 161 l 376 157 l 345 119 l 313 89 l 298 66 l 285 54 l 280 49 l 269 38 l 244 18 l 201 -8 l 154 -25 l 132 -22 l 89 -8 l 56 8 l 43 28 l 34 47 l 33 78 l 37 113 l 47 158 l 75 209 l 82 216 l 107 247 l 173 306 l 273 376 l 356 426 l 408 452 l 451 462 l 469 462 l 484 445 l 440 378 l 417 370 l 355 333 l 278 276 l 229 228 l 191 184 l 168 134 l 165 115 l 181 106 l 249 161 l 328 231 l 420 322 l 456 366 l 522 424 l 533 425 m 551 726 l 555 733 l 586 724 l 597 726 l 604 720 l 615 706 l 635 688 l 647 654 l 647 621 l 647 618 l 629 598 l 621 594 l 608 590 l 572 596 l 545 610 l 515 635 l 513 656 l 507 665 l 523 711 l 537 722 l 551 726 m 319 731 l 340 735 l 342 735 l 354 731 l 366 726 l 378 728 l 376 718 l 390 711 l 409 694 l 417 684 l 437 639 l 439 629 l 439 616 l 439 612 l 429 596 l 419 584 l 417 582 l 397 578 l 374 576 l 349 586 l 336 592 l 334 594 l 301 618 l 286 631 l 283 639 l 283 656 l 280 672 l 283 690 l 294 711 l 319 731 z "},"ã":{"ha":600,"x_min":33,"x_max":667,"o":"m 533 425 l 559 418 l 566 411 l 575 397 l 579 391 l 581 357 l 574 339 l 578 317 l 545 235 l 519 168 l 519 161 l 503 132 l 491 81 l 488 61 l 481 59 l 481 37 l 475 21 l 477 7 l 471 -10 l 469 -24 l 476 -31 l 479 -64 l 488 -78 l 492 -89 l 506 -100 l 522 -105 l 532 -108 l 532 -112 l 515 -116 l 508 -123 l 501 -123 l 486 -134 l 483 -140 l 476 -140 l 452 -138 l 436 -130 l 403 -96 l 392 -72 l 382 -47 l 382 -38 l 376 -9 l 368 50 l 373 115 l 380 161 l 376 161 l 376 157 l 345 119 l 313 89 l 298 66 l 285 54 l 280 49 l 269 38 l 244 18 l 201 -8 l 154 -25 l 132 -22 l 89 -8 l 56 8 l 43 28 l 34 47 l 33 78 l 37 113 l 47 158 l 75 209 l 82 216 l 107 247 l 173 306 l 273 376 l 356 426 l 408 452 l 451 462 l 469 462 l 484 445 l 440 378 l 417 370 l 355 333 l 278 276 l 229 228 l 191 184 l 168 134 l 165 115 l 181 106 l 249 161 l 328 231 l 420 322 l 456 366 l 522 424 l 533 425 m 640 771 l 656 777 l 667 777 l 659 753 l 661 752 l 661 751 l 654 743 l 641 720 l 640 708 l 636 699 l 633 697 l 633 694 l 636 693 l 625 665 l 626 659 l 626 658 l 632 653 l 629 640 l 625 625 l 632 628 l 632 625 l 627 621 l 627 618 l 617 603 l 616 602 l 613 589 l 607 578 l 600 574 l 593 570 l 582 562 l 553 549 l 513 543 l 471 545 l 437 556 l 416 570 l 399 585 l 388 605 l 374 635 l 370 649 l 358 642 l 338 615 l 329 600 l 328 596 l 317 590 l 315 585 l 304 583 l 296 576 l 295 576 l 285 576 l 279 574 l 265 574 l 261 576 l 260 581 l 252 589 l 242 600 l 246 603 l 242 609 l 242 615 l 241 625 l 245 646 l 264 687 l 281 715 l 309 737 l 333 753 l 348 761 l 359 759 l 385 761 l 401 758 l 445 731 l 473 693 l 476 683 l 475 680 l 475 646 l 476 644 l 484 639 l 494 639 l 517 643 l 529 652 l 551 678 l 583 721 l 602 742 l 613 753 l 640 771 z "},"å":{"ha":600,"x_min":33,"x_max":585,"o":"m 533 425 l 559 418 l 566 411 l 575 397 l 579 391 l 581 357 l 574 339 l 578 317 l 545 235 l 519 168 l 519 161 l 503 132 l 491 81 l 488 61 l 481 59 l 481 37 l 475 21 l 477 7 l 471 -10 l 469 -24 l 476 -31 l 479 -64 l 488 -78 l 492 -89 l 506 -100 l 522 -105 l 532 -108 l 532 -112 l 515 -116 l 508 -123 l 501 -123 l 486 -134 l 483 -140 l 476 -140 l 452 -138 l 436 -130 l 403 -96 l 392 -72 l 382 -47 l 382 -38 l 376 -9 l 368 50 l 373 115 l 380 161 l 376 161 l 376 157 l 345 119 l 313 89 l 298 66 l 285 54 l 280 49 l 269 38 l 244 18 l 201 -8 l 154 -25 l 132 -22 l 89 -8 l 56 8 l 43 28 l 34 47 l 33 78 l 37 113 l 47 158 l 75 209 l 82 216 l 107 247 l 173 306 l 273 376 l 356 426 l 408 452 l 451 462 l 469 462 l 484 445 l 440 378 l 417 370 l 355 333 l 278 276 l 229 228 l 191 184 l 168 134 l 165 115 l 181 106 l 249 161 l 328 231 l 420 322 l 456 366 l 522 424 l 533 425 m 500 696 l 484 699 l 449 648 l 444 616 l 446 597 l 448 595 l 477 619 l 503 649 l 503 668 l 500 696 m 456 787 l 474 795 l 495 791 l 505 786 l 507 784 l 516 766 l 516 758 l 523 750 l 531 745 l 549 723 l 558 716 l 573 689 l 581 671 l 583 644 l 585 623 l 585 611 l 583 602 l 576 590 l 545 561 l 534 553 l 526 548 l 507 535 l 479 530 l 448 528 l 393 543 l 370 562 l 364 577 l 359 606 l 359 632 l 364 660 l 376 684 l 374 690 l 382 696 l 395 720 l 422 757 l 453 784 l 456 787 z "},"ç":{"ha":573,"x_min":28,"x_max":573,"o":"m 418 444 l 424 444 l 436 441 l 452 444 l 467 444 l 485 433 l 498 420 l 513 404 l 526 376 l 526 347 l 518 336 l 507 323 l 477 319 l 471 317 l 454 323 l 438 332 l 426 334 l 422 332 l 406 319 l 371 288 l 324 247 l 289 208 l 248 161 l 212 114 l 234 112 l 294 117 l 430 147 l 509 170 l 568 194 l 571 192 l 571 189 l 573 184 l 573 182 l 559 165 l 559 161 l 550 153 l 557 149 l 542 125 l 530 119 l 536 107 l 517 90 l 512 81 l 505 75 l 471 57 l 467 51 l 458 53 l 448 45 l 424 29 l 403 20 l 395 20 l 385 5 l 363 2 l 338 -4 l 332 -10 l 316 -12 l 302 -18 l 289 -18 l 281 -24 l 273 -43 l 273 -55 l 324 -79 l 344 -90 l 366 -118 l 379 -163 l 375 -177 l 361 -177 l 349 -189 l 326 -199 l 322 -204 l 314 -204 l 300 -216 l 287 -216 l 263 -228 l 173 -257 l 118 -273 l 96 -273 l 87 -269 l 87 -267 l 79 -267 l 73 -265 l 71 -257 l 61 -257 l 57 -252 l 69 -243 l 89 -236 l 163 -204 l 238 -175 l 263 -157 l 256 -155 l 214 -159 l 189 -159 l 189 -155 l 181 -145 l 169 -144 l 167 -140 l 155 -134 l 149 -130 l 149 -112 l 149 -98 l 149 -90 l 191 -26 l 184 -26 l 161 -14 l 128 -6 l 100 7 l 77 25 l 47 47 l 37 66 l 34 68 l 28 106 l 34 139 l 41 165 l 79 208 l 138 269 l 184 306 l 189 314 l 279 374 l 357 420 l 397 437 l 401 437 l 418 444 z "},"é":{"ha":562,"x_min":37,"x_max":614,"o":"m 195 208 l 244 226 l 290 250 l 327 273 l 356 300 l 382 326 l 418 374 l 414 374 l 383 368 l 340 351 l 287 324 l 233 281 l 205 254 l 168 208 l 160 109 l 159 109 l 152 89 l 155 82 l 161 71 l 193 53 l 241 39 l 295 33 l 300 28 l 389 24 l 456 28 l 517 37 l 548 44 l 553 44 l 553 39 l 519 19 l 488 3 l 486 -1 l 472 -5 l 454 -7 l 450 -14 l 420 -26 l 410 -26 l 405 -33 l 396 -35 l 385 -33 l 382 -35 l 369 -35 l 362 -41 l 334 -45 l 315 -48 l 289 -52 l 273 -50 l 271 -52 l 246 -52 l 239 -57 l 231 -55 l 217 -55 l 212 -52 l 195 -52 l 191 -48 l 181 -48 l 165 -43 l 161 -41 l 161 -39 l 159 -37 l 143 -37 l 138 -35 l 130 -37 l 121 -30 l 103 -17 l 83 3 l 65 28 l 47 68 l 45 84 l 47 91 l 41 115 l 41 120 l 37 126 l 41 136 l 41 153 l 43 174 l 69 212 l 100 252 l 123 272 l 143 294 l 159 306 l 241 366 l 302 404 l 391 442 l 434 456 l 477 451 l 488 440 l 492 425 l 488 420 l 494 399 l 492 372 l 483 354 l 481 346 l 479 339 l 460 315 l 458 306 l 450 294 l 434 281 l 425 273 l 403 252 l 376 225 l 351 205 l 349 198 l 336 191 l 331 191 l 317 180 l 304 174 l 267 146 l 248 140 l 244 134 l 186 111 l 172 110 l 180 208 l 195 208 m 549 756 l 601 762 l 606 762 l 612 758 l 614 753 l 608 752 l 604 740 l 606 736 l 600 733 l 587 727 l 587 722 l 592 717 l 586 711 l 589 701 l 583 696 l 583 692 l 601 694 l 601 693 l 581 678 l 577 664 l 567 649 l 558 639 l 542 624 l 527 612 l 471 580 l 421 557 l 411 556 l 387 556 l 371 561 l 359 561 l 352 565 l 352 571 l 346 576 l 339 596 l 340 604 l 338 610 l 340 616 l 349 625 l 349 629 l 391 665 l 410 680 l 467 721 l 508 746 l 549 756 z "},"è":{"ha":562,"x_min":37,"x_max":553,"o":"m 195 208 l 244 226 l 290 250 l 327 273 l 356 300 l 382 326 l 418 374 l 414 374 l 383 368 l 340 351 l 287 324 l 233 281 l 205 254 l 168 208 l 160 109 l 159 109 l 152 89 l 155 82 l 161 71 l 193 53 l 241 39 l 295 33 l 300 28 l 389 24 l 456 28 l 517 37 l 548 44 l 553 44 l 553 39 l 519 19 l 488 3 l 486 -1 l 472 -5 l 454 -7 l 450 -14 l 420 -26 l 410 -26 l 405 -33 l 396 -35 l 385 -33 l 382 -35 l 369 -35 l 362 -41 l 334 -45 l 315 -48 l 289 -52 l 273 -50 l 271 -52 l 246 -52 l 239 -57 l 231 -55 l 217 -55 l 212 -52 l 195 -52 l 191 -48 l 181 -48 l 165 -43 l 161 -41 l 161 -39 l 159 -37 l 143 -37 l 138 -35 l 130 -37 l 121 -30 l 103 -17 l 83 3 l 65 28 l 47 68 l 45 84 l 47 91 l 41 115 l 41 120 l 37 126 l 41 136 l 41 153 l 43 174 l 69 212 l 100 252 l 123 272 l 143 294 l 159 306 l 241 366 l 302 404 l 391 442 l 434 456 l 477 451 l 488 440 l 492 425 l 488 420 l 494 399 l 492 372 l 483 354 l 481 346 l 479 339 l 460 315 l 458 306 l 450 294 l 434 281 l 425 273 l 403 252 l 376 225 l 351 205 l 349 198 l 336 191 l 331 191 l 317 180 l 304 174 l 267 146 l 248 140 l 244 134 l 186 111 l 172 110 l 180 208 l 195 208 m 311 772 l 322 777 l 331 776 l 341 777 l 343 774 l 351 774 l 356 768 l 378 748 l 424 698 l 446 673 l 512 600 l 549 566 l 547 552 l 543 549 l 537 552 l 532 549 l 531 548 l 530 549 l 528 549 l 505 545 l 479 550 l 453 553 l 423 561 l 401 574 l 366 599 l 328 630 l 302 659 l 284 686 l 269 731 l 271 731 l 273 747 l 275 755 l 311 772 z "},"ê":{"ha":562,"x_min":37,"x_max":553,"o":"m 195 208 l 244 226 l 290 250 l 327 273 l 356 300 l 382 326 l 418 374 l 414 374 l 383 368 l 340 351 l 287 324 l 233 281 l 205 254 l 168 208 l 160 109 l 159 109 l 152 89 l 155 82 l 161 71 l 193 53 l 241 39 l 295 33 l 300 28 l 389 24 l 456 28 l 517 37 l 548 44 l 553 44 l 553 39 l 519 19 l 488 3 l 486 -1 l 472 -5 l 454 -7 l 450 -14 l 420 -26 l 410 -26 l 405 -33 l 396 -35 l 385 -33 l 382 -35 l 369 -35 l 362 -41 l 334 -45 l 315 -48 l 289 -52 l 273 -50 l 271 -52 l 246 -52 l 239 -57 l 231 -55 l 217 -55 l 212 -52 l 195 -52 l 191 -48 l 181 -48 l 165 -43 l 161 -41 l 161 -39 l 159 -37 l 143 -37 l 138 -35 l 130 -37 l 121 -30 l 103 -17 l 83 3 l 65 28 l 47 68 l 45 84 l 47 91 l 41 115 l 41 120 l 37 126 l 41 136 l 41 153 l 43 174 l 69 212 l 100 252 l 123 272 l 143 294 l 159 306 l 241 366 l 302 404 l 391 442 l 434 456 l 477 451 l 488 440 l 492 425 l 488 420 l 494 399 l 492 372 l 483 354 l 481 346 l 479 339 l 460 315 l 458 306 l 450 294 l 434 281 l 425 273 l 403 252 l 376 225 l 351 205 l 349 198 l 336 191 l 331 191 l 317 180 l 304 174 l 267 146 l 248 140 l 244 134 l 186 111 l 172 110 l 180 208 l 195 208 m 401 787 l 418 791 l 429 790 l 441 785 l 449 785 l 462 780 l 484 764 l 498 739 l 518 669 l 527 635 l 540 602 l 538 600 l 543 584 l 540 581 l 538 565 l 537 564 l 531 568 l 528 566 l 515 566 l 513 568 l 512 568 l 511 568 l 509 568 l 465 628 l 449 650 l 422 700 l 420 696 l 412 693 l 408 682 l 385 661 l 356 627 l 346 610 l 294 553 l 279 546 l 272 540 l 260 537 l 245 534 l 227 534 l 218 537 l 212 544 l 209 556 l 206 562 l 208 565 l 208 566 l 208 581 l 229 618 l 264 663 l 297 702 l 347 751 l 376 774 l 401 787 z "},"ë":{"ha":562,"x_min":37,"x_max":576,"o":"m 195 208 l 244 226 l 290 250 l 327 273 l 356 300 l 382 326 l 418 374 l 414 374 l 383 368 l 340 351 l 287 324 l 233 281 l 205 254 l 168 208 l 160 109 l 159 109 l 152 89 l 155 82 l 161 71 l 193 53 l 241 39 l 295 33 l 300 28 l 389 24 l 456 28 l 517 37 l 548 44 l 553 44 l 553 39 l 519 19 l 488 3 l 486 -1 l 472 -5 l 454 -7 l 450 -14 l 420 -26 l 410 -26 l 405 -33 l 396 -35 l 385 -33 l 382 -35 l 369 -35 l 362 -41 l 334 -45 l 315 -48 l 289 -52 l 273 -50 l 271 -52 l 246 -52 l 239 -57 l 231 -55 l 217 -55 l 212 -52 l 195 -52 l 191 -48 l 181 -48 l 165 -43 l 161 -41 l 161 -39 l 159 -37 l 143 -37 l 138 -35 l 130 -37 l 121 -30 l 103 -17 l 83 3 l 65 28 l 47 68 l 45 84 l 47 91 l 41 115 l 41 120 l 37 126 l 41 136 l 41 153 l 43 174 l 69 212 l 100 252 l 123 272 l 143 294 l 159 306 l 241 366 l 302 404 l 391 442 l 434 456 l 477 451 l 488 440 l 492 425 l 488 420 l 494 399 l 492 372 l 483 354 l 481 346 l 479 339 l 460 315 l 458 306 l 450 294 l 434 281 l 425 273 l 403 252 l 376 225 l 351 205 l 349 198 l 336 191 l 331 191 l 317 180 l 304 174 l 267 146 l 248 140 l 244 134 l 186 111 l 172 110 l 180 208 l 195 208 m 480 727 l 484 734 l 515 725 l 527 727 l 533 721 l 545 707 l 564 690 l 576 656 l 576 623 l 576 619 l 559 600 l 551 595 l 537 591 l 502 597 l 474 611 l 445 636 l 443 658 l 437 666 l 452 713 l 467 723 l 480 727 m 248 732 l 270 736 l 272 736 l 283 732 l 296 727 l 307 729 l 305 719 l 319 713 l 338 695 l 347 686 l 366 640 l 368 631 l 368 617 l 368 613 l 358 597 l 349 585 l 347 583 l 327 580 l 303 578 l 278 587 l 266 593 l 264 595 l 231 619 l 215 633 l 213 640 l 213 658 l 210 673 l 213 692 l 223 713 l 248 732 z "},"í":{"ha":326,"x_min":37,"x_max":453,"o":"m 174 361 l 194 370 l 207 366 l 214 370 l 218 370 l 236 354 l 245 349 l 261 318 l 263 296 l 263 273 l 243 231 l 212 128 l 205 63 l 203 41 l 216 37 l 256 39 l 308 52 l 298 34 l 298 28 l 286 5 l 276 -4 l 279 -11 l 263 -22 l 258 -22 l 254 -31 l 236 -37 l 232 -42 l 191 -66 l 176 -78 l 146 -82 l 142 -84 l 136 -80 l 109 -68 l 75 -44 l 55 -20 l 46 3 l 37 52 l 37 113 l 46 149 l 73 216 l 113 285 l 149 332 l 174 361 m 388 758 l 439 764 l 444 764 l 451 759 l 453 755 l 447 753 l 442 741 l 444 737 l 438 734 l 426 728 l 426 724 l 431 718 l 425 712 l 428 702 l 422 697 l 422 693 l 439 696 l 439 694 l 419 680 l 416 665 l 406 650 l 397 640 l 380 625 l 366 614 l 310 581 l 260 559 l 250 557 l 226 557 l 210 562 l 198 562 l 191 566 l 191 572 l 184 578 l 178 597 l 179 605 l 176 612 l 179 618 l 188 627 l 188 630 l 229 667 l 248 682 l 306 722 l 347 747 l 388 758 z "},"ì":{"ha":326,"x_min":37,"x_max":416,"o":"m 178 772 l 189 777 l 198 776 l 208 777 l 210 774 l 218 774 l 223 768 l 245 748 l 291 698 l 313 673 l 379 600 l 416 566 l 414 552 l 410 549 l 404 552 l 399 549 l 398 548 l 397 549 l 395 549 l 372 545 l 346 550 l 320 553 l 290 561 l 268 574 l 233 599 l 195 630 l 169 659 l 151 686 l 136 731 l 138 731 l 140 747 l 142 755 l 178 772 m 174 361 l 194 370 l 207 366 l 214 370 l 218 370 l 236 354 l 245 349 l 261 318 l 263 296 l 263 273 l 243 231 l 212 128 l 205 63 l 203 41 l 216 37 l 256 39 l 308 52 l 298 34 l 298 28 l 286 5 l 276 -4 l 279 -11 l 263 -22 l 258 -22 l 254 -31 l 236 -37 l 232 -42 l 191 -66 l 176 -78 l 146 -82 l 142 -84 l 136 -80 l 109 -68 l 75 -44 l 55 -20 l 46 3 l 37 52 l 37 113 l 46 149 l 73 216 l 113 285 l 149 332 l 174 361 z "},"î":{"ha":326,"x_min":37,"x_max":439,"o":"m 174 361 l 194 370 l 207 366 l 214 370 l 218 370 l 236 354 l 245 349 l 261 318 l 263 296 l 263 273 l 243 231 l 212 128 l 205 63 l 203 41 l 216 37 l 256 39 l 308 52 l 298 34 l 298 28 l 286 5 l 276 -4 l 279 -11 l 263 -22 l 258 -22 l 254 -31 l 236 -37 l 232 -42 l 191 -66 l 176 -78 l 146 -82 l 142 -84 l 136 -80 l 109 -68 l 75 -44 l 55 -20 l 46 3 l 37 52 l 37 113 l 46 149 l 73 216 l 113 285 l 149 332 l 174 361 m 298 787 l 314 791 l 326 790 l 338 785 l 345 785 l 358 780 l 380 764 l 395 739 l 414 669 l 423 635 l 436 602 l 435 600 l 439 584 l 436 581 l 435 565 l 433 564 l 427 568 l 425 566 l 411 566 l 410 568 l 408 568 l 407 568 l 406 568 l 361 628 l 345 650 l 319 700 l 317 696 l 308 693 l 304 682 l 281 661 l 252 627 l 242 610 l 191 553 l 176 546 l 168 540 l 157 537 l 142 534 l 123 534 l 114 537 l 108 544 l 105 556 l 102 562 l 104 565 l 104 566 l 104 581 l 125 618 l 161 663 l 193 702 l 243 751 l 273 774 l 298 787 z "},"ï":{"ha":326,"x_min":37,"x_max":484,"o":"m 174 361 l 194 370 l 207 366 l 214 370 l 218 370 l 236 354 l 245 349 l 261 318 l 263 296 l 263 273 l 243 231 l 212 128 l 205 63 l 203 41 l 216 37 l 256 39 l 308 52 l 298 34 l 298 28 l 286 5 l 276 -4 l 279 -11 l 263 -22 l 258 -22 l 254 -31 l 236 -37 l 232 -42 l 191 -66 l 176 -78 l 146 -82 l 142 -84 l 136 -80 l 109 -68 l 75 -44 l 55 -20 l 46 3 l 37 52 l 37 113 l 46 149 l 73 216 l 113 285 l 149 332 l 174 361 m 387 726 l 391 733 l 422 724 l 434 726 l 440 720 l 452 706 l 471 688 l 484 654 l 484 621 l 484 618 l 466 598 l 458 594 l 444 590 l 409 596 l 381 610 l 352 635 l 350 656 l 344 665 l 359 711 l 374 722 l 387 726 m 155 731 l 177 735 l 179 735 l 191 731 l 203 726 l 214 728 l 212 718 l 227 711 l 245 694 l 254 684 l 273 639 l 275 629 l 275 616 l 275 612 l 265 596 l 256 584 l 254 582 l 234 578 l 210 576 l 185 586 l 173 592 l 171 594 l 138 618 l 122 631 l 120 639 l 120 656 l 117 672 l 120 690 l 130 711 l 155 731 z "},"ñ":{"ha":543,"x_min":28,"x_max":603,"o":"m 465 122 l 457 100 l 459 38 l 469 7 l 490 -49 l 499 -68 l 507 -81 l 495 -84 l 486 -93 l 477 -83 l 464 -83 l 464 -87 l 459 -89 l 446 -85 l 428 -80 l 378 -22 l 353 60 l 349 71 l 351 78 l 344 96 l 349 168 l 342 172 l 353 199 l 351 203 l 351 210 l 355 214 l 355 254 l 361 281 l 363 302 l 367 328 l 367 340 l 359 357 l 347 368 l 323 370 l 294 363 l 284 340 l 276 317 l 264 302 l 253 263 l 244 249 l 237 224 l 217 178 l 194 125 l 185 104 l 183 94 l 170 62 l 170 54 l 163 42 l 147 1 l 143 -3 l 134 -19 l 121 -24 l 121 -31 l 107 -28 l 80 -28 l 69 -12 l 64 -8 l 56 -3 l 45 10 l 40 16 l 31 19 l 28 37 l 35 51 l 46 107 l 49 114 l 68 181 l 73 197 l 96 272 l 115 357 l 144 438 l 160 461 l 183 472 l 214 471 l 216 469 l 231 473 l 236 471 l 254 452 l 259 434 l 297 463 l 313 474 l 344 483 l 399 494 l 467 469 l 471 467 l 490 452 l 492 447 l 509 423 l 515 380 l 512 335 l 508 319 l 498 293 l 485 248 l 475 214 l 469 176 l 463 165 l 459 156 l 463 152 l 465 138 l 465 122 m 575 773 l 591 779 l 603 779 l 594 755 l 597 754 l 597 753 l 589 745 l 576 722 l 575 710 l 572 701 l 569 699 l 569 696 l 572 695 l 560 667 l 562 661 l 562 660 l 568 655 l 564 642 l 560 627 l 568 630 l 568 627 l 563 623 l 563 620 l 553 605 l 551 604 l 549 591 l 543 580 l 535 576 l 529 572 l 517 564 l 488 551 l 448 545 l 407 547 l 373 558 l 351 572 l 335 587 l 323 607 l 310 637 l 305 651 l 294 644 l 273 617 l 264 602 l 263 598 l 252 592 l 251 587 l 239 585 l 232 578 l 231 578 l 220 578 l 214 576 l 201 576 l 197 578 l 195 583 l 188 591 l 178 602 l 182 605 l 178 611 l 178 617 l 176 627 l 180 648 l 199 689 l 217 717 l 245 739 l 269 755 l 283 763 l 295 761 l 320 763 l 336 760 l 380 733 l 408 695 l 412 685 l 410 682 l 410 648 l 412 646 l 419 641 l 429 641 l 452 645 l 465 654 l 486 680 l 519 723 l 538 744 l 549 755 l 575 773 z "},"ó":{"ha":548,"x_min":35,"x_max":555,"o":"m 378 374 l 368 373 l 355 370 l 347 363 l 332 350 l 314 337 l 283 301 l 260 264 l 239 231 l 214 182 l 195 127 l 193 99 l 201 85 l 216 82 l 234 84 l 254 90 l 277 98 l 309 121 l 334 151 l 361 188 l 378 244 l 384 279 l 387 329 l 385 363 l 471 408 l 475 404 l 477 383 l 490 352 l 503 305 l 505 292 l 509 274 l 513 252 l 509 242 l 505 222 l 511 202 l 509 193 l 505 166 l 489 124 l 489 106 l 480 95 l 464 86 l 460 64 l 433 37 l 421 20 l 391 0 l 368 -17 l 357 -24 l 357 -28 l 337 -44 l 326 -44 l 319 -51 l 312 -48 l 308 -53 l 274 -64 l 258 -60 l 256 -66 l 252 -66 l 248 -62 l 234 -71 l 196 -71 l 189 -66 l 184 -68 l 143 -61 l 117 -46 l 97 -35 l 81 -19 l 71 -6 l 66 9 l 62 14 l 55 26 l 55 41 l 52 66 l 46 71 l 45 87 l 36 94 l 35 106 l 35 119 l 43 124 l 41 128 l 41 135 l 39 164 l 41 184 l 64 229 l 73 256 l 84 262 l 88 283 l 164 388 l 191 415 l 209 435 l 260 479 l 274 486 l 286 496 l 305 505 l 312 500 l 323 505 l 337 495 l 366 511 l 379 507 l 401 505 l 429 500 l 437 488 l 446 471 l 446 466 l 442 462 l 448 457 l 458 444 l 447 412 l 378 374 m 490 758 l 541 764 l 546 764 l 553 759 l 555 755 l 549 753 l 544 741 l 546 737 l 540 734 l 528 728 l 528 724 l 532 718 l 526 712 l 530 702 l 524 697 l 524 693 l 541 696 l 541 694 l 521 680 l 517 665 l 507 650 l 498 640 l 482 625 l 467 614 l 412 581 l 361 559 l 351 557 l 328 557 l 311 562 l 300 562 l 292 566 l 292 572 l 286 578 l 279 597 l 281 605 l 278 612 l 281 618 l 290 627 l 290 630 l 331 667 l 350 682 l 408 722 l 448 747 l 490 758 z "},"ò":{"ha":548,"x_min":35,"x_max":513,"o":"m 378 374 l 368 373 l 355 370 l 347 363 l 332 350 l 314 337 l 283 301 l 260 264 l 239 231 l 214 182 l 195 127 l 193 99 l 201 85 l 216 82 l 234 84 l 254 90 l 277 98 l 309 121 l 334 151 l 361 188 l 378 244 l 384 279 l 387 329 l 385 363 l 471 408 l 475 404 l 477 383 l 490 352 l 503 305 l 505 292 l 509 274 l 513 252 l 509 242 l 505 222 l 511 202 l 509 193 l 505 166 l 489 124 l 489 106 l 480 95 l 464 86 l 460 64 l 433 37 l 421 20 l 391 0 l 368 -17 l 357 -24 l 357 -28 l 337 -44 l 326 -44 l 319 -51 l 312 -48 l 308 -53 l 274 -64 l 258 -60 l 256 -66 l 252 -66 l 248 -62 l 234 -71 l 196 -71 l 189 -66 l 184 -68 l 143 -61 l 117 -46 l 97 -35 l 81 -19 l 71 -6 l 66 9 l 62 14 l 55 26 l 55 41 l 52 66 l 46 71 l 45 87 l 36 94 l 35 106 l 35 119 l 43 124 l 41 128 l 41 135 l 39 164 l 41 184 l 64 229 l 73 256 l 84 262 l 88 283 l 164 388 l 191 415 l 209 435 l 260 479 l 274 486 l 286 496 l 305 505 l 312 500 l 323 505 l 337 495 l 366 511 l 379 507 l 401 505 l 429 500 l 437 488 l 446 471 l 446 466 l 442 462 l 448 457 l 458 444 l 447 412 l 378 374 m 242 771 l 254 777 l 262 775 l 273 777 l 275 774 l 283 774 l 288 768 l 309 747 l 355 697 l 377 672 l 444 599 l 480 565 l 479 551 l 475 549 l 469 551 l 464 549 l 463 547 l 461 549 l 460 549 l 436 544 l 410 549 l 385 553 l 355 560 l 332 573 l 297 598 l 260 629 l 233 659 l 216 685 l 200 730 l 203 730 l 204 747 l 207 754 l 242 771 z "},"ô":{"ha":548,"x_min":35,"x_max":520,"o":"m 378 374 l 368 373 l 355 370 l 347 363 l 332 350 l 314 337 l 283 301 l 260 264 l 239 231 l 214 182 l 195 127 l 193 99 l 201 85 l 216 82 l 234 84 l 254 90 l 277 98 l 309 121 l 334 151 l 361 188 l 378 244 l 384 279 l 387 329 l 385 363 l 471 408 l 475 404 l 477 383 l 490 352 l 503 305 l 505 292 l 509 274 l 513 252 l 509 242 l 505 222 l 511 202 l 509 193 l 505 166 l 489 124 l 489 106 l 480 95 l 464 86 l 460 64 l 433 37 l 421 20 l 391 0 l 368 -17 l 357 -24 l 357 -28 l 337 -44 l 326 -44 l 319 -51 l 312 -48 l 308 -53 l 274 -64 l 258 -60 l 256 -66 l 252 -66 l 248 -62 l 234 -71 l 196 -71 l 189 -66 l 184 -68 l 143 -61 l 117 -46 l 97 -35 l 81 -19 l 71 -6 l 66 9 l 62 14 l 55 26 l 55 41 l 52 66 l 46 71 l 45 87 l 36 94 l 35 106 l 35 119 l 43 124 l 41 128 l 41 135 l 39 164 l 41 184 l 64 229 l 73 256 l 84 262 l 88 283 l 164 388 l 191 415 l 209 435 l 260 479 l 274 486 l 286 496 l 305 505 l 312 500 l 323 505 l 337 495 l 366 511 l 379 507 l 401 505 l 429 500 l 437 488 l 446 471 l 446 466 l 442 462 l 448 457 l 458 444 l 447 412 l 378 374 m 379 787 l 395 791 l 407 790 l 419 785 l 427 785 l 439 780 l 462 764 l 476 739 l 496 669 l 505 635 l 517 602 l 516 600 l 520 584 l 517 581 l 516 565 l 515 564 l 509 568 l 506 566 l 492 566 l 491 568 l 490 568 l 488 568 l 487 568 l 442 628 l 427 650 l 400 700 l 398 696 l 389 693 l 385 682 l 363 661 l 334 627 l 323 610 l 272 553 l 257 546 l 250 540 l 238 537 l 223 534 l 204 534 l 195 537 l 189 544 l 186 556 l 184 562 l 185 565 l 185 566 l 185 581 l 207 618 l 242 663 l 275 702 l 325 751 l 354 774 l 379 787 z "},"ö":{"ha":548,"x_min":35,"x_max":566,"o":"m 378 374 l 368 373 l 355 370 l 347 363 l 332 350 l 314 337 l 283 301 l 260 264 l 239 231 l 214 182 l 195 127 l 193 99 l 201 85 l 216 82 l 234 84 l 254 90 l 277 98 l 309 121 l 334 151 l 361 188 l 378 244 l 384 279 l 387 329 l 385 363 l 471 408 l 475 404 l 477 383 l 490 352 l 503 305 l 505 292 l 509 274 l 513 252 l 509 242 l 505 222 l 511 202 l 509 193 l 505 166 l 489 124 l 489 106 l 480 95 l 464 86 l 460 64 l 433 37 l 421 20 l 391 0 l 368 -17 l 357 -24 l 357 -28 l 337 -44 l 326 -44 l 319 -51 l 312 -48 l 308 -53 l 274 -64 l 258 -60 l 256 -66 l 252 -66 l 248 -62 l 234 -71 l 196 -71 l 189 -66 l 184 -68 l 143 -61 l 117 -46 l 97 -35 l 81 -19 l 71 -6 l 66 9 l 62 14 l 55 26 l 55 41 l 52 66 l 46 71 l 45 87 l 36 94 l 35 106 l 35 119 l 43 124 l 41 128 l 41 135 l 39 164 l 41 184 l 64 229 l 73 256 l 84 262 l 88 283 l 164 388 l 191 415 l 209 435 l 260 479 l 274 486 l 286 496 l 305 505 l 312 500 l 323 505 l 337 495 l 366 511 l 379 507 l 401 505 l 429 500 l 437 488 l 446 471 l 446 466 l 442 462 l 448 457 l 458 444 l 447 412 l 378 374 m 469 727 l 473 734 l 505 725 l 516 727 l 522 721 l 534 707 l 553 690 l 566 656 l 566 623 l 566 619 l 548 600 l 540 595 l 526 591 l 491 597 l 463 611 l 434 636 l 432 658 l 426 666 l 441 713 l 456 723 l 469 727 m 237 732 l 259 736 l 261 736 l 273 732 l 285 727 l 296 729 l 294 719 l 309 713 l 328 695 l 336 686 l 355 640 l 357 631 l 357 617 l 357 613 l 347 597 l 338 585 l 336 583 l 316 580 l 292 578 l 267 587 l 255 593 l 253 595 l 220 619 l 204 633 l 202 640 l 202 658 l 199 673 l 202 692 l 212 713 l 237 732 z "},"õ":{"ha":548,"x_min":25,"x_max":612,"o":"m 368 374 l 359 373 l 346 370 l 338 363 l 322 350 l 304 337 l 274 301 l 250 264 l 230 231 l 204 182 l 185 127 l 184 99 l 192 85 l 206 82 l 224 84 l 244 90 l 268 98 l 300 121 l 325 151 l 351 188 l 369 244 l 374 279 l 377 329 l 376 363 l 461 408 l 466 404 l 468 383 l 481 352 l 493 305 l 495 292 l 499 274 l 504 252 l 499 242 l 495 222 l 502 202 l 499 193 l 495 166 l 479 124 l 479 106 l 471 95 l 454 86 l 450 64 l 423 37 l 412 20 l 382 0 l 359 -17 l 347 -24 l 347 -28 l 328 -44 l 316 -44 l 309 -51 l 302 -48 l 298 -53 l 264 -64 l 249 -60 l 247 -66 l 242 -66 l 238 -62 l 224 -71 l 186 -71 l 180 -66 l 175 -68 l 134 -61 l 108 -46 l 87 -35 l 72 -19 l 61 -6 l 56 9 l 52 14 l 45 26 l 45 41 l 43 66 l 37 71 l 36 87 l 26 94 l 25 106 l 25 119 l 34 124 l 32 128 l 32 135 l 30 164 l 32 184 l 54 229 l 63 256 l 75 262 l 79 283 l 155 388 l 182 415 l 199 435 l 251 479 l 264 486 l 277 496 l 296 505 l 302 500 l 314 505 l 328 495 l 356 511 l 370 507 l 392 505 l 419 500 l 428 488 l 437 471 l 437 466 l 433 462 l 439 457 l 448 444 l 437 412 l 368 374 m 585 773 l 601 779 l 612 779 l 604 755 l 606 754 l 606 753 l 599 745 l 586 722 l 585 710 l 581 701 l 578 699 l 578 696 l 581 695 l 570 667 l 571 661 l 571 660 l 577 655 l 574 642 l 570 627 l 577 630 l 577 627 l 572 623 l 572 620 l 562 605 l 561 604 l 558 591 l 552 580 l 545 576 l 538 572 l 527 564 l 498 551 l 458 545 l 416 547 l 382 558 l 361 572 l 345 587 l 333 607 l 319 637 l 315 651 l 303 644 l 283 617 l 274 602 l 273 598 l 262 592 l 260 587 l 249 585 l 241 578 l 240 578 l 230 578 l 224 576 l 210 576 l 206 578 l 205 583 l 197 591 l 187 602 l 191 605 l 187 611 l 187 617 l 186 627 l 190 648 l 209 689 l 227 717 l 254 739 l 278 755 l 293 763 l 304 761 l 330 763 l 346 760 l 390 733 l 418 695 l 421 685 l 420 682 l 420 648 l 421 646 l 429 641 l 439 641 l 462 645 l 474 654 l 496 680 l 528 723 l 547 744 l 558 755 l 585 773 z "},"ú":{"ha":467,"x_min":56,"x_max":534,"o":"m 163 472 l 176 479 l 178 479 l 198 475 l 210 450 l 210 418 l 191 339 l 191 322 l 178 268 l 161 164 l 161 96 l 169 86 l 182 97 l 197 125 l 273 305 l 288 342 l 327 431 l 330 442 l 337 452 l 349 465 l 363 465 l 380 470 l 397 470 l 427 463 l 437 448 l 439 428 l 439 425 l 437 404 l 438 389 l 435 371 l 428 338 l 420 307 l 411 279 l 405 254 l 399 233 l 393 208 l 382 147 l 377 94 l 380 37 l 390 -11 l 377 -18 l 366 -14 l 363 -22 l 355 -20 l 349 -21 l 342 -15 l 334 5 l 329 27 l 322 52 l 319 106 l 294 56 l 272 29 l 223 -18 l 184 -39 l 154 -45 l 132 -37 l 107 -25 l 80 7 l 60 61 l 56 96 l 60 172 l 75 260 l 110 369 l 139 443 l 163 472 m 469 759 l 521 765 l 526 765 l 532 760 l 534 756 l 528 755 l 524 743 l 526 739 l 519 736 l 507 730 l 507 725 l 512 720 l 506 713 l 509 703 l 503 699 l 503 694 l 521 697 l 521 696 l 500 681 l 497 667 l 487 652 l 478 642 l 462 627 l 447 615 l 391 583 l 341 560 l 331 559 l 307 559 l 291 564 l 279 564 l 272 568 l 272 574 l 266 579 l 259 599 l 260 606 l 258 613 l 260 619 l 269 628 l 269 631 l 311 668 l 330 683 l 387 724 l 428 749 l 469 759 z "},"ù":{"ha":467,"x_min":56,"x_max":454,"o":"m 163 472 l 176 479 l 178 479 l 198 475 l 210 450 l 210 418 l 191 339 l 191 322 l 178 268 l 161 164 l 161 96 l 169 86 l 182 97 l 197 125 l 273 305 l 288 342 l 327 431 l 330 442 l 337 452 l 349 465 l 363 465 l 380 470 l 397 470 l 427 463 l 437 448 l 439 428 l 439 425 l 437 404 l 438 389 l 435 371 l 428 338 l 420 307 l 411 279 l 405 254 l 399 233 l 393 208 l 382 147 l 377 94 l 380 37 l 390 -11 l 377 -18 l 366 -14 l 363 -22 l 355 -20 l 349 -21 l 342 -15 l 334 5 l 329 27 l 322 52 l 319 106 l 294 56 l 272 29 l 223 -18 l 184 -39 l 154 -45 l 132 -37 l 107 -25 l 80 7 l 60 61 l 56 96 l 60 172 l 75 260 l 110 369 l 139 443 l 163 472 m 216 772 l 228 777 l 237 776 l 247 777 l 249 774 l 257 774 l 262 768 l 283 748 l 330 698 l 351 673 l 418 600 l 454 566 l 453 552 l 449 549 l 443 552 l 438 549 l 437 548 l 435 549 l 434 549 l 410 545 l 385 550 l 359 553 l 329 561 l 307 574 l 271 599 l 234 630 l 208 659 l 190 686 l 174 731 l 177 731 l 178 747 l 181 755 l 216 772 z "},"û":{"ha":467,"x_min":56,"x_max":494,"o":"m 163 472 l 176 479 l 178 479 l 198 475 l 210 450 l 210 418 l 191 339 l 191 322 l 178 268 l 161 164 l 161 96 l 169 86 l 182 97 l 197 125 l 273 305 l 288 342 l 327 431 l 330 442 l 337 452 l 349 465 l 363 465 l 380 470 l 397 470 l 427 463 l 437 448 l 439 428 l 439 425 l 437 404 l 438 389 l 435 371 l 428 338 l 420 307 l 411 279 l 405 254 l 399 233 l 393 208 l 382 147 l 377 94 l 380 37 l 390 -11 l 377 -18 l 366 -14 l 363 -22 l 355 -20 l 349 -21 l 342 -15 l 334 5 l 329 27 l 322 52 l 319 106 l 294 56 l 272 29 l 223 -18 l 184 -39 l 154 -45 l 132 -37 l 107 -25 l 80 7 l 60 61 l 56 96 l 60 172 l 75 260 l 110 369 l 139 443 l 163 472 m 353 787 l 370 791 l 381 790 l 393 785 l 401 785 l 414 780 l 436 764 l 450 739 l 470 669 l 479 635 l 492 602 l 490 600 l 494 584 l 492 581 l 490 565 l 489 564 l 483 568 l 480 566 l 467 566 l 465 568 l 464 568 l 463 568 l 461 568 l 416 628 l 401 650 l 374 700 l 372 696 l 363 693 l 359 682 l 337 661 l 308 627 l 298 610 l 246 553 l 231 546 l 224 540 l 212 537 l 197 534 l 178 534 l 170 537 l 163 544 l 161 556 l 158 562 l 159 565 l 159 566 l 159 581 l 181 618 l 216 663 l 249 702 l 299 751 l 328 774 l 353 787 z "},"ü":{"ha":467,"x_min":56,"x_max":523,"o":"m 163 472 l 176 479 l 178 479 l 198 475 l 210 450 l 210 418 l 191 339 l 191 322 l 178 268 l 161 164 l 161 96 l 169 86 l 182 97 l 197 125 l 273 305 l 288 342 l 327 431 l 330 442 l 337 452 l 349 465 l 363 465 l 380 470 l 397 470 l 427 463 l 437 448 l 439 428 l 439 425 l 437 404 l 438 389 l 435 371 l 428 338 l 420 307 l 411 279 l 405 254 l 399 233 l 393 208 l 382 147 l 377 94 l 380 37 l 390 -11 l 377 -18 l 366 -14 l 363 -22 l 355 -20 l 349 -21 l 342 -15 l 334 5 l 329 27 l 322 52 l 319 106 l 294 56 l 272 29 l 223 -18 l 184 -39 l 154 -45 l 132 -37 l 107 -25 l 80 7 l 60 61 l 56 96 l 60 172 l 75 260 l 110 369 l 139 443 l 163 472 m 427 729 l 431 736 l 462 727 l 473 729 l 479 723 l 491 709 l 511 692 l 523 658 l 523 625 l 523 621 l 505 602 l 497 597 l 484 593 l 448 600 l 420 613 l 391 638 l 389 660 l 383 668 l 399 715 l 413 725 l 427 729 m 195 734 l 216 739 l 218 739 l 230 734 l 242 729 l 254 731 l 252 721 l 266 715 l 285 697 l 293 688 l 313 642 l 315 633 l 315 619 l 315 615 l 304 600 l 295 587 l 293 585 l 273 582 l 250 580 l 224 589 l 212 595 l 210 597 l 177 621 l 161 635 l 159 642 l 159 660 l 156 675 l 159 694 l 170 715 l 195 734 z "},"†":{"ha":555,"x_min":46,"x_max":509,"o":"m 56 916 l 56 9 l 500 9 l 500 916 l 56 916 m 509 0 l 46 0 l 46 926 l 509 926 l 509 0 z "},"°":{"ha":555,"x_min":46,"x_max":509,"o":"m 56 916 l 56 9 l 500 9 l 500 916 l 56 916 m 509 0 l 46 0 l 46 926 l 509 926 l 509 0 z "},"¢":{"ha":570,"x_min":46,"x_max":570,"o":"m 278 283 l 298 395 l 249 347 l 251 345 l 239 330 l 204 281 l 208 279 l 244 278 l 278 283 m 529 768 l 540 755 l 543 730 l 518 647 l 506 617 l 500 598 l 532 594 l 557 580 l 570 559 l 570 543 l 568 522 l 544 526 l 511 530 l 480 524 l 473 507 l 468 494 l 415 349 l 417 345 l 410 336 l 408 318 l 443 328 l 479 335 l 538 352 l 548 356 l 547 349 l 533 338 l 538 334 l 527 315 l 521 292 l 511 282 l 506 271 l 511 269 l 507 256 l 475 240 l 472 233 l 458 225 l 375 195 l 370 186 l 358 176 l 353 161 l 349 163 l 344 159 l 333 138 l 325 111 l 307 27 l 295 -19 l 291 -14 l 286 -18 l 278 -79 l 280 -81 l 272 -92 l 276 -98 l 273 -105 l 271 -116 l 265 -125 l 254 -151 l 252 -155 l 247 -134 l 246 -79 l 243 -65 l 243 -33 l 246 47 l 258 147 l 254 154 l 217 148 l 175 151 l 138 160 l 107 176 l 90 191 l 68 205 l 54 224 l 49 238 l 46 270 l 54 307 l 74 340 l 111 391 l 191 468 l 259 524 l 325 566 l 359 584 l 387 645 l 425 705 l 447 735 l 458 748 l 477 768 l 494 778 l 514 774 l 529 768 z "},"£":{"ha":819,"x_min":18,"x_max":819,"o":"m 201 163 l 181 163 l 150 156 l 134 144 l 119 119 l 106 83 l 101 52 l 101 33 l 111 7 l 139 -10 l 153 -15 l 164 -11 l 186 5 l 223 51 l 256 102 l 268 127 l 284 149 l 250 157 l 201 163 m 606 687 l 630 699 l 655 697 l 680 695 l 695 686 l 718 667 l 725 640 l 710 627 l 694 626 l 683 626 l 665 637 l 647 636 l 612 609 l 574 568 l 526 502 l 524 496 l 542 494 l 564 494 l 591 492 l 596 492 l 667 478 l 762 446 l 819 418 l 819 414 l 810 406 l 805 411 l 792 401 l 787 397 l 781 399 l 756 392 l 763 385 l 734 380 l 703 374 l 692 369 l 676 370 l 654 370 l 643 366 l 631 368 l 600 363 l 578 347 l 560 342 l 509 325 l 487 323 l 456 315 l 433 313 l 413 303 l 409 301 l 411 290 l 407 288 l 387 258 l 374 229 l 374 222 l 474 168 l 567 98 l 642 26 l 675 6 l 678 -3 l 710 -16 l 712 -20 l 701 -27 l 692 -27 l 684 -32 l 667 -33 l 648 -26 l 616 -9 l 600 -9 l 595 -2 l 553 20 l 523 39 l 456 71 l 435 80 l 417 89 l 340 125 l 329 127 l 307 94 l 296 82 l 292 73 l 261 37 l 259 33 l 202 -29 l 176 -45 l 146 -59 l 140 -68 l 115 -75 l 96 -74 l 80 -78 l 66 -79 l 48 -72 l 33 -59 l 21 -43 l 18 -21 l 20 19 l 33 89 l 56 152 l 73 179 l 100 199 l 126 220 l 177 237 l 229 244 l 273 245 l 316 239 l 335 302 l 337 311 l 263 307 l 221 307 l 192 315 l 176 321 l 162 335 l 153 346 l 149 359 l 150 393 l 161 397 l 172 409 l 270 453 l 294 463 l 341 475 l 379 479 l 410 484 l 438 532 l 473 582 l 526 634 l 579 673 l 606 687 z "},"§":{"ha":555,"x_min":46,"x_max":509,"o":"m 56 916 l 56 9 l 500 9 l 500 916 l 56 916 m 509 0 l 46 0 l 46 926 l 509 926 l 509 0 z "},"•":{"ha":486,"x_min":102,"x_max":440,"o":"m 271 574 q 337 562 307 574 q 391 526 369 549 q 427 471 414 503 q 440 406 440 441 q 418 320 440 359 q 356 259 394 281 q 271 236 318 236 q 186 259 224 236 q 125 320 147 281 q 102 406 102 358 q 125 491 102 453 q 186 552 147 529 q 271 574 224 574 z "},"¶":{"ha":555,"x_min":46,"x_max":509,"o":"m 56 916 l 56 9 l 500 9 l 500 916 l 56 916 m 509 0 l 46 0 l 46 926 l 509 926 l 509 0 z "},"ß":{"ha":729,"x_min":23,"x_max":701,"o":"m 357 806 l 408 812 l 446 811 l 509 795 l 558 768 l 579 750 l 605 722 l 631 686 l 650 639 l 657 614 l 659 590 l 646 555 l 644 544 l 607 499 l 604 494 l 581 483 l 566 471 l 558 466 l 547 464 l 539 450 l 555 436 l 604 404 l 646 363 l 680 319 l 694 286 l 701 240 l 698 205 l 690 186 l 686 168 l 666 145 l 639 119 l 622 104 l 609 89 l 585 68 l 579 67 l 563 53 l 554 48 l 533 37 l 500 20 l 461 7 l 422 3 l 408 -2 l 382 -5 l 352 -9 l 345 -7 l 331 -12 l 233 -1 l 210 15 l 205 28 l 208 43 l 203 54 l 208 61 l 207 80 l 212 80 l 214 87 l 233 66 l 256 52 l 289 45 l 332 45 l 376 50 l 416 56 l 446 66 l 473 79 l 511 100 l 532 122 l 546 146 l 557 169 l 564 188 l 564 216 l 557 237 l 550 255 l 524 280 l 503 296 l 458 308 l 435 310 l 363 291 l 345 286 l 317 297 l 305 299 l 298 304 l 275 332 l 270 336 l 273 346 l 263 364 l 272 383 l 272 390 l 277 394 l 274 406 l 281 411 l 290 429 l 297 434 l 316 444 l 315 453 l 328 458 l 351 458 l 364 460 l 374 470 l 383 467 l 411 477 l 429 484 l 469 526 l 492 547 l 502 561 l 504 591 l 487 626 l 474 650 l 444 667 l 411 669 l 376 667 l 339 650 l 313 624 l 296 600 l 281 563 l 262 508 l 201 308 l 194 282 l 169 184 l 153 149 l 144 123 l 128 54 l 126 33 l 119 -2 l 104 -109 l 100 -132 l 83 -153 l 66 -193 l 63 -198 l 38 -203 l 31 -193 l 33 -189 l 28 -163 l 23 -147 l 43 53 l 66 204 l 116 407 l 153 522 l 187 631 l 202 666 l 208 680 l 222 709 l 248 737 l 271 763 l 291 778 l 308 787 l 357 806 z "},"®":{"ha":555,"x_min":46,"x_max":509,"o":"m 56 916 l 56 9 l 500 9 l 500 916 l 56 916 m 509 0 l 46 0 l 46 926 l 509 926 l 509 0 z "},"©":{"ha":555,"x_min":46,"x_max":509,"o":"m 56 916 l 56 9 l 500 9 l 500 916 l 56 916 m 509 0 l 46 0 l 46 926 l 509 926 l 509 0 z "},"™":{"ha":555,"x_min":46,"x_max":509,"o":"m 56 916 l 56 9 l 500 9 l 500 916 l 56 916 m 509 0 l 46 0 l 46 926 l 509 926 l 509 0 z "},"´":{"ha":462,"x_min":93,"x_max":370,"o":"m 304 1179 l 356 1185 l 361 1185 l 368 1181 l 370 1177 l 363 1175 l 359 1163 l 361 1159 l 355 1156 l 342 1150 l 342 1145 l 347 1140 l 341 1134 l 345 1124 l 338 1119 l 338 1115 l 356 1118 l 356 1116 l 336 1101 l 332 1087 l 322 1072 l 313 1062 l 297 1047 l 282 1036 l 227 1003 l 176 981 l 166 979 l 142 979 l 126 984 l 115 984 l 107 988 l 107 994 l 101 1000 l 94 1019 l 96 1027 l 93 1034 l 96 1040 l 104 1048 l 104 1052 l 146 1088 l 165 1103 l 222 1144 l 263 1169 l 304 1179 z "},"¨":{"ha":552,"x_min":93,"x_max":460,"o":"m 363 1155 l 368 1162 l 399 1153 l 410 1155 l 416 1149 l 428 1135 l 448 1118 l 460 1084 l 460 1050 l 460 1047 l 442 1027 l 434 1023 l 420 1019 l 385 1025 l 357 1039 l 328 1064 l 326 1086 l 320 1094 l 336 1141 l 350 1151 l 363 1155 m 132 1160 l 153 1164 l 155 1164 l 167 1160 l 179 1155 l 191 1157 l 189 1147 l 203 1141 l 222 1123 l 230 1114 l 250 1068 l 252 1059 l 252 1045 l 252 1041 l 241 1025 l 232 1013 l 230 1011 l 210 1008 l 186 1006 l 161 1015 l 149 1021 l 147 1023 l 114 1047 l 98 1061 l 96 1068 l 96 1086 l 93 1101 l 96 1120 l 106 1141 l 132 1160 z "},"≠":{"ha":555,"x_min":46,"x_max":509,"o":"m 56 916 l 56 9 l 500 9 l 500 916 l 56 916 m 509 0 l 46 0 l 46 926 l 509 926 l 509 0 z "},"Æ":{"ha":927,"x_min":37,"x_max":1112,"o":"m 397 659 l 393 659 l 368 593 l 366 587 l 356 549 l 351 543 l 345 520 l 334 496 l 323 461 l 314 431 l 305 389 l 325 387 l 396 387 l 396 442 l 398 488 l 399 534 l 401 554 l 401 584 l 404 631 l 401 650 l 397 659 m 488 -38 l 472 -28 l 446 2 l 434 18 l 428 32 l 423 58 l 418 79 l 414 106 l 407 131 l 404 174 l 399 191 l 393 231 l 377 227 l 344 226 l 340 222 l 296 225 l 263 229 l 247 227 l 233 200 l 232 178 l 222 152 l 214 132 l 210 120 l 205 115 l 195 90 l 193 86 l 185 65 l 180 46 l 173 25 l 159 3 l 155 -9 l 141 -31 l 132 -47 l 121 -58 l 106 -61 l 96 -68 l 76 -69 l 64 -68 l 52 -59 l 43 -46 l 39 -40 l 39 -14 l 37 -8 l 41 35 l 48 62 l 72 137 l 81 171 l 105 243 l 116 272 l 123 281 l 124 294 l 110 326 l 109 338 l 117 342 l 114 351 l 120 366 l 122 372 l 137 378 l 142 372 l 159 376 l 174 418 l 177 421 l 180 433 l 211 503 l 226 532 l 227 541 l 262 612 l 274 634 l 295 680 l 311 717 l 339 781 l 344 789 l 349 800 l 381 865 l 394 892 l 416 937 l 438 970 l 452 977 l 464 977 l 467 981 l 505 975 l 528 968 l 532 964 l 545 961 l 575 942 l 607 887 l 612 886 l 622 846 l 618 825 l 614 789 l 631 796 l 651 800 l 655 797 l 668 808 l 677 809 l 711 812 l 728 820 l 774 829 l 807 834 l 839 836 l 876 840 l 895 842 l 902 836 l 916 834 l 921 842 l 926 845 l 943 842 l 955 842 l 968 846 l 984 841 l 987 844 l 1035 844 l 1049 842 l 1069 840 l 1074 833 l 1085 838 l 1105 836 l 1107 834 l 1106 826 l 1108 827 l 1112 823 l 1105 817 l 1074 814 l 1052 809 l 1040 806 l 1023 798 l 1010 801 l 997 800 l 980 793 l 963 784 l 957 787 l 930 783 l 861 766 l 830 758 l 826 756 l 822 758 l 806 756 l 799 753 l 776 745 l 750 744 l 741 739 l 727 744 l 720 735 l 705 730 l 656 714 l 623 709 l 626 675 l 625 648 l 621 624 l 622 604 l 625 579 l 632 502 l 633 479 l 629 448 l 631 408 l 690 418 l 695 417 l 724 425 l 741 430 l 759 430 l 763 434 l 786 435 l 793 439 l 804 437 l 811 444 l 817 442 l 835 446 l 842 450 l 850 446 l 849 439 l 863 441 l 874 422 l 865 398 l 848 397 l 799 388 l 788 382 l 788 378 l 777 374 l 755 371 l 746 364 l 711 359 l 706 354 l 655 347 l 629 340 l 621 283 l 627 243 l 623 237 l 621 187 l 620 159 l 619 148 l 623 117 l 621 104 l 631 68 l 658 43 l 676 35 l 701 28 l 719 24 l 743 18 l 777 14 l 791 8 l 809 9 l 831 8 l 841 7 l 846 2 l 854 7 l 859 9 l 869 2 l 870 -9 l 876 -7 l 877 -15 l 869 -24 l 865 -30 l 854 -27 l 842 -44 l 822 -58 l 810 -69 l 804 -74 l 736 -83 l 728 -87 l 721 -90 l 696 -93 l 678 -95 l 663 -96 l 645 -96 l 629 -96 l 605 -96 l 593 -94 l 587 -89 l 581 -91 l 555 -84 l 544 -79 l 524 -62 l 503 -51 l 488 -38 z "},"Ø":{"ha":814,"x_min":85,"x_max":800,"o":"m 264 111 l 266 109 l 291 182 l 350 315 l 420 459 l 515 627 l 492 648 l 461 644 l 437 636 l 411 602 l 382 541 l 340 456 l 328 441 l 319 404 l 307 383 l 293 340 l 287 334 l 264 288 l 239 229 l 240 172 l 252 125 l 264 111 m 610 512 l 605 522 l 519 365 l 486 304 l 465 262 l 449 235 l 441 208 l 427 193 l 399 134 l 390 115 l 376 80 l 369 68 l 421 67 l 431 70 l 448 73 l 481 77 l 530 98 l 551 113 l 574 122 l 595 150 l 616 208 l 631 259 l 633 283 l 648 304 l 642 313 l 645 374 l 626 464 l 610 512 m 585 733 l 585 730 l 659 831 l 694 869 l 724 890 l 743 902 l 762 902 l 785 881 l 788 865 l 785 848 l 785 831 l 764 787 l 727 718 l 679 638 l 688 624 l 696 624 l 702 612 l 705 604 l 715 585 l 732 550 l 745 540 l 751 522 l 753 497 l 760 495 l 770 444 l 772 440 l 780 411 l 784 381 l 792 365 l 800 334 l 800 319 l 799 273 l 789 248 l 787 220 l 774 181 l 764 148 l 757 140 l 757 130 l 751 118 l 735 100 l 739 93 l 736 87 l 722 79 l 703 56 l 671 31 l 636 12 l 614 -7 l 593 -11 l 574 -17 l 568 -23 l 545 -35 l 517 -37 l 499 -45 l 484 -49 l 470 -47 l 452 -55 l 397 -50 l 350 -41 l 318 -28 l 291 -94 l 277 -120 l 262 -160 l 253 -176 l 249 -176 l 230 -200 l 218 -198 l 203 -191 l 201 -167 l 209 -127 l 222 -42 l 237 12 l 222 20 l 197 39 l 159 74 l 129 117 l 107 157 l 91 214 l 85 245 l 86 313 l 90 350 l 104 407 l 130 462 l 140 480 l 159 511 l 168 523 l 174 535 l 221 600 l 237 622 l 293 693 l 314 717 l 330 727 l 341 745 l 357 753 l 368 766 l 382 772 l 398 788 l 415 796 l 427 804 l 478 819 l 482 823 l 498 823 l 505 827 l 525 823 l 538 825 l 549 817 l 559 807 l 561 800 l 570 784 l 581 780 l 581 774 l 581 751 l 585 733 z "},"∞":{"ha":555,"x_min":46,"x_max":509,"o":"m 56 916 l 56 9 l 500 9 l 500 916 l 56 916 m 509 0 l 46 0 l 46 926 l 509 926 l 509 0 z "},"±":{"ha":555,"x_min":46,"x_max":509,"o":"m 56 916 l 56 9 l 500 9 l 500 916 l 56 916 m 509 0 l 46 0 l 46 926 l 509 926 l 509 0 z "},"≤":{"ha":555,"x_min":46,"x_max":509,"o":"m 56 916 l 56 9 l 500 9 l 500 916 l 56 916 m 509 0 l 46 0 l 46 926 l 509 926 l 509 0 z "},"≥":{"ha":555,"x_min":46,"x_max":509,"o":"m 56 916 l 56 9 l 500 9 l 500 916 l 56 916 m 509 0 l 46 0 l 46 926 l 509 926 l 509 0 z "},"¥":{"ha":812,"x_min":14,"x_max":831,"o":"m 745 864 l 766 880 l 779 873 l 781 867 l 779 846 l 783 846 l 774 822 l 766 806 l 766 797 l 759 781 l 745 770 l 745 757 l 754 750 l 766 752 l 772 746 l 712 667 l 696 640 l 683 602 l 649 549 l 625 513 l 620 502 l 589 455 l 575 439 l 569 428 l 551 408 l 555 401 l 585 401 l 671 401 l 719 399 l 772 388 l 777 383 l 806 374 l 826 368 l 824 361 l 831 352 l 824 345 l 814 343 l 799 343 l 795 340 l 797 330 l 768 332 l 761 330 l 761 318 l 768 314 l 768 309 l 757 304 l 757 300 l 719 296 l 685 290 l 649 287 l 602 285 l 595 280 l 551 276 l 481 264 l 435 254 l 425 233 l 416 202 l 412 195 l 414 189 l 408 175 l 387 97 l 376 41 l 372 34 l 370 14 l 361 -6 l 359 -39 l 346 -71 l 334 -104 l 330 -106 l 325 -129 l 320 -134 l 316 -151 l 311 -178 l 309 -212 l 307 -230 l 307 -252 l 304 -272 l 298 -279 l 296 -288 l 287 -294 l 278 -283 l 262 -257 l 260 -241 l 251 -223 l 244 -161 l 244 -53 l 249 43 l 256 97 l 271 186 l 278 227 l 168 202 l 121 195 l 87 197 l 72 199 l 47 209 l 30 222 l 16 238 l 14 254 l 20 271 l 45 290 l 132 325 l 235 361 l 218 408 l 202 464 l 193 528 l 191 564 l 193 643 l 197 701 l 213 741 l 220 757 l 242 774 l 256 781 l 264 783 l 280 781 l 285 774 l 289 774 l 309 764 l 325 750 l 347 692 l 356 650 l 356 600 l 361 578 l 361 555 l 361 461 l 374 454 l 390 471 l 450 533 l 571 674 l 638 750 l 736 857 l 745 864 z "},"µ":{"ha":555,"x_min":46,"x_max":509,"o":"m 56 916 l 56 9 l 500 9 l 500 916 l 56 916 m 509 0 l 46 0 l 46 926 l 509 926 l 509 0 z "},"∂":{"ha":555,"x_min":46,"x_max":509,"o":"m 56 916 l 56 9 l 500 9 l 500 916 l 56 916 m 509 0 l 46 0 l 46 926 l 509 926 l 509 0 z "},"Σ":{"ha":555,"x_min":46,"x_max":509,"o":"m 56 916 l 56 9 l 500 9 l 500 916 l 56 916 m 509 0 l 46 0 l 46 926 l 509 926 l 509 0 z "},"∏":{"ha":555,"x_min":46,"x_max":509,"o":"m 56 916 l 56 9 l 500 9 l 500 916 l 56 916 m 509 0 l 46 0 l 46 926 l 509 926 l 509 0 z "},"π":{"ha":555,"x_min":46,"x_max":509,"o":"m 56 916 l 56 9 l 500 9 l 500 916 l 56 916 m 509 0 l 46 0 l 46 926 l 509 926 l 509 0 z "},"∫":{"ha":555,"x_min":46,"x_max":509,"o":"m 56 916 l 56 9 l 500 9 l 500 916 l 56 916 m 509 0 l 46 0 l 46 926 l 509 926 l 509 0 z "},"ª":{"ha":555,"x_min":46,"x_max":509,"o":"m 56 916 l 56 9 l 500 9 l 500 916 l 56 916 m 509 0 l 46 0 l 46 926 l 509 926 l 509 0 z "},"º":{"ha":555,"x_min":46,"x_max":509,"o":"m 56 916 l 56 9 l 500 9 l 500 916 l 56 916 m 509 0 l 46 0 l 46 926 l 509 926 l 509 0 z "},"Ω":{"ha":555,"x_min":46,"x_max":509,"o":"m 56 916 l 56 9 l 500 9 l 500 916 l 56 916 m 509 0 l 46 0 l 46 926 l 509 926 l 509 0 z "},"æ":{"ha":852,"x_min":28,"x_max":834,"o":"m 713 338 l 698 350 l 631 305 l 579 262 l 556 248 l 538 228 l 519 203 l 564 211 l 597 231 l 650 264 l 691 296 l 713 332 l 713 338 m 463 373 l 456 373 l 412 357 l 351 320 l 273 263 l 224 215 l 186 172 l 163 120 l 168 111 l 176 109 l 244 164 l 319 235 l 417 331 l 463 373 m 574 378 l 576 344 l 665 408 l 696 419 l 738 417 l 758 408 l 774 397 l 794 366 l 798 343 l 798 314 l 796 294 l 785 247 l 787 240 l 760 200 l 724 166 l 662 126 l 626 108 l 606 106 l 566 101 l 550 104 l 600 79 l 629 70 l 660 66 l 693 66 l 772 70 l 817 77 l 819 72 l 834 75 l 834 70 l 825 68 l 827 63 l 812 50 l 791 43 l 789 43 l 794 32 l 769 25 l 762 21 l 747 18 l 738 5 l 711 -1 l 686 -4 l 684 -11 l 689 -20 l 591 -26 l 575 -26 l 568 -31 l 530 -26 l 496 -15 l 472 -6 l 448 0 l 425 25 l 397 43 l 376 72 l 368 102 l 376 149 l 372 149 l 340 106 l 308 76 l 294 54 l 280 41 l 264 25 l 239 5 l 197 -21 l 149 -38 l 127 -35 l 84 -21 l 51 -5 l 38 16 l 29 34 l 28 65 l 33 100 l 43 145 l 71 196 l 77 203 l 102 234 l 168 293 l 268 363 l 351 413 l 404 439 l 446 449 l 464 449 l 486 424 l 488 415 l 477 384 l 506 410 l 511 410 l 528 412 l 555 405 l 562 398 l 568 395 l 570 385 l 574 378 z "},"ø":{"ha":675,"x_min":-37,"x_max":860,"o":"m 524 248 l 532 279 l 494 250 l 490 245 l 472 234 l 472 229 l 430 189 l 381 137 l 363 117 l 344 94 l 323 71 l 302 51 l 292 35 l 295 26 l 300 24 l 324 26 l 353 36 l 409 75 l 433 97 l 444 109 l 469 138 l 490 172 l 524 248 m 783 545 l 826 548 l 844 548 l 860 534 l 848 526 l 842 526 l 844 519 l 848 519 l 853 512 l 817 500 l 802 487 l 783 472 l 770 454 l 750 435 l 730 418 l 719 415 l 705 408 l 692 393 l 656 370 l 637 356 l 614 338 l 610 334 l 610 273 l 613 255 l 604 215 l 593 177 l 587 163 l 576 134 l 567 123 l 556 105 l 530 71 l 514 53 l 474 12 l 460 1 l 427 -22 l 385 -44 l 367 -49 l 334 -65 l 258 -75 l 213 -68 l 184 -55 l 164 -75 l 153 -80 l 142 -96 l 102 -134 l 88 -145 l 77 -155 l 33 -175 l 6 -177 l -19 -171 l -30 -166 l -37 -146 l -37 -131 l -31 -113 l -26 -104 l -15 -86 l 16 -50 l 73 26 l 78 34 l 57 83 l 55 105 l 61 132 l 79 179 l 110 224 l 163 290 l 178 305 l 241 370 l 278 400 l 303 412 l 319 407 l 312 376 l 292 347 l 279 326 l 266 302 l 228 248 l 206 198 l 202 178 l 211 180 l 273 243 l 353 313 l 469 399 l 504 422 l 497 429 l 486 433 l 477 440 l 459 437 l 432 437 l 423 444 l 412 444 l 416 455 l 454 471 l 499 478 l 535 472 l 562 454 l 665 504 l 704 522 l 783 545 z "},"¿":{"ha":555,"x_min":52,"x_max":597,"o":"m 553 716 l 530 701 l 488 719 l 465 720 l 444 733 l 437 728 l 432 731 l 422 751 l 412 765 l 407 758 l 402 760 l 397 768 l 382 785 l 385 795 l 380 805 l 385 805 l 385 810 l 378 827 l 380 849 l 378 859 l 385 857 l 385 859 l 382 866 l 400 876 l 422 881 l 434 898 l 459 896 l 464 896 l 498 884 l 533 861 l 543 849 l 553 842 l 560 834 l 560 825 l 582 812 l 597 805 l 592 798 l 592 790 l 587 783 l 589 772 l 585 768 l 577 768 l 582 758 l 574 753 l 579 736 l 574 733 l 562 733 l 562 728 l 553 716 m 302 -8 l 252 -14 l 201 -11 l 153 4 l 125 20 l 90 50 l 75 65 l 62 108 l 52 161 l 57 181 l 62 186 l 64 199 l 85 214 l 110 232 l 123 242 l 145 244 l 158 257 l 206 292 l 209 292 l 229 313 l 241 320 l 244 320 l 304 383 l 330 421 l 338 441 l 368 515 l 376 566 l 376 573 l 378 604 l 380 608 l 378 631 l 376 636 l 378 659 l 380 661 l 380 669 l 391 669 l 398 677 l 411 689 l 416 687 l 431 702 l 449 694 l 452 669 l 465 637 l 487 592 l 500 538 l 500 478 l 484 425 l 462 364 l 421 301 l 376 248 l 346 218 l 282 165 l 275 155 l 320 159 l 406 159 l 426 159 l 433 156 l 461 128 l 464 108 l 467 100 l 459 83 l 449 68 l 421 45 l 345 7 l 302 -8 z "},"¡":{"ha":463,"x_min":123,"x_max":523,"o":"m 359 963 l 371 970 l 412 954 l 422 956 l 422 963 l 437 966 l 432 954 l 439 943 l 442 946 l 442 954 l 447 954 l 457 939 l 464 943 l 469 941 l 479 921 l 489 907 l 494 914 l 498 911 l 504 904 l 518 887 l 516 877 l 518 862 l 523 845 l 521 823 l 518 806 l 501 795 l 479 791 l 467 774 l 437 776 l 403 788 l 368 810 l 359 823 l 349 830 l 341 838 l 341 848 l 319 860 l 304 867 l 309 875 l 309 882 l 314 889 l 312 899 l 317 904 l 324 904 l 319 914 l 326 919 l 321 936 l 326 939 l 338 939 l 338 943 l 351 960 l 356 963 l 359 963 m 174 -15 l 149 -6 l 131 17 l 123 48 l 132 82 l 144 178 l 161 294 l 193 416 l 231 527 l 275 642 l 307 697 l 342 743 l 360 753 l 366 744 l 374 742 l 382 726 l 375 704 l 382 700 l 372 673 l 358 646 l 345 604 l 344 563 l 342 555 l 340 538 l 337 513 l 329 509 l 330 497 l 324 492 l 327 481 l 307 399 l 304 389 l 288 269 l 295 261 l 277 151 l 265 99 l 239 14 l 225 -7 l 217 -11 l 174 -15 z "},"¬":{"ha":555,"x_min":46,"x_max":509,"o":"m 56 916 l 56 9 l 500 9 l 500 916 l 56 916 m 509 0 l 46 0 l 46 926 l 509 926 l 509 0 z "},"√":{"ha":555,"x_min":46,"x_max":509,"o":"m 56 916 l 56 9 l 500 9 l 500 916 l 56 916 m 509 0 l 46 0 l 46 926 l 509 926 l 509 0 z "},"ƒ":{"ha":555,"x_min":46,"x_max":509,"o":"m 56 916 l 56 9 l 500 9 l 500 916 l 56 916 m 509 0 l 46 0 l 46 926 l 509 926 l 509 0 z "},"≈":{"ha":555,"x_min":46,"x_max":509,"o":"m 56 916 l 56 9 l 500 9 l 500 916 l 56 916 m 509 0 l 46 0 l 46 926 l 509 926 l 509 0 z "},"∆":{"ha":555,"x_min":46,"x_max":509,"o":"m 56 916 l 56 9 l 500 9 l 500 916 l 56 916 m 509 0 l 46 0 l 46 926 l 509 926 l 509 0 z "},"«":{"ha":667,"x_min":83,"x_max":610,"o":"m 541 506 l 559 511 l 583 502 l 590 500 l 601 482 l 610 451 l 608 435 l 592 407 l 572 387 l 564 372 l 510 330 l 441 267 l 465 239 l 475 224 l 515 178 l 524 163 l 530 145 l 537 123 l 537 112 l 522 110 l 488 87 l 467 83 l 435 103 l 429 105 l 422 101 l 389 119 l 332 180 l 315 220 l 310 249 l 321 292 l 336 323 l 394 385 l 477 458 l 541 506 m 359 513 l 378 519 l 380 519 l 400 513 l 414 506 l 420 482 l 418 460 l 414 451 l 368 409 l 292 352 l 211 277 l 198 255 l 198 246 l 204 233 l 248 191 l 283 158 l 294 147 l 308 132 l 317 110 l 319 85 l 317 79 l 306 68 l 288 66 l 279 68 l 264 57 l 246 57 l 220 68 l 140 125 l 121 147 l 101 172 l 83 213 l 83 233 l 87 262 l 101 288 l 130 332 l 229 422 l 294 473 l 350 509 l 359 513 z "},"»":{"ha":667,"x_min":18,"x_max":612,"o":"m 345 503 l 366 516 l 386 514 l 396 507 l 401 503 l 408 503 l 419 487 l 482 448 l 522 422 l 533 414 l 574 367 l 598 328 l 604 314 l 604 309 l 610 298 l 608 285 l 612 279 l 608 243 l 606 226 l 602 224 l 592 212 l 557 182 l 512 161 l 494 149 l 488 147 l 474 145 l 463 153 l 450 149 l 449 140 l 435 138 l 431 132 l 417 130 l 382 122 l 368 118 l 362 118 l 347 116 l 335 112 l 311 104 l 278 85 l 274 88 l 243 71 l 213 61 l 208 57 l 192 57 l 192 77 l 197 104 l 215 136 l 243 157 l 294 184 l 412 232 l 447 245 l 463 257 l 405 304 l 371 340 l 355 371 l 341 390 l 331 406 l 325 441 l 321 454 l 321 465 l 327 481 l 337 498 l 345 503 m 87 70 l 69 66 l 45 75 l 27 94 l 18 125 l 21 140 l 36 169 l 56 189 l 64 204 l 127 246 l 208 300 l 164 336 l 153 352 l 113 398 l 104 414 l 98 431 l 92 453 l 92 465 l 106 467 l 140 488 l 161 493 l 193 473 l 199 471 l 205 475 l 238 441 l 288 389 l 334 322 l 341 289 l 319 252 l 279 228 l 235 191 l 151 119 l 87 70 z "},"…":{"ha":1389,"x_min":117,"x_max":1271,"o":"m 172 167 l 184 174 l 226 157 l 233 157 l 236 159 l 236 167 l 251 170 l 245 157 l 251 150 l 256 150 l 256 157 l 260 157 l 271 142 l 278 147 l 283 144 l 292 125 l 302 111 l 307 118 l 312 115 l 317 108 l 332 91 l 330 81 l 332 66 l 337 49 l 334 26 l 332 9 l 315 -1 l 292 -5 l 280 -22 l 256 -20 l 251 -20 l 216 -7 l 182 14 l 172 26 l 159 29 l 162 34 l 155 41 l 155 52 l 132 64 l 117 71 l 123 79 l 123 86 l 127 93 l 125 103 l 130 108 l 138 108 l 132 118 l 140 123 l 135 140 l 140 142 l 152 142 l 152 147 l 162 159 l 172 167 m 642 167 l 654 174 l 696 157 l 704 157 l 706 159 l 706 167 l 721 170 l 716 157 l 721 150 l 724 147 l 726 150 l 726 157 l 731 157 l 741 142 l 748 147 l 753 144 l 763 125 l 773 111 l 778 118 l 783 115 l 787 108 l 802 91 l 800 81 l 805 71 l 800 71 l 800 66 l 807 49 l 805 26 l 807 17 l 800 19 l 800 17 l 802 9 l 785 -1 l 763 -5 l 751 -22 l 726 -20 l 721 -20 l 686 -7 l 652 14 l 642 26 l 630 29 l 633 34 l 625 41 l 625 52 l 603 64 l 588 71 l 593 79 l 593 86 l 598 93 l 610 123 l 606 140 l 610 142 l 623 142 l 623 147 l 633 159 l 642 167 m 1106 167 l 1118 174 l 1160 157 l 1170 159 l 1170 167 l 1185 170 l 1180 157 l 1187 147 l 1190 150 l 1190 157 l 1194 157 l 1204 142 l 1212 147 l 1217 144 l 1227 125 l 1234 111 l 1236 111 l 1241 118 l 1246 115 l 1251 108 l 1263 93 l 1266 91 l 1263 81 l 1271 49 l 1268 26 l 1271 17 l 1263 19 l 1263 17 l 1266 9 l 1249 -1 l 1227 -5 l 1214 -22 l 1190 -20 l 1185 -20 l 1150 -7 l 1116 14 l 1106 26 l 1094 29 l 1096 34 l 1088 41 l 1088 52 l 1067 64 l 1052 71 l 1055 79 l 1057 79 l 1057 86 l 1061 93 l 1059 103 l 1064 108 l 1072 108 l 1067 118 l 1074 123 l 1069 140 l 1074 142 l 1084 140 l 1086 142 l 1086 147 l 1096 159 l 1106 167 z "}," ":{"ha":278,"x_min":0,"x_max":0,"o":""},"À":{"ha":554,"x_min":46,"x_max":555,"o":"m 360 192 l 327 188 l 323 184 l 280 182 l 246 182 l 231 178 l 219 151 l 221 130 l 213 102 l 208 80 l 205 68 l 201 62 l 191 33 l 190 20 l 186 12 l 184 -8 l 178 -30 l 166 -54 l 164 -65 l 153 -89 l 144 -106 l 134 -118 l 121 -122 l 111 -130 l 92 -134 l 80 -134 l 66 -126 l 52 -109 l 48 -83 l 46 -77 l 46 -34 l 50 -6 l 64 74 l 72 106 l 87 180 l 96 210 l 101 220 l 101 233 l 83 262 l 81 275 l 90 280 l 85 288 l 90 304 l 92 315 l 92 317 l 113 323 l 129 332 l 138 361 l 142 376 l 166 449 l 174 479 l 178 481 l 178 488 l 205 563 l 215 587 l 231 633 l 243 673 l 264 739 l 268 747 l 272 759 l 298 828 l 305 840 l 323 888 l 341 923 l 355 931 l 370 937 l 408 935 l 431 931 l 435 927 l 449 925 l 480 909 l 524 858 l 539 833 l 539 828 l 537 812 l 543 796 l 545 741 l 543 722 l 543 699 l 539 671 l 537 631 l 535 596 l 527 538 l 525 519 l 515 479 l 511 469 l 509 444 l 504 418 l 504 400 l 500 396 l 500 382 l 498 376 l 502 371 l 490 349 l 490 343 l 502 330 l 502 317 l 507 317 l 502 292 l 498 282 l 502 264 l 496 259 l 498 247 l 498 224 l 490 220 l 486 218 l 490 194 l 494 188 l 492 170 l 496 157 l 492 153 l 494 141 l 492 123 l 505 43 l 509 29 l 507 21 l 515 -4 l 513 -24 l 515 -63 l 519 -73 l 515 -79 l 517 -89 l 522 -109 l 527 -116 l 525 -130 l 531 -161 l 537 -184 l 537 -199 l 545 -228 l 543 -252 l 520 -213 l 500 -171 l 500 -167 l 492 -149 l 468 -102 l 460 -79 l 443 -34 l 441 -16 l 429 9 l 419 31 l 414 56 l 354 453 l 355 470 l 355 513 l 352 576 l 352 629 l 348 674 l 330 612 l 319 573 l 311 549 l 305 510 l 301 504 l 298 481 l 290 455 l 282 420 l 276 388 l 276 365 l 292 361 l 330 358 l 363 193 l 360 192 m 317 1198 l 328 1203 l 337 1202 l 347 1203 l 349 1200 l 357 1200 l 362 1194 l 384 1174 l 430 1124 l 452 1099 l 518 1025 l 555 991 l 553 978 l 549 975 l 543 978 l 538 975 l 537 974 l 536 975 l 534 975 l 511 970 l 485 976 l 459 979 l 429 987 l 407 1000 l 372 1025 l 334 1056 l 308 1085 l 290 1112 l 275 1157 l 277 1157 l 279 1173 l 281 1181 l 317 1198 z "},"Ã":{"ha":554,"x_min":46,"x_max":682,"o":"m 360 192 l 327 188 l 323 184 l 280 182 l 246 182 l 231 178 l 219 151 l 221 130 l 213 102 l 208 80 l 205 68 l 201 62 l 191 33 l 190 20 l 186 12 l 184 -8 l 178 -30 l 166 -54 l 164 -65 l 153 -89 l 144 -106 l 134 -118 l 121 -122 l 111 -130 l 92 -134 l 80 -134 l 66 -126 l 52 -109 l 48 -83 l 46 -77 l 46 -34 l 50 -6 l 64 74 l 72 106 l 87 180 l 96 210 l 101 220 l 101 233 l 83 262 l 81 275 l 90 280 l 85 288 l 90 304 l 92 315 l 92 317 l 113 323 l 129 332 l 138 361 l 142 376 l 166 449 l 174 479 l 178 481 l 178 488 l 205 563 l 215 587 l 231 633 l 243 673 l 264 739 l 268 747 l 272 759 l 298 828 l 305 840 l 323 888 l 341 923 l 355 931 l 370 937 l 408 935 l 431 931 l 435 927 l 449 925 l 480 909 l 524 858 l 539 833 l 539 828 l 537 812 l 543 796 l 545 741 l 543 722 l 543 699 l 539 671 l 537 631 l 535 596 l 527 538 l 525 519 l 515 479 l 511 469 l 509 444 l 504 418 l 504 400 l 500 396 l 500 382 l 498 376 l 502 371 l 490 349 l 490 343 l 502 330 l 502 317 l 507 317 l 502 292 l 498 282 l 502 264 l 496 259 l 498 247 l 498 224 l 490 220 l 486 218 l 490 194 l 494 188 l 492 170 l 496 157 l 492 153 l 494 141 l 492 123 l 505 43 l 509 29 l 507 21 l 515 -4 l 513 -24 l 515 -63 l 519 -73 l 515 -79 l 517 -89 l 522 -109 l 527 -116 l 525 -130 l 531 -161 l 537 -184 l 537 -199 l 545 -228 l 543 -252 l 520 -213 l 500 -171 l 500 -167 l 492 -149 l 468 -102 l 460 -79 l 443 -34 l 441 -16 l 429 9 l 419 31 l 414 56 l 354 453 l 355 470 l 355 513 l 352 576 l 352 629 l 348 674 l 330 612 l 319 573 l 311 549 l 305 510 l 301 504 l 298 481 l 290 455 l 282 420 l 276 388 l 276 365 l 292 361 l 330 358 l 363 193 l 360 192 m 654 1199 l 671 1205 l 682 1205 l 673 1181 l 676 1180 l 676 1179 l 669 1171 l 656 1147 l 654 1136 l 651 1127 l 648 1125 l 648 1122 l 651 1121 l 640 1093 l 641 1087 l 641 1086 l 647 1081 l 644 1068 l 640 1053 l 647 1056 l 647 1053 l 642 1048 l 642 1046 l 632 1031 l 631 1029 l 628 1017 l 622 1006 l 614 1002 l 608 998 l 597 990 l 568 977 l 528 970 l 486 972 l 452 984 l 431 998 l 414 1013 l 403 1033 l 389 1063 l 385 1077 l 373 1069 l 353 1043 l 344 1028 l 342 1024 l 332 1018 l 330 1013 l 319 1010 l 311 1004 l 310 1004 l 300 1004 l 294 1002 l 280 1002 l 276 1004 l 275 1009 l 267 1017 l 257 1028 l 261 1031 l 257 1037 l 257 1043 l 256 1053 l 260 1074 l 279 1115 l 296 1143 l 324 1165 l 348 1181 l 363 1189 l 374 1187 l 399 1189 l 416 1185 l 460 1159 l 488 1121 l 491 1111 l 490 1107 l 490 1074 l 491 1072 l 498 1067 l 509 1067 l 532 1071 l 544 1080 l 566 1106 l 598 1149 l 617 1170 l 628 1181 l 654 1199 z "},"Õ":{"ha":814,"x_min":74,"x_max":795,"o":"m 596 713 l 616 698 l 633 678 l 640 679 l 651 661 l 665 644 l 677 624 l 691 612 l 695 604 l 705 585 l 703 579 l 711 575 l 721 553 l 721 550 l 737 536 l 741 522 l 743 497 l 749 495 l 757 479 l 761 440 l 769 411 l 773 381 l 778 362 l 793 360 l 791 350 l 789 334 l 789 319 l 791 315 l 795 315 l 790 290 l 785 256 l 777 220 l 777 214 l 773 209 l 773 197 l 764 181 l 754 148 l 746 140 l 746 130 l 741 118 l 725 100 l 729 93 l 725 87 l 711 79 l 705 71 l 690 65 l 680 51 l 673 37 l 667 31 l 640 15 l 625 12 l 620 5 l 604 -7 l 583 -11 l 563 -17 l 557 -23 l 534 -35 l 505 -39 l 489 -45 l 473 -49 l 459 -47 l 441 -55 l 387 -50 l 340 -41 l 286 -19 l 277 -14 l 262 -7 l 212 20 l 186 39 l 148 74 l 118 117 l 96 157 l 80 214 l 74 245 l 75 313 l 79 346 l 94 407 l 119 462 l 127 470 l 129 480 l 149 511 l 163 535 l 210 600 l 226 622 l 282 693 l 298 711 l 303 717 l 319 727 l 331 745 l 347 753 l 358 766 l 372 772 l 387 788 l 405 796 l 416 804 l 467 819 l 471 823 l 487 823 l 495 827 l 515 823 l 528 825 l 538 817 l 548 807 l 550 800 l 560 784 l 570 780 l 570 774 l 570 752 l 437 614 l 428 611 l 404 579 l 377 524 l 340 456 l 328 433 l 320 400 l 309 380 l 296 342 l 291 336 l 271 294 l 248 240 l 248 189 l 258 146 l 270 133 l 292 111 l 336 96 l 413 94 l 421 96 l 437 99 l 467 102 l 511 121 l 530 136 l 552 144 l 571 169 l 590 221 l 603 268 l 606 290 l 619 309 l 614 317 l 616 372 l 599 454 l 585 498 l 573 520 l 546 550 l 521 588 l 502 599 l 481 618 l 592 718 l 596 713 m 715 1199 l 732 1205 l 743 1205 l 734 1181 l 737 1180 l 737 1179 l 730 1171 l 717 1147 l 715 1136 l 712 1127 l 709 1125 l 709 1122 l 712 1121 l 701 1093 l 702 1087 l 702 1086 l 708 1081 l 705 1068 l 701 1053 l 708 1056 l 708 1053 l 703 1048 l 703 1046 l 693 1031 l 692 1029 l 689 1017 l 683 1006 l 675 1002 l 669 998 l 658 990 l 629 977 l 589 970 l 547 972 l 513 984 l 492 998 l 475 1013 l 464 1033 l 450 1063 l 446 1077 l 434 1069 l 414 1043 l 405 1028 l 404 1024 l 393 1018 l 391 1013 l 380 1010 l 372 1004 l 371 1004 l 361 1004 l 355 1002 l 341 1002 l 337 1004 l 336 1009 l 328 1017 l 318 1028 l 322 1031 l 318 1037 l 318 1043 l 317 1053 l 321 1074 l 340 1115 l 357 1143 l 385 1165 l 409 1181 l 424 1189 l 435 1187 l 460 1189 l 477 1185 l 521 1159 l 549 1121 l 552 1111 l 551 1107 l 551 1074 l 552 1072 l 559 1067 l 570 1067 l 593 1071 l 605 1080 l 627 1106 l 659 1149 l 678 1170 l 689 1181 l 715 1199 z "},"Œ":{"ha":1128,"x_min":83,"x_max":1313,"o":"m 474 552 l 450 570 l 425 564 l 414 547 l 404 524 l 386 464 l 359 391 l 351 377 l 347 347 l 339 328 l 330 292 l 326 287 l 316 243 l 296 195 l 294 153 l 298 120 l 309 109 l 331 92 l 372 81 l 442 87 l 490 100 l 528 121 l 544 136 l 563 145 l 578 170 l 590 219 l 597 262 l 597 282 l 608 301 l 602 308 l 599 358 l 576 431 l 559 469 l 547 488 l 519 512 l 492 544 l 474 552 m 701 -24 l 671 -2 l 663 13 l 650 0 l 643 -17 l 622 -24 l 603 -31 l 597 -38 l 576 -52 l 549 -58 l 532 -67 l 517 -73 l 503 -73 l 486 -82 l 431 -83 l 383 -78 l 328 -62 l 317 -58 l 303 -54 l 250 -32 l 222 -16 l 181 16 l 146 55 l 121 94 l 98 148 l 90 178 l 83 245 l 84 279 l 83 283 l 92 341 l 112 399 l 119 407 l 119 417 l 135 450 l 148 475 l 188 545 l 201 569 l 250 645 l 262 659 l 263 665 l 268 671 l 283 683 l 292 701 l 317 726 l 330 734 l 344 751 l 361 761 l 372 770 l 420 789 l 424 793 l 439 795 l 447 800 l 467 798 l 480 802 l 491 795 l 502 787 l 505 779 l 516 764 l 526 762 l 527 756 l 530 732 l 536 715 l 559 699 l 581 685 l 600 667 l 606 668 l 622 650 l 635 636 l 650 618 l 659 640 l 673 687 l 673 694 l 659 703 l 654 708 l 657 713 l 654 720 l 659 729 l 684 743 l 687 747 l 699 770 l 711 807 l 737 818 l 736 824 l 734 831 l 739 838 l 763 832 l 767 829 l 790 817 l 796 818 l 815 824 l 832 831 l 852 836 l 903 848 l 928 856 l 975 865 l 989 862 l 1008 870 l 1039 871 l 1064 876 l 1127 880 l 1143 878 l 1155 878 l 1168 881 l 1185 877 l 1236 880 l 1240 877 l 1240 873 l 1250 878 l 1270 876 l 1274 868 l 1286 873 l 1305 871 l 1306 866 l 1306 862 l 1308 862 l 1313 859 l 1305 852 l 1291 854 l 1283 848 l 1272 850 l 1270 842 l 1259 844 l 1255 836 l 1237 836 l 1221 836 l 1209 838 l 1179 831 l 1162 821 l 1156 825 l 1128 820 l 1100 820 l 1074 804 l 1053 798 l 1003 791 l 980 782 l 954 781 l 945 777 l 924 772 l 909 767 l 880 758 l 860 758 l 865 732 l 880 677 l 880 623 l 880 595 l 874 576 l 870 557 l 865 522 l 859 489 l 853 451 l 899 456 l 905 454 l 934 462 l 951 467 l 969 467 l 972 471 l 991 475 l 1027 479 l 1044 483 l 1065 486 l 1076 488 l 1085 476 l 1085 442 l 1067 440 l 1065 434 l 1042 429 l 1015 422 l 1002 419 l 989 414 l 977 409 l 956 407 l 947 400 l 911 394 l 906 389 l 856 382 l 836 378 l 819 317 l 817 293 l 813 270 l 806 251 l 803 221 l 809 182 l 808 151 l 822 117 l 831 104 l 858 79 l 877 71 l 901 64 l 922 58 l 943 54 l 977 50 l 992 43 l 1010 45 l 1031 43 l 1059 45 l 1065 39 l 1074 18 l 1061 3 l 1043 -9 l 1015 -31 l 991 -39 l 968 -44 l 929 -52 l 922 -55 l 896 -58 l 878 -59 l 863 -61 l 845 -61 l 829 -60 l 806 -61 l 793 -58 l 781 -56 l 755 -49 l 745 -44 l 720 -35 l 713 -29 l 701 -24 z "},"œ":{"ha":879,"x_min":37,"x_max":870,"o":"m 724 366 l 720 366 l 709 363 l 655 340 l 606 314 l 561 282 l 542 262 l 504 223 l 522 221 l 566 237 l 604 257 l 637 279 l 663 300 l 687 323 l 724 366 m 384 366 l 377 374 l 368 373 l 355 370 l 347 363 l 330 350 l 313 337 l 282 301 l 259 264 l 239 231 l 213 182 l 193 127 l 193 99 l 201 85 l 215 82 l 233 74 l 259 76 l 283 89 l 322 107 l 350 140 l 370 182 l 387 235 l 394 279 l 386 329 l 384 366 m 400 3 l 392 12 l 387 16 l 383 1 l 363 -6 l 367 -17 l 356 -24 l 356 -28 l 336 -44 l 283 -66 l 233 -71 l 229 -71 l 195 -71 l 184 -68 l 168 -66 l 153 -62 l 117 -46 l 96 -35 l 81 -19 l 70 -6 l 65 9 l 54 26 l 37 83 l 41 135 l 39 164 l 41 184 l 47 200 l 50 209 l 65 222 l 63 229 l 72 256 l 83 262 l 87 283 l 163 388 l 191 415 l 208 435 l 260 479 l 273 486 l 282 491 l 302 505 l 304 505 l 311 500 l 322 505 l 336 495 l 365 511 l 378 507 l 401 505 l 427 500 l 437 488 l 446 471 l 446 466 l 441 462 l 448 457 l 463 435 l 456 421 l 468 419 l 465 412 l 475 404 l 485 387 l 502 368 l 559 395 l 619 433 l 709 471 l 755 470 l 794 451 l 805 440 l 810 425 l 805 420 l 812 399 l 804 357 l 776 306 l 767 294 l 751 281 l 743 279 l 720 252 l 707 243 l 707 239 l 693 225 l 669 205 l 667 198 l 653 191 l 648 191 l 635 180 l 622 174 l 583 146 l 566 140 l 562 134 l 503 111 l 476 109 l 469 89 l 472 82 l 478 71 l 510 53 l 559 39 l 612 33 l 617 28 l 707 24 l 774 28 l 834 37 l 865 44 l 870 44 l 870 39 l 836 19 l 803 -1 l 789 -5 l 772 -7 l 767 -14 l 738 -26 l 727 -26 l 722 -33 l 713 -35 l 700 -35 l 686 -35 l 680 -41 l 633 -48 l 606 -52 l 588 -52 l 564 -52 l 557 -57 l 548 -55 l 534 -55 l 530 -52 l 485 -50 l 447 -37 l 438 -30 l 420 -17 l 407 -3 l 405 6 l 400 3 z "},"–":{"ha":730,"x_min":56,"x_max":674,"o":"m 396 328 l 455 328 l 531 330 l 640 330 l 665 328 l 674 321 l 673 316 l 656 309 l 653 303 l 647 302 l 627 290 l 624 280 l 610 273 l 602 266 l 591 258 l 555 248 l 534 241 l 530 235 l 516 227 l 513 220 l 473 210 l 401 189 l 340 178 l 286 176 l 243 172 l 204 174 l 170 172 l 115 191 l 88 186 l 73 197 l 74 202 l 62 215 l 57 219 l 59 243 l 56 253 l 69 277 l 76 287 l 102 295 l 169 302 l 274 319 l 396 328 z "},"—":{"ha":1499,"x_min":56,"x_max":1444,"o":"m 920 349 l 1106 352 l 1357 340 l 1442 327 l 1444 319 l 1429 310 l 1405 301 l 1387 298 l 1390 292 l 1375 293 l 1371 288 l 1345 287 l 1322 278 l 1320 271 l 1314 271 l 1312 267 l 1251 264 l 1237 261 l 1231 261 l 1227 256 l 1205 253 l 1195 252 l 1171 255 l 1168 249 l 1122 248 l 1098 245 l 871 236 l 854 231 l 842 228 l 814 225 l 806 226 l 789 225 l 772 222 l 759 224 l 749 223 l 725 220 l 715 222 l 694 212 l 677 213 l 662 208 l 648 209 l 637 208 l 614 201 l 591 201 l 559 199 l 532 194 l 468 183 l 411 176 l 372 176 l 275 176 l 199 178 l 150 184 l 130 187 l 108 172 l 100 176 l 85 181 l 71 191 l 68 203 l 56 228 l 58 243 l 57 255 l 76 274 l 84 289 l 98 292 l 108 292 l 201 314 l 267 326 l 349 324 l 399 331 l 437 335 l 485 342 l 538 344 l 556 347 l 570 346 l 591 347 l 658 347 l 672 351 l 690 347 l 697 345 l 723 348 l 784 347 l 920 349 z "},"“":{"ha":544,"x_min":151,"x_max":616,"o":"m 342 916 l 355 920 l 372 918 l 379 918 l 394 909 l 396 895 l 394 878 l 379 867 l 368 861 l 349 840 l 313 795 l 264 731 l 254 704 l 269 699 l 275 697 l 283 672 l 281 665 l 267 640 l 241 612 l 230 614 l 213 608 l 181 606 l 164 610 l 154 629 l 151 648 l 151 691 l 162 729 l 183 768 l 205 797 l 250 850 l 298 890 l 342 916 m 505 927 l 532 941 l 555 944 l 588 943 l 592 939 l 600 939 l 606 935 l 616 915 l 608 873 l 587 850 l 560 827 l 511 783 l 482 747 l 522 735 l 532 709 l 528 695 l 515 675 l 503 663 l 491 652 l 489 642 l 475 644 l 454 622 l 452 616 l 441 612 l 431 608 l 425 610 l 410 604 l 408 604 l 390 602 l 378 606 l 370 612 l 366 622 l 354 636 l 346 652 l 338 675 l 338 699 l 340 725 l 350 760 l 384 814 l 427 863 l 475 905 l 505 927 z "},"”":{"ha":544,"x_min":151,"x_max":543,"o":"m 218 909 l 239 911 l 296 909 l 330 893 l 339 886 l 355 861 l 366 821 l 366 768 l 361 743 l 353 727 l 349 711 l 339 698 l 303 665 l 288 660 l 277 649 l 275 651 l 256 649 l 248 651 l 241 642 l 230 633 l 212 625 l 205 627 l 178 606 l 176 606 l 174 608 l 151 604 l 161 637 l 199 694 l 245 805 l 223 823 l 208 826 l 185 828 l 180 848 l 182 864 l 189 882 l 201 895 l 218 909 m 431 937 l 449 944 l 480 940 l 485 942 l 500 928 l 514 915 l 536 868 l 543 842 l 541 794 l 530 759 l 516 720 l 505 707 l 498 694 l 492 692 l 467 656 l 440 635 l 429 620 l 411 613 l 402 604 l 389 613 l 378 608 l 371 608 l 389 671 l 402 723 l 416 830 l 391 842 l 382 852 l 378 871 l 382 890 l 389 902 l 389 904 l 404 920 l 418 922 l 431 937 z "},"‘":{"ha":358,"x_min":133,"x_max":412,"o":"m 300 927 l 328 941 l 351 944 l 383 943 l 387 939 l 395 939 l 401 935 l 412 915 l 404 873 l 382 850 l 355 827 l 306 783 l 277 747 l 317 735 l 327 709 l 323 695 l 311 675 l 298 663 l 287 652 l 284 642 l 271 644 l 250 622 l 248 616 l 236 612 l 226 608 l 220 610 l 205 604 l 203 604 l 186 602 l 174 606 l 165 612 l 161 622 l 149 636 l 141 652 l 133 675 l 133 699 l 135 725 l 145 760 l 180 814 l 222 863 l 271 905 l 300 927 z "},"’":{"ha":358,"x_min":165,"x_max":338,"o":"m 226 937 l 243 944 l 275 940 l 279 942 l 295 928 l 309 915 l 331 868 l 338 842 l 335 794 l 324 759 l 311 720 l 300 707 l 293 694 l 286 692 l 262 656 l 235 635 l 224 620 l 205 613 l 197 604 l 183 613 l 172 608 l 165 608 l 183 671 l 202 722 l 216 829 l 185 842 l 176 852 l 172 871 l 176 890 l 183 902 l 183 904 l 199 920 l 212 922 l 226 937 z "},"÷":{"ha":555,"x_min":46,"x_max":509,"o":"m 56 916 l 56 9 l 500 9 l 500 916 l 56 916 m 509 0 l 46 0 l 46 926 l 509 926 l 509 0 z "},"◊":{"ha":555,"x_min":46,"x_max":509,"o":"m 56 916 l 56 9 l 500 9 l 500 916 l 56 916 m 509 0 l 46 0 l 46 926 l 509 926 l 509 0 z "},"ÿ":{"ha":545,"x_min":-130,"x_max":545,"o":"m 201 506 l 229 508 l 239 508 l 244 501 l 249 501 l 258 479 l 260 444 l 255 439 l 260 434 l 253 405 l 229 349 l 217 327 l 206 296 l 199 275 l 197 273 l 188 237 l 188 233 l 186 210 l 206 226 l 255 287 l 307 358 l 331 387 l 334 394 l 351 412 l 372 444 l 398 458 l 405 465 l 437 468 l 446 470 l 481 448 l 488 446 l 504 430 l 506 421 l 513 416 l 524 405 l 524 378 l 526 374 l 526 354 l 519 334 l 522 309 l 510 273 l 510 258 l 501 246 l 494 213 l 490 206 l 479 179 l 475 161 l 458 148 l 443 121 l 434 96 l 416 66 l 403 41 l 394 9 l 380 3 l 378 -7 l 370 -11 l 376 -20 l 363 -54 l 349 -74 l 353 -87 l 347 -87 l 342 -90 l 342 -105 l 332 -140 l 327 -155 l 315 -176 l 302 -203 l 297 -222 l 284 -252 l 273 -257 l 273 -269 l 264 -275 l 267 -279 l 258 -293 l 243 -315 l 231 -331 l 224 -349 l 197 -374 l 177 -400 l 159 -412 l 150 -416 l 134 -427 l 98 -438 l 90 -438 l 63 -443 l 56 -448 l 33 -448 l 7 -438 l -7 -434 l -22 -434 l -45 -422 l -69 -416 l -96 -393 l -114 -376 l -121 -358 l -125 -347 l -123 -340 l -123 -333 l -125 -317 l -130 -309 l -127 -297 l -130 -291 l -125 -281 l -119 -293 l -116 -288 l -116 -262 l -107 -266 l -105 -297 l -100 -300 l -92 -297 l -78 -307 l -74 -313 l -47 -324 l 38 -322 l 72 -315 l 107 -302 l 121 -295 l 146 -288 l 170 -269 l 197 -230 l 226 -143 l 260 0 l 262 31 l 267 54 l 271 72 l 275 103 l 229 69 l 219 76 l 175 61 l 141 65 l 132 72 l 107 85 l 81 110 l 65 150 l 58 181 l 56 220 l 63 262 l 74 302 l 119 401 l 168 477 l 193 501 l 201 506 m 449 733 l 453 741 l 484 731 l 496 733 l 502 727 l 513 713 l 533 696 l 545 662 l 545 629 l 545 625 l 528 606 l 519 602 l 506 597 l 471 604 l 443 617 l 414 642 l 412 664 l 406 672 l 421 719 l 435 729 l 449 733 m 217 739 l 239 743 l 241 743 l 252 739 l 264 733 l 276 735 l 274 725 l 288 719 l 307 701 l 315 692 l 335 646 l 337 637 l 337 623 l 337 619 l 327 604 l 317 591 l 315 589 l 296 586 l 272 584 l 247 593 l 235 600 l 233 602 l 199 625 l 184 639 l 182 646 l 182 664 l 178 680 l 182 698 l 192 719 l 217 739 z "},"Ÿ":{"ha":692,"x_min":60,"x_max":821,"o":"m 764 1017 l 782 1031 l 795 1042 l 817 1055 l 821 1040 l 816 1024 l 802 998 l 795 975 l 768 922 l 758 899 l 719 826 l 703 795 l 688 767 l 675 744 l 670 730 l 644 687 l 635 671 l 621 648 l 605 618 l 599 612 l 589 589 l 579 573 l 570 553 l 554 530 l 548 510 l 524 461 l 515 448 l 503 418 l 503 412 l 497 406 l 489 389 l 477 369 l 473 357 l 475 347 l 471 288 l 469 214 l 466 200 l 466 86 l 468 71 l 468 29 l 466 0 l 466 -16 l 462 -26 l 461 -46 l 458 -71 l 456 -77 l 452 -96 l 454 -108 l 448 -121 l 432 -136 l 371 -142 l 327 -130 l 301 -85 l 288 -31 l 277 24 l 269 87 l 266 172 l 271 228 l 273 294 l 279 355 l 279 401 l 231 454 l 184 507 l 134 579 l 97 629 l 77 675 l 68 711 l 60 754 l 68 779 l 89 801 l 99 810 l 115 803 l 122 795 l 132 806 l 172 791 l 197 769 l 264 699 l 297 656 l 366 562 l 390 518 l 408 545 l 419 576 l 431 596 l 446 618 l 458 644 l 464 648 l 473 667 l 526 748 l 556 785 l 587 830 l 650 913 l 673 938 l 692 957 l 710 974 l 738 1002 l 764 1017 m 465 1155 l 469 1162 l 500 1153 l 512 1155 l 518 1149 l 530 1135 l 549 1118 l 562 1084 l 562 1050 l 562 1047 l 544 1027 l 536 1023 l 522 1019 l 487 1025 l 459 1039 l 430 1064 l 428 1086 l 422 1094 l 437 1141 l 452 1151 l 465 1155 m 233 1160 l 255 1164 l 257 1164 l 269 1160 l 281 1155 l 292 1157 l 290 1147 l 304 1141 l 323 1123 l 332 1114 l 351 1068 l 353 1059 l 353 1045 l 353 1041 l 343 1025 l 334 1013 l 332 1011 l 312 1008 l 288 1006 l 263 1015 l 251 1021 l 249 1023 l 216 1047 l 200 1061 l 198 1068 l 198 1086 l 195 1101 l 198 1120 l 208 1141 l 233 1160 z "},"∕":{"ha":555,"x_min":46,"x_max":509,"o":"m 56 916 l 56 9 l 500 9 l 500 916 l 56 916 m 509 0 l 46 0 l 46 926 l 509 926 l 509 0 z "},"¤":{"ha":555,"x_min":46,"x_max":509,"o":"m 56 916 l 56 9 l 500 9 l 500 916 l 56 916 m 509 0 l 46 0 l 46 926 l 509 926 l 509 0 z "},"‹":{"ha":494,"x_min":74,"x_max":423,"o":"m 365 522 l 378 526 l 398 521 l 406 515 l 416 513 l 416 501 l 423 495 l 420 479 l 418 475 l 410 469 l 400 460 l 365 436 l 355 425 l 357 422 l 357 418 l 309 385 l 306 379 l 258 344 l 251 336 l 253 332 l 199 281 l 196 277 l 182 265 l 180 260 l 184 244 l 214 214 l 315 138 l 339 114 l 368 77 l 368 73 l 361 71 l 357 65 l 351 65 l 349 61 l 347 61 l 328 52 l 321 48 l 313 52 l 286 65 l 273 66 l 237 85 l 221 89 l 219 91 l 178 113 l 142 140 l 117 165 l 94 201 l 82 220 l 76 236 l 74 245 l 76 275 l 92 318 l 102 332 l 161 385 l 276 467 l 361 521 l 365 522 z "},"›":{"ha":494,"x_min":18,"x_max":439,"o":"m 172 503 l 193 516 l 213 514 l 222 507 l 229 503 l 235 503 l 246 487 l 309 448 l 349 422 l 360 414 l 401 367 l 425 328 l 431 314 l 431 309 l 437 298 l 435 285 l 439 279 l 438 263 l 435 243 l 433 226 l 429 224 l 425 212 l 419 212 l 405 202 l 403 193 l 397 195 l 391 189 l 384 182 l 382 180 l 368 175 l 362 173 l 358 177 l 338 161 l 321 149 l 315 147 l 301 145 l 275 140 l 262 138 l 258 132 l 244 130 l 235 125 l 195 118 l 189 118 l 174 112 l 165 110 l 162 112 l 138 104 l 105 85 l 101 88 l 70 71 l 40 61 l 35 57 l 18 57 l 18 77 l 24 104 l 42 136 l 70 157 l 121 184 l 238 232 l 273 245 l 290 257 l 232 304 l 198 340 l 182 371 l 168 390 l 158 406 l 152 441 l 148 454 l 148 465 l 152 479 l 154 481 l 163 498 l 172 503 z "},"":{"ha":555,"x_min":46,"x_max":509,"o":"m 56 916 l 56 9 l 500 9 l 500 916 l 56 916 m 509 0 l 46 0 l 46 926 l 509 926 l 509 0 z "},"":{"ha":555,"x_min":46,"x_max":509,"o":"m 56 916 l 56 9 l 500 9 l 500 916 l 56 916 m 509 0 l 46 0 l 46 926 l 509 926 l 509 0 z "},"‡":{"ha":555,"x_min":46,"x_max":509,"o":"m 56 916 l 56 9 l 500 9 l 500 916 l 56 916 m 509 0 l 46 0 l 46 926 l 509 926 l 509 0 z "},"·":{"ha":293,"x_min":37,"x_max":256,"o":"m 92 422 l 104 430 l 140 419 l 180 412 l 190 398 l 197 403 l 202 400 l 212 380 l 219 366 l 222 366 l 227 373 l 231 371 l 237 363 l 249 349 l 256 304 l 254 282 l 256 273 l 249 275 l 249 273 l 251 265 l 234 255 l 212 250 l 199 233 l 175 235 l 170 235 l 136 248 l 101 270 l 92 282 l 79 285 l 81 290 l 74 297 l 74 307 l 52 319 l 37 326 l 39 334 l 42 334 l 42 341 l 47 349 l 45 359 l 50 363 l 57 363 l 60 389 l 92 422 z "}}}
